#N canvas 652 10 554 693 10;
#X obj 50 33 inlet;
#X obj 127 33 inlet;
#X floatatom 253 294 5 0 0 0 - - -, f 5;
#X floatatom 341 295 5 0 0 0 - - -, f 5;
#X floatatom 430 296 5 0 0 0 - - -, f 5;
#X obj 253 327 sel 0;
#X obj 253 358 spigot;
#X msg 308 330 0;
#X obj 301 361 tgl 15 0 empty empty empty 17 7 0 10 -262144 -1 -1 1
1;
#X msg 339 361 1;
#X obj 255 383 bng 15 250 50 0 empty empty empty 17 7 0 10 -262144
-1 -1;
#X floatatom 307 419 5 0 0 0 - - -, f 5;
#X obj 307 398 counter 0 9;
#X obj 309 498 +;
#X msg 303 475 0;
#X floatatom 309 519 5 0 0 0 - - -, f 5;
#X msg 308 614 1;
#X msg 339 613 -1;
#X obj 252 600 bng 15 250 50 0 empty empty empty 17 7 0 10 -262144
-1 -1;
#X obj 252 660 +;
#X floatatom 308 635 5 0 0 0 - - -, f 5;
#X floatatom 252 681 5 0 0 0 - - -, f 5;
#X obj 252 620 float;
#X floatatom 192 641 5 0 0 0 - - -, f 5;
#X msg 260 561 0;
#X floatatom 252 745 5 0 0 0 - - -, f 5;
#X obj 252 765 outlet;
#X obj 257 517 inlet;
#X obj 309 579 sel 0 1;
#X obj 309 539 t b f;
#X obj 430 327 sel 0;
#X obj 430 358 spigot;
#X msg 485 330 0;
#X obj 478 361 tgl 15 0 empty empty empty 17 7 0 10 -262144 -1 -1 0
1;
#X msg 516 361 1;
#X obj 430 383 bng 15 250 50 0 empty empty empty 17 7 0 10 -262144
-1 -1;
#X obj 430 403 outlet;
#X obj 252 724 expr ($f1 + 20000)%20;
#X obj 50 153 sel 0;
#X obj 127 153 sel 0;
#X msg 127 234 1;
#X msg 50 234 -1;
#X obj 50 116 spigot;
#X obj 127 116 spigot;
#X obj 255 135 expr if($f1 == 1 && $f2 == 1 \, 1 \, 0);
#X obj 255 77 tgl 15 0 empty empty empty 17 7 0 10 -262144 -1 -1 1
1;
#X obj 435 78 tgl 15 0 empty empty empty 17 7 0 10 -262144 -1 -1 1
1;
#X obj 255 162 tgl 15 0 empty empty empty 17 7 0 10 -262144 -1 -1 1
1;
#X obj 435 104 t b f;
#X obj 50 59 t a a;
#X obj 127 60 t a a;
#X obj 50 275 +;
#X floatatom 50 310 5 0 0 0 - - -, f 5;
#X floatatom 50 367 5 0 0 0 - - -, f 5;
#X obj 50 387 outlet;
#X obj 50 346 expr ($f1 + 20000)%20;
#X msg 135 278 0;
#X obj 255 17 loadbang;
#X connect 0 0 49 0;
#X connect 0 0 2 0;
#X connect 1 0 50 0;
#X connect 1 0 3 0;
#X connect 2 0 5 0;
#X connect 3 0 13 1;
#X connect 4 0 30 0;
#X connect 5 0 6 0;
#X connect 5 0 7 0;
#X connect 5 1 9 0;
#X connect 6 0 10 0;
#X connect 6 0 14 0;
#X connect 7 0 8 0;
#X connect 8 0 6 1;
#X connect 9 0 8 0;
#X connect 10 0 12 0;
#X connect 12 0 11 0;
#X connect 13 0 15 0;
#X connect 14 0 13 0;
#X connect 15 0 29 0;
#X connect 16 0 20 0;
#X connect 17 0 20 0;
#X connect 18 0 22 0;
#X connect 19 0 21 0;
#X connect 20 0 19 1;
#X connect 21 0 22 1;
#X connect 21 0 37 0;
#X connect 22 0 23 0;
#X connect 22 0 19 0;
#X connect 24 0 20 0;
#X connect 24 0 22 0;
#X connect 25 0 26 0;
#X connect 27 0 24 0;
#X connect 28 0 16 0;
#X connect 28 1 17 0;
#X connect 29 0 18 0;
#X connect 29 1 28 0;
#X connect 30 0 31 0;
#X connect 30 0 32 0;
#X connect 30 1 34 0;
#X connect 31 0 35 0;
#X connect 32 0 33 0;
#X connect 33 0 31 1;
#X connect 34 0 33 0;
#X connect 35 0 36 0;
#X connect 37 0 25 0;
#X connect 38 0 41 0;
#X connect 39 0 40 0;
#X connect 40 0 51 0;
#X connect 41 0 51 0;
#X connect 42 0 38 0;
#X connect 43 0 39 0;
#X connect 44 0 47 0;
#X connect 45 0 44 0;
#X connect 46 0 48 0;
#X connect 47 0 43 1;
#X connect 47 0 42 1;
#X connect 48 0 44 0;
#X connect 48 1 44 1;
#X connect 49 0 45 0;
#X connect 49 1 42 0;
#X connect 50 0 46 0;
#X connect 50 1 43 0;
#X connect 51 0 52 0;
#X connect 52 0 51 1;
#X connect 52 0 55 0;
#X connect 53 0 54 0;
#X connect 55 0 53 0;
#X connect 56 0 52 0;
#X connect 57 0 45 0;
#X connect 57 0 46 0;
