#N canvas 261 166 450 300 10;
#X obj 78 37 inlet;
#X obj 78 60 bng 15 250 50 0 empty empty empty 17 7 0 10 -262144 -1
-1;
#X obj 306 8 loadbang;
#X msg 306 29 0;
#X obj 78 112 % 2;
#X obj 78 133 sel 0 1;
#X floatatom 148 133 5 0 0 0 - - -, f 5;
#X obj 78 154 random 6;
#X obj 117 176 random 3;
#X floatatom 78 195 5 0 0 0 - - -, f 5;
#X floatatom 117 244 5 0 0 0 - - -, f 5;
#X obj 78 265 outlet;
#X msg 342 29 3;
#X obj 117 197 * 2;
#X obj 163 34 inlet;
#X floatatom 163 56 5 0 0 0 - - -, f 5;
#X obj 148 96 + 0;
#X msg 78 80 0;
#X obj 251 112 inlet;
#X floatatom 251 133 5 0 0 0 - - -, f 5;
#X obj 251 153 % 2;
#X obj 117 219 + 0;
#X connect 0 0 1 0;
#X connect 1 0 17 0;
#X connect 2 0 3 0;
#X connect 3 0 15 0;
#X connect 4 0 5 0;
#X connect 4 0 6 0;
#X connect 5 0 7 0;
#X connect 5 1 8 0;
#X connect 7 0 9 0;
#X connect 8 0 13 0;
#X connect 9 0 11 0;
#X connect 10 0 11 0;
#X connect 12 0 15 0;
#X connect 13 0 21 0;
#X connect 14 0 15 0;
#X connect 15 0 16 1;
#X connect 16 0 4 0;
#X connect 17 0 16 0;
#X connect 18 0 19 0;
#X connect 19 0 20 0;
#X connect 20 0 21 1;
#X connect 21 0 10 0;
