#N canvas 201 110 1020 678 10;
#X obj 49 228 random 12;
#X obj 49 277 + 60;
#X msg 121 228 72;
#X msg 157 229 79;
#X obj 49 368 noteout 1;
#X obj 49 327 makenote 60 180;
#X obj 354 116 tgl 15 0 empty empty empty 17 7 0 10 -262144 -1 -1 0
1;
#X obj 354 198 bng 15 250 50 0 empty empty empty 17 7 0 10 -262144
-1 -1;
#N canvas 500 40 475 526 solidIndicatedPulse 0;
#X obj 62 48 inlet;
#X text 60 18 toggle;
#X obj 113 49 inlet;
#X obj 62 243 counter;
#X floatatom 62 281 5 0 0 0 - - -, f 5;
#X obj 62 364 sel;
#X obj 62 403 bng 15 250 50 0 empty empty empty 17 7 0 10 -262144 -1
-1;
#X obj 324 418 bng 15 250 50 0 empty empty empty 17 7 0 10 -262144
-1 -1;
#X obj 324 177 bng 15 250 50 0 empty empty empty 17 7 0 10 -262144
-1 -1;
#X obj 188 192 bng 15 250 50 0 empty empty empty 17 7 0 10 -262144
-1 -1;
#X obj 62 459 outlet;
#X obj 12 403 sel 1;
#X obj 62 179 metro 500;
#X obj 188 230 count 3;
#X obj 188 260 sel 0 1 2;
#X msg 188 300 2;
#X msg 221 300 3;
#X msg 256 300 4;
#X floatatom 188 348 5 0 0 0 - - -, f 5;
#X floatatom 265 247 5 0 0 0 - - -, f 5;
#X text 123 22 bpm2ms;
#X connect 0 0 3 2;
#X connect 0 0 11 0;
#X connect 0 0 12 0;
#X connect 0 0 15 0;
#X connect 2 0 12 1;
#X connect 3 0 4 0;
#X connect 4 0 5 0;
#X connect 5 0 6 0;
#X connect 6 0 7 0;
#X connect 6 0 10 0;
#X connect 7 0 8 0;
#X connect 8 0 9 0;
#X connect 9 0 3 3;
#X connect 9 0 13 0;
#X connect 11 0 10 0;
#X connect 12 0 3 0;
#X connect 13 0 14 0;
#X connect 13 0 19 0;
#X connect 14 0 15 0;
#X connect 14 1 16 0;
#X connect 14 2 17 0;
#X connect 15 0 18 0;
#X connect 16 0 18 0;
#X connect 17 0 18 0;
#X connect 18 0 5 1;
#X restore 354 154 pd solidIndicatedPulse;
#X obj 49 46 tgl 15 0 empty empty empty 17 7 0 10 -262144 -1 -1 1 1
;
#X floatatom 76 46 5 0 0 0 - - -, f 5;
#X msg 103 69 1;
#X obj 49 146 bng 15 250 50 0 empty empty empty 17 7 0 10 -262144 -1
-1;
#X msg 132 69 2;
#X obj 49 8 t b b b b b b b b b b b b b;
#X obj 49 -27 bng 15 250 50 0 empty empty empty 17 7 0 10 -262144 -1
-1;
#X msg 168 70 3 3 2 2;
#X floatatom 130 172 5 0 0 0 - - -, f 5;
#N canvas 100 133 1182 676 divider 1;
#X text 31 -119 bang;
#X obj 24 -96 inlet;
#X obj 75 27 inlet;
#X floatatom 75 115 5 0 0 0 - - -, f 5;
#X obj 24 69 tgl 15 0 empty empty empty 17 7 0 10 -262144 -1 -1 1 1
;
#X obj 24 196 metro;
#X obj 75 137 expr $f1 / $f2;
#X obj 24 230 bng 15 250 50 0 empty empty empty 17 7 0 10 -262144 -1
-1;
#X floatatom 74 171 5 0 0 0 - - -, f 5;
#X floatatom 156 87 5 0 0 0 - - -, f 5;
#X obj 129 -3 t b b;
#X obj 262 108 outlet;
#X text 74 4 bpm2ms;
#X obj 350 -78 inlet;
#X obj 350 21 length;
#X floatatom 350 45 5 0 0 0 - - -, f 5;
#X obj 393 21 sum;
#X floatatom 393 46 5 0 0 0 - - -, f 5;
#X symbolatom 350 -49 17 0 0 0 - - -, f 17;
#X obj 350 -16 symbol2list;
#X floatatom 439 66 5 0 0 0 - - -, f 5;
#X floatatom 474 66 5 0 0 0 - - -, f 5;
#X floatatom 511 66 5 0 0 0 - - -, f 5;
#X floatatom 546 66 5 0 0 0 - - -, f 5;
#X floatatom 581 66 5 0 0 0 - - -, f 5;
#X floatatom 616 66 5 0 0 0 - - -, f 5;
#X floatatom 651 66 5 0 0 0 - - -, f 5;
#X floatatom 686 67 5 0 0 0 - - -, f 5;
#X obj 350 70 - 1;
#X floatatom 349 121 5 0 0 0 - - -, f 5;
#X msg 439 -16 0 0 0 0 0 0 0 0;
#X text 466 -51 Here still got a bug in customPulse;
#X obj 183 213 bng 15 250 50 0 empty empty empty 17 7 0 10 -262144
-1 -1;
#X obj 439 23 unpack f f f f f f f f;
#X floatatom 369 287 5 0 0 0 - - -, f 5;
#X obj 412 374 bng 15 250 50 0 empty empty empty 17 7 0 10 -262144
-1 -1;
#X obj 447 374 bng 15 250 50 0 empty empty empty 17 7 0 10 -262144
-1 -1;
#X obj 439 113 * 1;
#X obj 474 112 * 2;
#X obj 511 113 * 3;
#X obj 484 373 bng 15 250 50 0 empty empty empty 17 7 0 10 -262144
-1 -1;
#X obj 546 113 * 4;
#X obj 519 374 bng 15 250 50 0 empty empty empty 17 7 0 10 -262144
-1 -1;
#X obj 554 374 bng 15 250 50 0 empty empty empty 17 7 0 10 -262144
-1 -1;
#X obj 589 374 bng 15 250 50 0 empty empty empty 17 7 0 10 -262144
-1 -1;
#X obj 624 373 bng 15 250 50 0 empty empty empty 17 7 0 10 -262144
-1 -1;
#X obj 659 373 bng 15 250 50 0 empty empty empty 17 7 0 10 -262144
-1 -1;
#X obj 581 113 * 5;
#X obj 616 112 * 6;
#X obj 651 113 * 7;
#X obj 686 113 * 8;
#X obj 412 422 bng 15 250 50 0 empty empty empty 17 7 0 10 -262144
-1 -1;
#X obj 2 436 outlet;
#X obj 281 193 bng 15 250 50 0 empty empty empty 17 7 0 10 -262144
-1 -1;
#X text 99 395 When change time signature \, need to set counter 0
;
#X msg 802 55 1 0 1 1;
#X obj 802 80 length;
#X obj 802 28 sel 0;
#X obj 870 72 sum;
#X floatatom 870 95 5 0 0 0 - - -, f 5;
#X obj 802 -3 loadbang;
#X obj 846 272 t b b;
#X obj 844 232 bng 15 250 50 0 empty empty empty 17 7 0 10 -262144
-1 -1;
#X obj 905 271 t b b;
#X obj 903 231 bng 15 250 50 0 empty empty empty 17 7 0 10 -262144
-1 -1;
#X msg 947 316 4;
#X msg 915 317 5;
#X msg 881 317 6;
#X msg 842 313 9;
#X floatatom 851 413 5 0 0 0 - - -, f 5;
#X obj 851 363 expr $f1 + $f2;
#X floatatom 208 99 5 0 0 0 - - -, f 5;
#X obj 119 100 bng 15 250 50 0 empty empty empty 17 7 0 10 -262144
-1 -1;
#X text 189 40 Due to osc \, keep counting;
#X obj 208 62 counter 300000;
#X obj 280 325 counter 1e+08;
#X floatatom 280 346 5 0 0 0 - - -, f 5;
#X obj 310 241 counter;
#X obj 349 174 - 1;
#X obj 412 334 sel 1;
#X obj 447 302 sel 2;
#X obj 484 337 sel 3;
#X obj 519 303 sel 4;
#X obj 554 334 sel 5;
#X obj 589 303 sel 6;
#X obj 624 336 sel 7;
#X obj 659 303 sel 8;
#X obj 310 265 + 1;
#X connect 1 0 4 0;
#X connect 1 0 10 0;
#X connect 2 0 3 0;
#X connect 2 0 53 0;
#X connect 3 0 6 0;
#X connect 4 0 5 0;
#X connect 5 0 7 0;
#X connect 5 0 32 0;
#X connect 6 0 5 1;
#X connect 6 0 8 0;
#X connect 7 0 77 0;
#X connect 9 0 6 1;
#X connect 9 0 74 0;
#X connect 10 0 3 0;
#X connect 10 1 9 0;
#X connect 13 0 30 0;
#X connect 13 0 18 0;
#X connect 14 0 15 0;
#X connect 15 0 28 0;
#X connect 16 0 17 0;
#X connect 17 0 11 0;
#X connect 18 0 19 0;
#X connect 19 0 14 0;
#X connect 19 0 16 0;
#X connect 19 0 33 0;
#X connect 20 0 37 0;
#X connect 21 0 38 0;
#X connect 22 0 39 0;
#X connect 23 0 41 0;
#X connect 24 0 47 0;
#X connect 25 0 48 0;
#X connect 26 0 49 0;
#X connect 27 0 50 0;
#X connect 28 0 29 0;
#X connect 28 0 9 0;
#X connect 29 0 6 1;
#X connect 29 0 78 0;
#X connect 30 0 33 0;
#X connect 33 0 20 0;
#X connect 33 1 21 0;
#X connect 33 2 22 0;
#X connect 33 3 23 0;
#X connect 33 4 24 0;
#X connect 33 5 25 0;
#X connect 33 6 26 0;
#X connect 33 7 27 0;
#X connect 34 0 75 0;
#X connect 34 0 79 0;
#X connect 34 0 80 0;
#X connect 34 0 81 0;
#X connect 34 0 82 0;
#X connect 34 0 83 0;
#X connect 34 0 84 0;
#X connect 34 0 85 0;
#X connect 34 0 86 0;
#X connect 35 0 51 0;
#X connect 36 0 51 0;
#X connect 37 0 79 1;
#X connect 38 0 80 1;
#X connect 39 0 81 1;
#X connect 40 0 51 0;
#X connect 41 0 82 1;
#X connect 42 0 51 0;
#X connect 43 0 51 0;
#X connect 44 0 51 0;
#X connect 45 0 51 0;
#X connect 46 0 51 0;
#X connect 47 0 83 1;
#X connect 48 0 84 1;
#X connect 49 0 85 1;
#X connect 50 0 86 1;
#X connect 51 0 52 0;
#X connect 53 0 77 2;
#X connect 55 0 56 0;
#X connect 55 0 58 0;
#X connect 57 0 55 0;
#X connect 58 0 59 0;
#X connect 60 0 55 0;
#X connect 61 0 68 0;
#X connect 61 1 66 0;
#X connect 62 0 61 0;
#X connect 63 0 67 0;
#X connect 63 1 65 0;
#X connect 64 0 63 0;
#X connect 65 0 70 1;
#X connect 66 0 70 1;
#X connect 67 0 70 0;
#X connect 68 0 70 0;
#X connect 70 0 69 0;
#X connect 72 0 3 0;
#X connect 74 0 71 0;
#X connect 75 0 76 0;
#X connect 77 0 87 0;
#X connect 78 0 77 4;
#X connect 79 0 35 0;
#X connect 80 0 36 0;
#X connect 81 0 40 0;
#X connect 82 0 42 0;
#X connect 83 0 43 0;
#X connect 84 0 44 0;
#X connect 85 0 45 0;
#X connect 86 0 46 0;
#X connect 87 0 34 0;
#X restore -170 92 pd divider;
#X obj 235 -71 loadbang;
#X msg 235 -41 120;
#X msg 286 -41 100;
#X obj -110 388 noteout 2;
#X obj -170 246 sel 0;
#X floatatom -3 278 5 0 0 0 - - -, f 5;
#X floatatom -123 218 5 0 0 0 - - -, f 5;
#X msg -69 184 3;
#X msg -31 184 4;
#X obj -170 295 + 55;
#X obj -110 347 makenote 50 100;
#X obj -110 295 + 51;
#X obj 341 -21 line;
#X floatatom 381 -4 5 0 0 0 - - -, f 5;
#X msg 341 -41 120 \, 160 5000;
#X msg 167 98 3 2 5 4;
#N canvas 1009 259 450 300 bpm2miliSeconds 0;
#X obj 82 8 inlet;
#X text 85 -18 bpm;
#X floatatom 82 116 5 0 0 0 - - -, f 5;
#X floatatom 128 25 5 0 0 0 - - -, f 5;
#X obj 82 89 expr 60000/$f1;
#X obj 82 147 outlet;
#X connect 0 0 3 0;
#X connect 0 0 4 0;
#X connect 2 0 5 0;
#X connect 4 0 2 0;
#X restore 235 29 pd bpm2miliSeconds;
#X obj 208 216 metro;
#X obj 208 252 bng 15 250 50 0 empty empty empty 17 7 0 10 -262144
-1 -1;
#X obj 208 185 tgl 15 0 empty empty empty 17 7 0 10 -262144 -1 -1 1
1;
#X floatatom 235 6 5 0 0 0 - - -, f 5;
#X text 276 8 BPM now;
#X text 112 142 How mamy beats in this bar;
#X msg 208 290 36 \, 51;
#X obj 208 332 makenote 60 180;
#X obj 208 373 noteout 3;
#X msg 261 98 1 2 3;
#X floatatom 662 28 5 0 0 0 - - -, f 5;
#X obj 662 5 hradio 15 1 0 8 empty empty empty 0 -8 0 10 -262144 -1
-1 3;
#X floatatom 662 137 5 0 0 0 - - -, f 5;
#X obj 662 109 expr pow(2 \, $f1);
#X obj 662 55 + 1;
#X floatatom 637 72 5 0 0 0 - - -, f 5;
#X floatatom 608 137 5 0 0 0 - - -, f 5;
#X text 657 -21 divide size;
#N canvas 302 209 450 300 sendIntByOsc 0;
#X msg 255 152 connect localhost 5000;
#X msg 256 215 disconnect;
#X obj 40 232 udpsend;
#X obj 40 178 packOSC;
#X obj 40 24 inlet;
#X obj 94 26 import mrpeach;
#X obj 255 118 inlet;
#X obj 256 189 inlet;
#X floatatom 55 55 5 0 0 0 - - -, f 5;
#X obj 132 57 inlet;
#X msg 40 152 send /Data \$1 \$2;
#X obj 40 113 pack 0 0;
#X connect 0 0 2 0;
#X connect 1 0 2 0;
#X connect 3 0 2 0;
#X connect 4 0 8 0;
#X connect 4 0 11 0;
#X connect 6 0 0 0;
#X connect 7 0 1 0;
#X connect 9 0 11 1;
#X connect 10 0 3 0;
#X connect 11 0 10 0;
#X restore 608 327 pd sendIntByOsc;
#N canvas 408 251 450 300 receiveFromOsc 0;
#X obj 52 43 import mrpeach;
#X obj 52 91 udpreceive 5001;
#X obj 52 135 unpackOSC;
#X obj 52 194 outlet;
#X obj 52 166 route /Data;
#X connect 1 0 2 0;
#X connect 2 0 4 0;
#X connect 4 0 3 0;
#X restore -182 -34 pd receiveFromOsc;
#X floatatom -182 17 5 0 0 0 - - -, f 5;
#X floatatom -148 17 5 0 0 0 - - -, f 5;
#X obj 695 241 bng 15 250 50 0 empty empty empty 17 7 0 10 -262144
-1 -1;
#X obj -182 -8 unpack f f s;
#X symbolatom -113 18 18 0 0 0 - - -, f 18;
#X obj 666 215 loadbang;
#X msg 608 7 123;
#X obj 608 -27 t b b b b;
#X obj 608 -62 loadbang;
#X obj 579 -62 bng 15 250 50 0 empty empty empty 17 7 0 10 -262144
-1 -1;
#X obj 577 6 vsl 15 128 0 127 0 0 empty empty empty 0 -9 0 10 -262144
-1 -1 8500 1;
#X obj 608 88 bng 15 250 50 0 empty empty empty 17 7 0 10 -262144 -1
-1;
#N canvas 121 48 1058 721 customPulse 1;
#X obj 21 19 inlet;
#X text 19 -12 toggle;
#X obj 72 -2 inlet;
#X floatatom 84 489 5 0 0 0 - - -, f 5;
#X floatatom 288 290 5 0 0 0 - - -, f 5;
#X floatatom 327 290 5 0 0 0 - - -, f 5;
#X floatatom 368 290 5 0 0 0 - - -, f 5;
#X floatatom 288 431 5 0 0 0 - - -, f 5;
#X floatatom 410 290 5 0 0 0 - - -, f 5;
#X floatatom 451 290 5 0 0 0 - - -, f 5;
#X floatatom 491 290 5 0 0 0 - - -, f 5;
#X floatatom 534 290 5 0 0 0 - - -, f 5;
#X floatatom 577 290 5 0 0 0 - - -, f 5;
#X obj 288 334 > 0;
#X obj 327 335 > 0;
#X obj 368 335 > 0;
#X obj 410 335 > 0;
#X obj 451 335 > 0;
#X obj 491 335 > 0;
#X obj 534 335 > 0;
#X obj 577 336 > 0;
#X obj 288 382 expr $f1 + $f2 + $f3 + $f4 + $f5 + $f6 + $f7 + $f8;
#X obj 84 447 random 8;
#X obj 21 165 metro 300;
#X obj 617 464 sel 0 1 2 3 4 5 6 7;
#X floatatom 617 250 5 0 0 0 - - -, f 5;
#X floatatom 656 250 5 0 0 0 - - -, f 5;
#X floatatom 697 250 5 0 0 0 - - -, f 5;
#X floatatom 739 250 5 0 0 0 - - -, f 5;
#X floatatom 780 250 5 0 0 0 - - -, f 5;
#X floatatom 820 250 5 0 0 0 - - -, f 5;
#X floatatom 863 250 5 0 0 0 - - -, f 5;
#X floatatom 906 250 5 0 0 0 - - -, f 5;
#X floatatom 906 355 5 0 0 0 - - -, f 5;
#X obj 288 75 inlet;
#X text 275 43 message of numbers;
#X obj 176 -6 inlet;
#X text 157 -26 1 for count 2 for random;
#X obj 21 216 spigot;
#X obj 84 216 spigot;
#X obj 791 102 outlet;
#X floatatom 225 11 5 0 0 0 - - -, f 5;
#X floatatom 176 142 5 0 0 0 - - -, f 5;
#X floatatom 224 142 5 0 0 0 - - -, f 5;
#X obj 224 108 == 2;
#X obj 176 108 == 1;
#X obj 602 36 counter;
#X floatatom 602 96 5 0 0 0 - - -, f 5;
#X obj 602 173 sel;
#X obj 602 201 bng 15 250 50 0 empty empty empty 17 7 0 10 -262144
-1 -1;
#X obj 688 216 bng 15 250 50 0 empty empty empty 17 7 0 10 -262144
-1 -1;
#X obj 688 -16 bng 15 250 50 0 empty empty empty 17 7 0 10 -262144
-1 -1;
#X floatatom 971 157 5 0 0 0 - - -, f 5;
#X obj 488 182 bng 15 250 50 0 empty empty empty 17 7 0 10 -262144
-1 -1;
#X obj 602 10 bng 15 250 50 0 empty empty empty 17 7 0 10 -262144 -1
-1;
#X obj 288 233 unpack f f f f f f f f;
#X obj 791 66 sel 1;
#X text 787 4 frist stroke(signal 0 won't trigger this outlet);
#X obj 334 66 sel 0;
#X msg 334 114 0 0 0 0 0 0 0 0;
#X text 337 95 reset the numbers set when close;
#X obj 906 398 outlet;
#X obj 21 51 tgl 15 0 empty empty empty 17 7 0 10 -262144 -1 -1 1 1
;
#X text 75 -28 bpm2ms;
#X text 338 138 Here got a invisible bug \, need to drag inlet to zeros
first than inlet to unpack f...;
#X obj 571 92 bng 15 250 50 0 empty empty empty 17 7 0 10 -262144 -1
-1;
#X floatatom 21 490 5 0 0 0 - - -, f 5;
#X obj 54 415 - 1;
#X obj 21 447 counter 7;
#X connect 0 0 46 2;
#X connect 0 0 62 0;
#X connect 2 0 23 1;
#X connect 4 0 13 0;
#X connect 5 0 14 0;
#X connect 6 0 15 0;
#X connect 7 0 22 1;
#X connect 7 0 67 0;
#X connect 8 0 16 0;
#X connect 9 0 17 0;
#X connect 10 0 18 0;
#X connect 11 0 19 0;
#X connect 12 0 20 0;
#X connect 13 0 21 0;
#X connect 14 0 21 1;
#X connect 15 0 21 2;
#X connect 16 0 21 3;
#X connect 17 0 21 4;
#X connect 18 0 21 5;
#X connect 19 0 21 6;
#X connect 20 0 21 7;
#X connect 21 0 7 0;
#X connect 22 0 3 0;
#X connect 22 0 24 0;
#X connect 23 0 53 0;
#X connect 24 0 25 0;
#X connect 24 1 26 0;
#X connect 24 2 27 0;
#X connect 24 3 28 0;
#X connect 24 4 29 0;
#X connect 24 5 30 0;
#X connect 24 6 31 0;
#X connect 24 7 32 0;
#X connect 25 0 33 0;
#X connect 26 0 33 0;
#X connect 27 0 33 0;
#X connect 28 0 33 0;
#X connect 29 0 33 0;
#X connect 30 0 33 0;
#X connect 31 0 33 0;
#X connect 32 0 33 0;
#X connect 33 0 52 0;
#X connect 33 0 61 0;
#X connect 34 0 59 0;
#X connect 34 0 55 0;
#X connect 34 0 65 0;
#X connect 36 0 41 0;
#X connect 36 0 44 0;
#X connect 36 0 45 0;
#X connect 38 0 68 0;
#X connect 39 0 22 0;
#X connect 44 0 39 1;
#X connect 44 0 43 0;
#X connect 45 0 38 1;
#X connect 45 0 42 0;
#X connect 46 0 47 0;
#X connect 47 0 48 0;
#X connect 48 0 49 0;
#X connect 49 0 50 0;
#X connect 49 0 39 0;
#X connect 49 0 38 0;
#X connect 50 0 51 0;
#X connect 51 0 46 3;
#X connect 51 0 40 0;
#X connect 52 0 48 1;
#X connect 53 0 54 0;
#X connect 54 0 46 0;
#X connect 55 0 4 0;
#X connect 55 0 25 0;
#X connect 55 1 5 0;
#X connect 55 1 26 0;
#X connect 55 2 6 0;
#X connect 55 2 27 0;
#X connect 55 3 8 0;
#X connect 55 3 28 0;
#X connect 55 4 9 0;
#X connect 55 4 29 0;
#X connect 55 5 10 0;
#X connect 55 5 30 0;
#X connect 55 6 11 0;
#X connect 55 6 31 0;
#X connect 55 7 12 0;
#X connect 55 7 32 0;
#X connect 56 0 40 0;
#X connect 58 0 59 0;
#X connect 59 0 55 0;
#X connect 62 0 23 0;
#X connect 62 0 58 0;
#X connect 62 0 56 0;
#X connect 65 0 46 2;
#X connect 67 0 68 4;
#X connect 68 0 66 0;
#X connect 68 0 24 0;
#X restore 49 115 pd customPulse;
#N canvas 24 267 282 386 forloop 0;
#X obj 55 46 t b b b b b b b b;
#X obj 55 164 f;
#X obj 94 164 + 1;
#X floatatom 8 181 5 0 0 0 - - -, f 5;
#X obj 55 73 tgl 15 0 empty empty empty 17 7 0 10 -262144 -1 -1 0 1
;
#X obj 87 109 metro 1000;
#X obj 55 248 sel 0;
#X floatatom 55 295 5 0 0 0 - - -, f 5;
#X obj 164 265 bng 15 250 50 0 empty empty empty 17 7 0 10 -262144
-1 -1;
#X obj 24 205 bng 15 250 50 0 empty empty empty 17 7 0 10 -262144 -1
-1;
#X obj 55 212 expr if($f1 != $f2 \, 1 \, 0);
#X obj 6 307 outlet;
#X obj 6 278 bng 15 250 50 0 empty empty empty 17 7 0 10 -262144 -1
-1;
#X obj 55 14 inlet;
#X obj 202 51 inlet;
#X obj 6 247 sel 1;
#X msg 55 112 1;
#X connect 0 0 4 0;
#X connect 1 0 3 0;
#X connect 1 0 2 0;
#X connect 1 0 9 0;
#X connect 1 0 10 0;
#X connect 2 0 1 1;
#X connect 4 0 5 0;
#X connect 4 0 16 0;
#X connect 5 0 1 0;
#X connect 6 0 8 0;
#X connect 6 0 7 0;
#X connect 8 0 4 0;
#X connect 10 0 6 0;
#X connect 10 0 15 0;
#X connect 12 0 11 0;
#X connect 13 0 0 0;
#X connect 14 0 10 1;
#X connect 15 0 12 0;
#X connect 16 0 1 0;
#X restore 725 427 pd forloop;
#X obj 725 453 bng 15 250 50 0 empty empty empty 17 7 0 10 -262144
-1 -1;
#X obj 725 344 bng 15 250 50 0 empty empty empty 17 7 0 10 -262144
-1 -1;
#X msg 782 400 10;
#X obj 725 370 t b b b;
#X obj 666 191 bng 15 250 50 0 empty empty empty 17 7 0 10 -262144
-1 -1;
#X floatatom 568 306 5 0 0 0 - - -, f 5;
#X obj 608 194 *;
#X obj 608 217 / 128;
#X msg 623 244 1;
#X msg 623 264 0;
#X obj 523 268 bng 15 250 50 0 empty empty empty 17 7 0 10 -262144
-1 -1;
#X obj 523 -120 bng 15 250 50 0 empty empty empty 17 7 0 10 -262144
-1 -1;
#X obj 214 -105 bng 15 250 50 0 empty empty empty 17 7 0 10 -262144
-1 -1;
#X text 550 -109 Activated when any modificaiton on time sequence;
#X msg 4 184 2;
#X obj -110 246 sel 1;
#X msg 346 65 7 3 2 5;
#X obj 608 289 + 0;
#X text 527 356 here used to be a patch from number to bang;
#X obj -170 201 mod 2;
#X text 375 23 May think bpm as speed of beat or a bar -> syncopation
;
#X obj -170 139 counter;
#X floatatom -90 155 5 0 0 0 - - -, f 5;
#X obj -113 120 - 1;
#X connect 0 0 1 0;
#X connect 0 0 24 0;
#X connect 0 0 28 0;
#X connect 0 0 30 0;
#X connect 1 0 5 0;
#X connect 2 0 5 0;
#X connect 3 0 5 0;
#X connect 5 0 4 0;
#X connect 5 1 4 1;
#X connect 6 0 8 0;
#X connect 8 0 7 0;
#X connect 9 0 68 0;
#X connect 10 0 68 1;
#X connect 10 0 18 1;
#X connect 11 0 68 2;
#X connect 12 0 0 0;
#X connect 12 0 2 0;
#X connect 12 0 3 0;
#X connect 13 0 68 2;
#X connect 14 0 9 0;
#X connect 14 1 18 0;
#X connect 14 2 10 0;
#X connect 14 4 11 0;
#X connect 14 9 16 0;
#X connect 14 12 38 0;
#X connect 15 0 14 0;
#X connect 16 0 68 3;
#X connect 18 0 91 0;
#X connect 18 1 93 0;
#X connect 19 0 20 0;
#X connect 20 0 39 0;
#X connect 21 0 39 0;
#X connect 23 0 28 0;
#X connect 26 0 89 1;
#X connect 27 0 89 1;
#X connect 28 0 29 0;
#X connect 29 0 22 0;
#X connect 29 1 22 1;
#X connect 30 0 29 0;
#X connect 31 0 32 0;
#X connect 31 0 39 0;
#X connect 33 0 31 0;
#X connect 34 0 68 3;
#X connect 35 0 10 0;
#X connect 35 0 8 1;
#X connect 35 0 36 1;
#X connect 36 0 37 0;
#X connect 37 0 42 0;
#X connect 37 0 80 0;
#X connect 38 0 36 0;
#X connect 39 0 35 0;
#X connect 42 0 43 0;
#X connect 43 0 44 0;
#X connect 43 1 44 1;
#X connect 45 0 68 3;
#X connect 46 0 50 0;
#X connect 47 0 46 0;
#X connect 48 0 76 1;
#X connect 49 0 48 0;
#X connect 50 0 49 0;
#X connect 50 0 51 0;
#X connect 51 0 54 1;
#X connect 51 0 67 0;
#X connect 52 0 76 0;
#X connect 55 0 59 0;
#X connect 58 0 54 3;
#X connect 59 0 56 0;
#X connect 59 1 57 0;
#X connect 59 2 60 0;
#X connect 60 0 18 2;
#X connect 61 0 54 2;
#X connect 62 0 52 0;
#X connect 63 0 62 0;
#X connect 63 3 47 0;
#X connect 64 0 63 0;
#X connect 65 0 63 0;
#X connect 66 0 52 0;
#X connect 67 0 52 0;
#X connect 68 0 12 0;
#X connect 68 1 17 0;
#X connect 69 0 70 0;
#X connect 71 0 73 0;
#X connect 72 0 69 1;
#X connect 73 0 69 0;
#X connect 73 2 72 0;
#X connect 74 0 54 2;
#X connect 76 0 77 0;
#X connect 77 0 87 0;
#X connect 78 0 87 1;
#X connect 79 0 87 1;
#X connect 80 0 81 0;
#X connect 81 0 82 0;
#X connect 82 0 39 0;
#X connect 84 0 89 1;
#X connect 85 0 30 0;
#X connect 86 0 68 3;
#X connect 87 0 54 0;
#X connect 87 0 75 0;
#X connect 89 0 25 0;
#X connect 89 0 23 0;
#X connect 89 0 85 0;
#X connect 91 0 92 0;
#X connect 91 0 89 0;
#X connect 93 0 91 4;
