#N canvas 228 25 959 543 10;
#X obj 49 228 random 12;
#X obj 49 277 + 60;
#X msg 121 228 72;
#X msg 157 229 79;
#X obj 49 368 noteout 1;
#X obj 49 327 makenote 60 180;
#X obj 354 116 tgl 15 0 empty empty empty 17 7 0 10 -262144 -1 -1 0
1;
#X obj 354 198 bng 15 250 50 0 empty empty empty 17 7 0 10 -262144
-1 -1;
#N canvas 500 40 475 526 solidIndicatedPulse 0;
#X obj 62 48 inlet;
#X text 60 18 toggle;
#X obj 113 49 inlet;
#X obj 62 243 counter;
#X floatatom 62 281 5 0 0 0 - - -;
#X obj 62 364 sel;
#X obj 62 403 bng 15 250 50 0 empty empty empty 17 7 0 10 -262144 -1
-1;
#X obj 324 418 bng 15 250 50 0 empty empty empty 17 7 0 10 -262144
-1 -1;
#X obj 324 177 bng 15 250 50 0 empty empty empty 17 7 0 10 -262144
-1 -1;
#X obj 188 192 bng 15 250 50 0 empty empty empty 17 7 0 10 -262144
-1 -1;
#X obj 62 459 outlet;
#X obj 12 403 sel 1;
#X obj 62 179 metro 500;
#X obj 188 230 count 3;
#X obj 188 260 sel 0 1 2;
#X msg 188 300 2;
#X msg 221 300 3;
#X msg 256 300 4;
#X floatatom 188 348 5 0 0 0 - - -;
#X floatatom 265 247 5 0 0 0 - - -;
#X text 123 22 bpm2ms;
#X connect 0 0 3 2;
#X connect 0 0 11 0;
#X connect 0 0 12 0;
#X connect 0 0 15 0;
#X connect 2 0 12 1;
#X connect 3 0 4 0;
#X connect 4 0 5 0;
#X connect 5 0 6 0;
#X connect 6 0 7 0;
#X connect 6 0 10 0;
#X connect 7 0 8 0;
#X connect 8 0 9 0;
#X connect 9 0 3 3;
#X connect 9 0 13 0;
#X connect 11 0 10 0;
#X connect 12 0 3 0;
#X connect 13 0 14 0;
#X connect 13 0 19 0;
#X connect 14 0 15 0;
#X connect 14 1 16 0;
#X connect 14 2 17 0;
#X connect 15 0 18 0;
#X connect 16 0 18 0;
#X connect 17 0 18 0;
#X connect 18 0 5 1;
#X restore 354 154 pd solidIndicatedPulse;
#N canvas 15 247 1058 553 randomPulse 0;
#X obj 21 19 inlet;
#X text 19 -12 toggle;
#X obj 72 -2 inlet;
#X floatatom 84 489 5 0 0 0 - - -;
#X floatatom 288 290 5 0 0 0 - - -;
#X floatatom 327 290 5 0 0 0 - - -;
#X floatatom 368 290 5 0 0 0 - - -;
#X floatatom 288 431 5 0 0 0 - - -;
#X floatatom 410 290 5 0 0 0 - - -;
#X floatatom 451 290 5 0 0 0 - - -;
#X floatatom 491 290 5 0 0 0 - - -;
#X floatatom 534 290 5 0 0 0 - - -;
#X floatatom 577 290 5 0 0 0 - - -;
#X obj 288 334 > 0;
#X obj 327 335 > 0;
#X obj 368 335 > 0;
#X obj 410 335 > 0;
#X obj 451 335 > 0;
#X obj 491 335 > 0;
#X obj 534 335 > 0;
#X obj 577 336 > 0;
#X obj 288 382 expr $f1 + $f2 + $f3 + $f4 + $f5 + $f6 + $f7 + $f8;
#X obj 84 447 random 8;
#X obj 21 165 metro 300;
#X obj 617 464 sel 0 1 2 3 4 5 6 7;
#X floatatom 617 250 5 0 0 0 - - -;
#X floatatom 656 250 5 0 0 0 - - -;
#X floatatom 697 250 5 0 0 0 - - -;
#X floatatom 739 250 5 0 0 0 - - -;
#X floatatom 780 250 5 0 0 0 - - -;
#X floatatom 820 250 5 0 0 0 - - -;
#X floatatom 863 250 5 0 0 0 - - -;
#X floatatom 906 250 5 0 0 0 - - -;
#X floatatom 906 355 5 0 0 0 - - -;
#X obj 21 447 count 8;
#X floatatom 21 489 5 0 0 0 - - -;
#X obj 288 75 inlet;
#X text 275 43 message of numbers;
#X obj 176 -6 inlet;
#X text 157 -26 1 for count 2 for random;
#X obj 21 216 spigot;
#X obj 84 216 spigot;
#X obj 791 102 outlet;
#X floatatom 225 11 5 0 0 0 - - -;
#X floatatom 176 142 5 0 0 0 - - -;
#X floatatom 224 142 5 0 0 0 - - -;
#X obj 224 108 == 2;
#X obj 176 108 == 1;
#X obj 602 36 counter;
#X floatatom 602 96 5 0 0 0 - - -;
#X obj 602 173 sel;
#X obj 602 201 bng 15 250 50 0 empty empty empty 17 7 0 10 -262144
-1 -1;
#X obj 688 216 bng 15 250 50 0 empty empty empty 17 7 0 10 -262144
-1 -1;
#X obj 688 -16 bng 15 250 50 0 empty empty empty 17 7 0 10 -262144
-1 -1;
#X floatatom 971 157 5 0 0 0 - - -;
#X obj 488 182 bng 15 250 50 0 empty empty empty 17 7 0 10 -262144
-1 -1;
#X obj 602 10 bng 15 250 50 0 empty empty empty 17 7 0 10 -262144 -1
-1;
#X obj 288 233 unpack f f f f f f f f;
#X obj 791 66 sel 1;
#X text 787 4 frist stroke(signal 0 won't trigger this outlet);
#X obj 334 66 sel 0;
#X msg 334 114 0 0 0 0 0 0 0 0;
#X text 337 95 reset the numbers set when close;
#X obj 906 398 outlet;
#X obj 21 51 tgl 15 0 empty empty empty 17 7 0 10 -262144 -1 -1 1 1
;
#X text 75 -28 bpm2ms;
#X text 338 138 Here got a invisible bug \, need to drag inlet to zeros
first than inlet to unpack f...;
#X obj 571 92 bng 15 250 50 0 empty empty empty 17 7 0 10 -262144 -1
-1;
#X connect 0 0 48 2;
#X connect 0 0 64 0;
#X connect 2 0 23 1;
#X connect 4 0 13 0;
#X connect 5 0 14 0;
#X connect 6 0 15 0;
#X connect 7 0 22 1;
#X connect 7 0 34 1;
#X connect 8 0 16 0;
#X connect 9 0 17 0;
#X connect 10 0 18 0;
#X connect 11 0 19 0;
#X connect 12 0 20 0;
#X connect 13 0 21 0;
#X connect 14 0 21 1;
#X connect 15 0 21 2;
#X connect 16 0 21 3;
#X connect 17 0 21 4;
#X connect 18 0 21 5;
#X connect 19 0 21 6;
#X connect 20 0 21 7;
#X connect 21 0 7 0;
#X connect 22 0 3 0;
#X connect 22 0 24 0;
#X connect 23 0 55 0;
#X connect 24 0 25 0;
#X connect 24 1 26 0;
#X connect 24 2 27 0;
#X connect 24 3 28 0;
#X connect 24 4 29 0;
#X connect 24 5 30 0;
#X connect 24 6 31 0;
#X connect 24 7 32 0;
#X connect 25 0 33 0;
#X connect 26 0 33 0;
#X connect 27 0 33 0;
#X connect 28 0 33 0;
#X connect 29 0 33 0;
#X connect 30 0 33 0;
#X connect 31 0 33 0;
#X connect 32 0 33 0;
#X connect 33 0 54 0;
#X connect 33 0 63 0;
#X connect 34 0 35 0;
#X connect 34 0 24 0;
#X connect 36 0 61 0;
#X connect 36 0 57 0;
#X connect 36 0 67 0;
#X connect 38 0 43 0;
#X connect 38 0 46 0;
#X connect 38 0 47 0;
#X connect 40 0 34 0;
#X connect 41 0 22 0;
#X connect 46 0 41 1;
#X connect 46 0 45 0;
#X connect 47 0 40 1;
#X connect 47 0 44 0;
#X connect 48 0 49 0;
#X connect 49 0 50 0;
#X connect 50 0 51 0;
#X connect 51 0 52 0;
#X connect 51 0 41 0;
#X connect 51 0 40 0;
#X connect 52 0 53 0;
#X connect 53 0 48 3;
#X connect 53 0 42 0;
#X connect 54 0 50 1;
#X connect 55 0 56 0;
#X connect 56 0 48 0;
#X connect 57 0 4 0;
#X connect 57 0 25 0;
#X connect 57 1 5 0;
#X connect 57 1 26 0;
#X connect 57 2 6 0;
#X connect 57 2 27 0;
#X connect 57 3 8 0;
#X connect 57 3 28 0;
#X connect 57 4 9 0;
#X connect 57 4 29 0;
#X connect 57 5 10 0;
#X connect 57 5 30 0;
#X connect 57 6 11 0;
#X connect 57 6 31 0;
#X connect 57 7 12 0;
#X connect 57 7 32 0;
#X connect 58 0 42 0;
#X connect 60 0 61 0;
#X connect 61 0 57 0;
#X connect 64 0 23 0;
#X connect 64 0 60 0;
#X connect 64 0 58 0;
#X connect 67 0 48 2;
#X restore 49 115 pd randomPulse;
#X obj 49 46 tgl 15 0 empty empty empty 17 7 0 10 -262144 -1 -1 1 1
;
#X floatatom 76 46 5 0 0 0 - - -;
#X msg 103 69 1;
#X obj 49 146 bng 15 250 50 0 empty empty empty 17 7 0 10 -262144 -1
-1;
#X msg 132 69 2;
#X obj 49 8 t b b b b b b b b b b b b b;
#X obj 49 -27 bng 15 250 50 0 empty empty empty 17 7 0 10 -262144 -1
-1;
#X msg 168 70 3 3 2 2;
#X floatatom 130 172 5 0 0 0 - - -;
#N canvas 170 304 515 448 divider 0;
#X text 31 -119 bang;
#X obj 24 -96 inlet;
#X obj 75 27 inlet;
#X floatatom 75 115 5 0 0 0 - - -;
#X msg 234 23 1 0 1 1;
#X obj 24 69 tgl 15 0 empty empty empty 17 7 0 10 -262144 -1 -1 1 1
;
#X obj 24 196 metro;
#X obj 75 137 expr $f1 / $f2;
#X obj 24 230 bng 15 250 50 0 empty empty empty 17 7 0 10 -262144 -1
-1;
#X obj 234 48 length;
#X floatatom 74 171 5 0 0 0 - - -;
#X msg 295 23 1 1 1;
#X obj 295 49 length;
#X obj 355 -47 count 3;
#X floatatom 411 -30 5 0 0 0 - - -;
#X obj 355 50 length;
#X obj 234 -4 sel 0;
#X obj 295 -3 sel 1;
#X obj 355 -1 sel 2;
#X msg 355 23 1 1 1 1 1;
#X obj 238 -79 tgl 15 0 empty empty empty 17 7 0 10 -262144 -1 -1 1
1;
#X obj 287 -64 sel 1;
#X floatatom 156 115 5 0 0 0 - - -;
#X obj 129 -3 t b b;
#X obj 24 254 outlet;
#X obj 462 40 sum;
#X floatatom 462 90 5 0 0 0 - - -;
#X text 420 147 how many hits in one beat;
#X obj 462 126 outlet;
#X obj 234 -35 loadbang;
#X text 248 176 I want to write a program which can give me a list
like"1 0 1 1";
#X text 74 4 bpm2ms;
#X connect 1 0 5 0;
#X connect 1 0 23 0;
#X connect 1 0 20 0;
#X connect 2 0 3 0;
#X connect 3 0 7 0;
#X connect 4 0 9 0;
#X connect 4 0 25 0;
#X connect 5 0 6 0;
#X connect 6 0 8 0;
#X connect 7 0 6 1;
#X connect 7 0 10 0;
#X connect 8 0 24 0;
#X connect 9 0 22 0;
#X connect 11 0 12 0;
#X connect 11 0 25 0;
#X connect 12 0 22 0;
#X connect 13 0 14 0;
#X connect 13 0 16 0;
#X connect 13 0 17 0;
#X connect 13 0 18 0;
#X connect 15 0 22 0;
#X connect 16 0 4 0;
#X connect 17 0 11 0;
#X connect 18 0 19 0;
#X connect 19 0 15 0;
#X connect 19 0 25 0;
#X connect 20 0 21 0;
#X connect 21 0 13 0;
#X connect 22 0 7 1;
#X connect 23 0 3 0;
#X connect 23 1 22 0;
#X connect 25 0 26 0;
#X connect 26 0 28 0;
#X connect 29 0 4 0;
#X restore -170 92 pd divider;
#X obj 235 -71 loadbang;
#X msg 235 -41 120;
#X msg 286 -41 100;
#X obj -170 117 bng 15 250 50 0 empty empty empty 17 7 0 10 -262144
-1 -1;
#X obj -110 388 noteout 2;
#X obj -170 246 sel 0;
#X obj -170 152 count;
#X floatatom -126 169 5 0 0 0 - - -;
#X floatatom -3 278 5 0 0 0 - - -;
#X text -99 136 range probably 2 ~ 8;
#X floatatom -123 218 5 0 0 0 - - -;
#X obj -170 201 mod 3;
#X msg -69 184 3;
#X msg -31 184 4;
#X obj -170 295 + 55;
#X obj -110 347 makenote 50 100;
#X obj -110 246 sel 2;
#X obj -110 295 + 51;
#X obj 341 -21 line;
#X floatatom 381 -4 5 0 0 0 - - -;
#X msg 341 -41 120 \, 160 5000;
#X msg 167 98 3 2 5 4;
#N canvas 1009 259 450 300 bpm2miliSeconds 0;
#X obj 82 8 inlet;
#X text 85 -18 bpm;
#X floatatom 82 116 5 0 0 0 - - -;
#X floatatom 128 25 5 0 0 0 - - -;
#X obj 82 89 expr 60000/$f1;
#X obj 82 147 outlet;
#X connect 0 0 3 0;
#X connect 0 0 4 0;
#X connect 2 0 5 0;
#X connect 4 0 2 0;
#X restore 235 29 pd bpm2miliSeconds;
#X obj 208 216 metro;
#X obj 208 252 bng 15 250 50 0 empty empty empty 17 7 0 10 -262144
-1 -1;
#X obj 208 185 tgl 15 0 empty empty empty 17 7 0 10 -262144 -1 -1 1
1;
#X floatatom 235 6 5 0 0 0 - - -;
#X text 276 8 BPM now;
#X text 112 142 How mamy beats in this bar;
#X msg 208 290 36 \, 51;
#X obj 208 332 makenote 60 180;
#X obj 208 373 noteout 3;
#X msg 261 98 1 2 3;
#X floatatom 616 28 5 0 0 0 - - -;
#X obj 616 4 hradio 15 1 0 8 empty empty empty 0 -8 0 10 -262144 -1
-1 4;
#X floatatom 616 119 5 0 0 0 - - -;
#X obj 616 92 expr pow(2 \, $f1);
#X obj 616 55 + 1;
#X floatatom 665 72 5 0 0 0 - - -;
#X floatatom 562 121 5 0 0 0 - - -;
#X obj 562 178 mod;
#X floatatom 562 212 5 0 0 0 - - -;
#X text 526 84 get any range of number;
#X text 611 -21 divide size;
#X text 359 23 May think bpm as speed of beat or a bar -> syncopation
;
#X connect 0 0 1 0;
#X connect 0 0 28 0;
#X connect 0 0 34 0;
#X connect 0 0 37 0;
#X connect 1 0 5 0;
#X connect 2 0 5 0;
#X connect 3 0 5 0;
#X connect 5 0 4 0;
#X connect 5 1 4 1;
#X connect 6 0 8 0;
#X connect 8 0 7 0;
#X connect 9 0 13 0;
#X connect 9 1 18 0;
#X connect 10 0 9 0;
#X connect 11 0 9 1;
#X connect 11 0 19 1;
#X connect 12 0 9 2;
#X connect 13 0 0 0;
#X connect 13 0 2 0;
#X connect 13 0 3 0;
#X connect 14 0 9 2;
#X connect 15 0 10 0;
#X connect 15 1 19 0;
#X connect 15 2 11 0;
#X connect 15 4 12 0;
#X connect 15 9 17 0;
#X connect 15 12 45 0;
#X connect 16 0 15 0;
#X connect 17 0 9 3;
#X connect 19 0 23 0;
#X connect 19 1 26 1;
#X connect 20 0 21 0;
#X connect 21 0 46 0;
#X connect 22 0 46 0;
#X connect 23 0 26 0;
#X connect 25 0 34 0;
#X connect 26 0 27 0;
#X connect 26 0 31 0;
#X connect 31 0 30 0;
#X connect 31 0 25 0;
#X connect 31 0 36 0;
#X connect 32 0 31 1;
#X connect 33 0 31 1;
#X connect 34 0 35 0;
#X connect 35 0 24 0;
#X connect 35 1 24 1;
#X connect 36 0 37 0;
#X connect 37 0 35 0;
#X connect 38 0 39 0;
#X connect 38 0 46 0;
#X connect 40 0 38 0;
#X connect 41 0 9 3;
#X connect 42 0 11 0;
#X connect 42 0 8 1;
#X connect 42 0 43 1;
#X connect 43 0 44 0;
#X connect 44 0 49 0;
#X connect 45 0 43 0;
#X connect 46 0 42 0;
#X connect 49 0 50 0;
#X connect 50 0 51 0;
#X connect 50 1 51 1;
#X connect 52 0 9 3;
#X connect 53 0 57 0;
#X connect 54 0 53 0;
#X connect 55 0 60 1;
#X connect 56 0 55 0;
#X connect 57 0 56 0;
#X connect 57 0 58 0;
#X connect 59 0 60 0;
#X connect 60 0 61 0;
