#N canvas 0 0 1440 781 10;
#X obj 49 46 tgl 15 0 empty empty empty 17 7 0 10 -262144 -1 -1 0 1
;
#X floatatom 76 66 5 0 0 0 - - -, f 5;
#X msg 103 88 1;
#X obj 49 146 bng 15 250 50 0 empty empty empty 17 7 0 10 -262144 -1
-1;
#X msg 132 88 2;
#X obj 49 8 t b b b b b b b b b b b b b;
#X obj 49 -28 bng 15 250 50 0 empty empty empty 17 7 0 10 -262144 -1
-1;
#X floatatom 89 152 5 0 0 0 - - -, f 5;
#N canvas 159 130 1182 676 divider 0;
#X text 31 -119 bang;
#X obj 24 -96 inlet;
#X obj 75 27 inlet;
#X floatatom 75 115 5 0 0 0 - - -, f 5;
#X obj 24 69 tgl 15 0 empty empty empty 17 7 0 10 -262144 -1 -1 0 1
;
#X obj 24 196 metro;
#X obj 75 137 expr $f1 / $f2;
#X obj 24 230 bng 15 250 50 0 empty empty empty 17 7 0 10 -262144 -1
-1;
#X floatatom 74 171 5 0 0 0 - - -, f 5;
#X floatatom 156 87 5 0 0 0 - - -, f 5;
#X obj 129 -3 t b b;
#X obj 262 108 outlet;
#X text 74 4 bpm2ms;
#X obj 350 -78 inlet;
#X obj 350 21 length;
#X floatatom 350 45 5 0 0 0 - - -, f 5;
#X obj 393 21 sum;
#X floatatom 393 46 5 0 0 0 - - -, f 5;
#X symbolatom 350 -49 17 0 0 0 - - -, f 17;
#X obj 350 -16 symbol2list;
#X floatatom 439 66 5 0 0 0 - - -, f 5;
#X floatatom 474 66 5 0 0 0 - - -, f 5;
#X floatatom 511 66 5 0 0 0 - - -, f 5;
#X floatatom 546 66 5 0 0 0 - - -, f 5;
#X floatatom 581 66 5 0 0 0 - - -, f 5;
#X floatatom 616 66 5 0 0 0 - - -, f 5;
#X floatatom 651 66 5 0 0 0 - - -, f 5;
#X floatatom 686 67 5 0 0 0 - - -, f 5;
#X obj 350 70 - 1;
#X floatatom 349 121 5 0 0 0 - - -, f 5;
#X msg 439 -16 0 0 0 0 0 0 0 0;
#X text 466 -51 Here still got a bug in customPulse;
#X obj 183 213 bng 15 250 50 0 empty empty empty 17 7 0 10 -262144
-1 -1;
#X obj 439 23 unpack f f f f f f f f;
#X floatatom 369 287 5 0 0 0 - - -, f 5;
#X obj 412 374 bng 15 250 50 0 empty empty empty 17 7 0 10 -262144
-1 -1;
#X obj 447 374 bng 15 250 50 0 empty empty empty 17 7 0 10 -262144
-1 -1;
#X obj 439 113 * 1;
#X obj 474 112 * 2;
#X obj 511 113 * 3;
#X obj 484 373 bng 15 250 50 0 empty empty empty 17 7 0 10 -262144
-1 -1;
#X obj 546 113 * 4;
#X obj 519 374 bng 15 250 50 0 empty empty empty 17 7 0 10 -262144
-1 -1;
#X obj 554 374 bng 15 250 50 0 empty empty empty 17 7 0 10 -262144
-1 -1;
#X obj 589 374 bng 15 250 50 0 empty empty empty 17 7 0 10 -262144
-1 -1;
#X obj 624 373 bng 15 250 50 0 empty empty empty 17 7 0 10 -262144
-1 -1;
#X obj 659 373 bng 15 250 50 0 empty empty empty 17 7 0 10 -262144
-1 -1;
#X obj 581 113 * 5;
#X obj 616 112 * 6;
#X obj 651 113 * 7;
#X obj 686 113 * 8;
#X obj 412 422 bng 15 250 50 0 empty empty empty 17 7 0 10 -262144
-1 -1;
#X obj 2 436 outlet;
#X obj 281 193 bng 15 250 50 0 empty empty empty 17 7 0 10 -262144
-1 -1;
#X text 99 395 When change time signature \, need to set counter 0
;
#X msg 802 55 1 0 1 1;
#X obj 802 80 length;
#X obj 802 28 sel 0;
#X obj 870 72 sum;
#X floatatom 870 95 5 0 0 0 - - -, f 5;
#X obj 802 -3 loadbang;
#X obj 846 272 t b b;
#X obj 844 232 bng 15 250 50 0 empty empty empty 17 7 0 10 -262144
-1 -1;
#X obj 905 271 t b b;
#X obj 903 231 bng 15 250 50 0 empty empty empty 17 7 0 10 -262144
-1 -1;
#X msg 947 316 4;
#X msg 915 317 5;
#X msg 881 317 6;
#X msg 842 313 9;
#X floatatom 851 413 5 0 0 0 - - -, f 5;
#X obj 851 363 expr $f1 + $f2;
#X floatatom 208 99 5 0 0 0 - - -, f 5;
#X obj 119 100 bng 15 250 50 0 empty empty empty 17 7 0 10 -262144
-1 -1;
#X text 189 40 Due to osc \, keep counting;
#X obj 208 62 counter 300000;
#X obj 280 325 counter 1e+08;
#X floatatom 280 346 5 0 0 0 - - -, f 5;
#X obj 310 241 counter;
#X obj 349 174 - 1;
#X obj 412 334 sel 1;
#X obj 447 302 sel 2;
#X obj 484 337 sel 3;
#X obj 519 303 sel 4;
#X obj 554 334 sel 5;
#X obj 589 303 sel 6;
#X obj 624 336 sel 7;
#X obj 659 303 sel 8;
#X obj 310 265 + 1;
#X connect 1 0 4 0;
#X connect 1 0 10 0;
#X connect 2 0 3 0;
#X connect 2 0 53 0;
#X connect 3 0 6 0;
#X connect 4 0 5 0;
#X connect 5 0 7 0;
#X connect 5 0 32 0;
#X connect 6 0 5 1;
#X connect 6 0 8 0;
#X connect 7 0 77 0;
#X connect 9 0 6 1;
#X connect 9 0 74 0;
#X connect 10 0 3 0;
#X connect 10 1 9 0;
#X connect 13 0 30 0;
#X connect 13 0 18 0;
#X connect 14 0 15 0;
#X connect 15 0 28 0;
#X connect 16 0 17 0;
#X connect 17 0 11 0;
#X connect 18 0 19 0;
#X connect 19 0 14 0;
#X connect 19 0 16 0;
#X connect 19 0 33 0;
#X connect 20 0 37 0;
#X connect 21 0 38 0;
#X connect 22 0 39 0;
#X connect 23 0 41 0;
#X connect 24 0 47 0;
#X connect 25 0 48 0;
#X connect 26 0 49 0;
#X connect 27 0 50 0;
#X connect 28 0 29 0;
#X connect 28 0 9 0;
#X connect 29 0 6 1;
#X connect 29 0 78 0;
#X connect 30 0 33 0;
#X connect 33 0 20 0;
#X connect 33 1 21 0;
#X connect 33 2 22 0;
#X connect 33 3 23 0;
#X connect 33 4 24 0;
#X connect 33 5 25 0;
#X connect 33 6 26 0;
#X connect 33 7 27 0;
#X connect 34 0 75 0;
#X connect 34 0 79 0;
#X connect 34 0 80 0;
#X connect 34 0 81 0;
#X connect 34 0 82 0;
#X connect 34 0 83 0;
#X connect 34 0 84 0;
#X connect 34 0 85 0;
#X connect 34 0 86 0;
#X connect 35 0 51 0;
#X connect 36 0 51 0;
#X connect 37 0 79 1;
#X connect 38 0 80 1;
#X connect 39 0 81 1;
#X connect 40 0 51 0;
#X connect 41 0 82 1;
#X connect 42 0 51 0;
#X connect 43 0 51 0;
#X connect 44 0 51 0;
#X connect 45 0 51 0;
#X connect 46 0 51 0;
#X connect 47 0 83 1;
#X connect 48 0 84 1;
#X connect 49 0 85 1;
#X connect 50 0 86 1;
#X connect 51 0 52 0;
#X connect 53 0 77 2;
#X connect 55 0 56 0;
#X connect 55 0 58 0;
#X connect 57 0 55 0;
#X connect 58 0 59 0;
#X connect 60 0 55 0;
#X connect 61 0 68 0;
#X connect 61 1 66 0;
#X connect 62 0 61 0;
#X connect 63 0 67 0;
#X connect 63 1 65 0;
#X connect 64 0 63 0;
#X connect 65 0 70 1;
#X connect 66 0 70 1;
#X connect 67 0 70 0;
#X connect 68 0 70 0;
#X connect 70 0 69 0;
#X connect 72 0 3 0;
#X connect 74 0 71 0;
#X connect 75 0 76 0;
#X connect 77 0 87 0;
#X connect 78 0 77 4;
#X connect 79 0 35 0;
#X connect 80 0 36 0;
#X connect 81 0 40 0;
#X connect 82 0 42 0;
#X connect 83 0 43 0;
#X connect 84 0 44 0;
#X connect 85 0 45 0;
#X connect 86 0 46 0;
#X connect 87 0 34 0;
#X restore -170 102 pd divider;
#X obj 277 -173 loadbang;
#X obj 383 -123 line;
#X floatatom 423 -106 5 0 0 0 - - -, f 5;
#X msg 383 -143 120 \, 160 5000;
#N canvas 990 259 450 300 bpm2miliSeconds 0;
#X obj 82 8 inlet;
#X text 85 -18 bpm;
#X floatatom 82 116 5 0 0 0 - - -, f 5;
#X floatatom 128 25 5 0 0 0 - - -, f 5;
#X obj 82 89 expr 60000/$f1;
#X obj 82 147 outlet;
#X connect 0 0 3 0;
#X connect 0 0 4 0;
#X connect 2 0 5 0;
#X connect 4 0 2 0;
#X restore 277 -73 pd bpm2miliSeconds;
#X floatatom 277 -96 5 0 0 0 - - -, f 5;
#X text 318 -94 BPM now;
#X text 83 165 How mamy beats in this bar;
#X floatatom 862 29 5 0 0 0 - - -, f 5;
#X obj 862 5 hradio 15 1 0 9 empty empty empty 0 -8 0 10 -262144 -1
-1 0;
#X floatatom 862 137 5 0 0 0 - - -, f 5;
#X obj 862 109 expr pow(2 \, $f1);
#X floatatom 837 83 5 0 0 0 - - -, f 5;
#X floatatom 808 137 5 0 0 0 - - -, f 5;
#X text 857 -21 divide size;
#N canvas 313 326 688 300 sendIntByOsc 0;
#X msg 256 215 disconnect;
#X obj 40 232 udpsend;
#X obj 40 178 packOSC;
#X obj 40 24 inlet;
#X obj 255 118 inlet;
#X obj 256 189 inlet;
#X floatatom 55 55 5 0 0 0 - - -, f 5;
#X obj 132 57 inlet;
#X obj 40 113 pack 0 0;
#X msg 255 152 connect localhost 5100;
#X msg 40 152 send /timeCode \$1 \$2;
#X floatatom 132 78 5 0 0 0 - - -, f 5;
#X obj 443 90 r divideBeat;
#X msg 443 155 send /melodyBeat \$1;
#X obj 443 176 packOSC;
#X obj 443 114 bng 15 250 50 0 empty empty empty 17 7 0 10 -262144
-1 -1;
#X msg 443 134 0;
#X connect 0 0 1 0;
#X connect 2 0 1 0;
#X connect 3 0 6 0;
#X connect 3 0 8 0;
#X connect 4 0 9 0;
#X connect 5 0 0 0;
#X connect 7 0 8 1;
#X connect 7 0 11 0;
#X connect 8 0 10 0;
#X connect 9 0 1 0;
#X connect 10 0 2 0;
#X connect 12 0 15 0;
#X connect 13 0 14 0;
#X connect 14 0 1 0;
#X connect 15 0 16 0;
#X connect 16 0 13 0;
#X restore 808 327 pd sendIntByOsc;
#N canvas -440 275 1440 434 receiveFromOsc 1;
#X obj 52 85 unpackOSC;
#X obj 52 194 outlet;
#X obj 162 166 route /movement;
#X floatatom 162 204 5 0 0 0 - - -, f 5;
#X obj 52 41 udpreceive 5101;
#X obj 52 166 route /signature;
#X obj 162 236 outlet;
#X obj 279 166 route /discrete;
#X floatatom 279 186 5 0 0 0 - - -, f 5;
#X obj 279 206 outlet;
#X obj 397 167 route /angerlist;
#X symbolatom 397 218 10 0 0 0 - - -, f 10;
#X obj 397 238 outlet, f 25;
#X obj 397 195 unpack s;
#X obj 578 169 route /hand_joint;
#X floatatom 578 190 5 0 0 0 - - -, f 5;
#X obj 578 210 outlet;
#X obj 723 169 route /recording;
#X floatatom 723 250 5 0 0 0 - - -, f 5;
#N canvas 0 22 450 369 recordingTrigger 0;
#X obj 94 37 inlet;
#X floatatom 94 58 5 0 0 0 - - -, f 5;
#X obj 94 78 sel 1 0, f 53;
#X msg 162 138 0;
#X msg 127 138 1;
#X obj 127 112 loadbang;
#X obj 94 190 spigot;
#X obj 94 231 bng 15 250 50 0 empty empty empty 17 7 0 10 -262144 -1
-1;
#X obj 251 184 spigot;
#X msg 322 144 0;
#X msg 287 144 1;
#X obj 322 118 loadbang;
#X obj 251 236 bng 15 250 50 0 empty empty empty 17 7 0 10 -262144
-1 -1;
#X obj 94 313 outlet;
#X obj 145 261 counter;
#X floatatom 145 282 5 0 0 0 - - -, f 5;
#X connect 0 0 1 0;
#X connect 1 0 2 0;
#X connect 2 0 6 0;
#X connect 2 1 8 0;
#X connect 3 0 6 1;
#X connect 4 0 6 1;
#X connect 5 0 4 0;
#X connect 6 0 7 0;
#X connect 6 0 3 0;
#X connect 6 0 10 0;
#X connect 7 0 13 0;
#X connect 7 0 14 0;
#X connect 8 0 4 0;
#X connect 8 0 9 0;
#X connect 8 0 12 0;
#X connect 9 0 8 1;
#X connect 10 0 8 1;
#X connect 11 0 9 0;
#X connect 12 0 13 0;
#X connect 12 0 14 0;
#X connect 14 0 15 0;
#X restore 723 278 pd recordingTrigger;
#X obj 723 299 s recordingTrigger;
#X floatatom 781 224 5 0 0 0 - - -, f 5;
#X obj 781 247 s phaseChoser;
#X floatatom 899 221 5 0 0 0 - - -, f 5;
#X obj 899 241 moses 0;
#X floatatom 938 300 5 0 0 0 - - -, f 5;
#N canvas 0 22 767 469 leftHandProbability 0;
#X obj 223 72 inlet;
#X floatatom 223 93 5 0 0 0 - - -, f 5;
#X obj 553 45 loadbang;
#X msg 553 66 \; phase-one 0 20 40 60 80 \; phase-two 0 30 45 60 80
\; phase-three 0 0 15 25 40;
#X obj 589 136 table phase-one;
#X obj 593 163 table phase-two;
#X obj 594 197 table phase-three;
#X obj 78 294 tabread;
#X floatatom 78 327 5 0 0 0 - - -, f 5;
#X msg 223 251 set \$1;
#X obj 223 212 symbol phase-one;
#X obj 223 179 bng 15 250 50 0 empty empty empty 17 7 0 10 -262144
-1 -1;
#X obj 223 113 sel 0 1 2 3, f 44;
#X obj 78 103 inlet;
#X floatatom 78 124 5 0 0 0 - - -, f 5;
#X obj 343 179 bng 15 250 50 0 empty empty empty 17 7 0 10 -262144
-1 -1;
#X obj 343 212 symbol phase-two;
#X obj 463 179 bng 15 250 50 0 empty empty empty 17 7 0 10 -262144
-1 -1;
#X obj 463 212 symbol phase-three;
#X obj 78 355 outlet;
#X connect 0 0 1 0;
#X connect 1 0 12 0;
#X connect 2 0 3 0;
#X connect 7 0 8 0;
#X connect 8 0 19 0;
#X connect 9 0 7 0;
#X connect 10 0 9 0;
#X connect 11 0 10 0;
#X connect 12 0 11 0;
#X connect 12 1 15 0;
#X connect 12 2 17 0;
#X connect 13 0 14 0;
#X connect 14 0 7 0;
#X connect 15 0 16 0;
#X connect 16 0 9 0;
#X connect 17 0 18 0;
#X connect 18 0 9 0;
#X restore 938 338 pd leftHandProbability;
#X floatatom 938 359 5 0 0 0 - - -, f 5;
#X obj 938 379 s leftHandProbability;
#X obj 938 271 moses 4;
#X msg 218 263 0;
#X msg 257 264 1;
#X obj 218 309 s notMoving;
#X obj 218 242 moses 0.95;
#X floatatom 1093 250 5 0 0 0 - - -, f 5;
#N canvas 0 22 450 369 replayingTrigger 0;
#X obj 94 37 inlet;
#X floatatom 94 58 5 0 0 0 - - -, f 5;
#X obj 94 78 sel 1 0, f 53;
#X msg 162 138 0;
#X msg 127 138 1;
#X obj 127 112 loadbang;
#X obj 94 190 spigot;
#X obj 94 231 bng 15 250 50 0 empty empty empty 17 7 0 10 -262144 -1
-1;
#X obj 251 184 spigot;
#X msg 322 144 0;
#X msg 287 144 1;
#X obj 322 118 loadbang;
#X obj 251 236 bng 15 250 50 0 empty empty empty 17 7 0 10 -262144
-1 -1;
#X obj 94 313 outlet;
#X obj 145 261 counter;
#X floatatom 145 282 5 0 0 0 - - -, f 5;
#X connect 0 0 1 0;
#X connect 1 0 2 0;
#X connect 2 0 6 0;
#X connect 2 1 8 0;
#X connect 3 0 6 1;
#X connect 4 0 6 1;
#X connect 5 0 4 0;
#X connect 6 0 7 0;
#X connect 6 0 3 0;
#X connect 6 0 10 0;
#X connect 7 0 13 0;
#X connect 7 0 14 0;
#X connect 8 0 4 0;
#X connect 8 0 9 0;
#X connect 8 0 12 0;
#X connect 9 0 8 1;
#X connect 10 0 8 1;
#X connect 11 0 9 0;
#X connect 12 0 13 0;
#X connect 12 0 14 0;
#X connect 14 0 15 0;
#X restore 1093 278 pd replayingTrigger;
#X obj 1093 299 s replayingTrigger;
#X obj 723 190 unpack f f f f, f 38;
#X obj 1229 164 route /hands_pos;
#X obj 1229 206 s volume;
#X obj 1275 233 s range;
#X obj 1326 210 s density;
#X obj 1362 236 s pause;
#X floatatom 1225 239 5 0 0 0 - - -, f 5;
#X floatatom 1273 260 5 0 0 0 - - -, f 5;
#X floatatom 1327 265 5 0 0 0 - - -, f 5;
#X floatatom 1408 270 5 0 0 0 - - -, f 5;
#X obj 1229 185 unpack f f f f f, f 38;
#X floatatom 1430 231 5 0 0 0 - - -, f 5;
#X connect 0 0 2 0;
#X connect 0 0 5 0;
#X connect 0 0 7 0;
#X connect 0 0 10 0;
#X connect 0 0 14 0;
#X connect 0 0 17 0;
#X connect 0 0 38 0;
#X connect 2 0 3 0;
#X connect 3 0 6 0;
#X connect 3 0 33 0;
#X connect 4 0 0 0;
#X connect 5 0 1 0;
#X connect 7 0 8 0;
#X connect 8 0 9 0;
#X connect 10 0 13 0;
#X connect 11 0 12 0;
#X connect 13 0 11 0;
#X connect 14 0 15 0;
#X connect 15 0 16 0;
#X connect 17 0 37 0;
#X connect 18 0 19 0;
#X connect 19 0 20 0;
#X connect 21 0 22 0;
#X connect 21 0 26 1;
#X connect 23 0 24 0;
#X connect 24 1 29 0;
#X connect 25 0 26 0;
#X connect 26 0 27 0;
#X connect 27 0 28 0;
#X connect 29 0 25 0;
#X connect 30 0 32 0;
#X connect 31 0 32 0;
#X connect 33 0 30 0;
#X connect 33 1 31 0;
#X connect 34 0 35 0;
#X connect 35 0 36 0;
#X connect 37 0 18 0;
#X connect 37 1 21 0;
#X connect 37 2 23 0;
#X connect 37 3 34 0;
#X connect 38 0 47 0;
#X connect 47 0 39 0;
#X connect 47 0 43 0;
#X connect 47 1 40 0;
#X connect 47 1 44 0;
#X connect 47 2 41 0;
#X connect 47 2 45 0;
#X connect 47 3 42 0;
#X connect 47 3 46 0;
#X connect 47 4 48 0;
#X restore -182 -214 pd receiveFromOsc;
#X obj 895 241 bng 15 250 50 0 empty empty empty 17 7 0 10 -262144
-1 -1;
#X symbolatom -113 18 18 0 0 0 - - -, f 18;
#X obj 866 215 loadbang;
#X msg 808 7 123;
#X obj 808 -27 t b b b b;
#X obj 808 -62 loadbang;
#X obj 779 -62 bng 15 250 50 0 empty empty empty 17 7 0 10 -262144
-1 -1;
#X obj 777 6 vsl 15 128 0 255 0 0 empty empty empty 0 -9 0 10 -262144
-1 -1 0 1;
#X obj 808 98 bng 15 250 50 0 empty empty empty 17 7 0 10 -262144 -1
-1;
#N canvas 157 80 1283 721 customPulse 0;
#X obj 21 19 inlet;
#X text 19 -12 toggle;
#X obj 72 -2 inlet;
#X floatatom 84 489 5 0 0 0 - - -, f 5;
#X floatatom 288 290 5 0 0 0 - - -, f 5;
#X floatatom 327 290 5 0 0 0 - - -, f 5;
#X floatatom 368 290 5 0 0 0 - - -, f 5;
#X floatatom 288 431 5 0 0 0 - - -, f 5;
#X floatatom 410 290 5 0 0 0 - - -, f 5;
#X floatatom 451 290 5 0 0 0 - - -, f 5;
#X floatatom 491 290 5 0 0 0 - - -, f 5;
#X floatatom 534 290 5 0 0 0 - - -, f 5;
#X floatatom 577 290 5 0 0 0 - - -, f 5;
#X obj 288 334 > 0;
#X obj 327 335 > 0;
#X obj 368 335 > 0;
#X obj 410 335 > 0;
#X obj 451 335 > 0;
#X obj 491 335 > 0;
#X obj 534 335 > 0;
#X obj 577 336 > 0;
#X obj 288 382 expr $f1 + $f2 + $f3 + $f4 + $f5 + $f6 + $f7 + $f8;
#X obj 84 447 random 8;
#X obj 21 165 metro 300;
#X obj 617 464 sel 0 1 2 3 4 5 6 7;
#X floatatom 617 250 5 0 0 0 - - -, f 5;
#X floatatom 656 250 5 0 0 0 - - -, f 5;
#X floatatom 697 250 5 0 0 0 - - -, f 5;
#X floatatom 739 250 5 0 0 0 - - -, f 5;
#X floatatom 780 250 5 0 0 0 - - -, f 5;
#X floatatom 820 250 5 0 0 0 - - -, f 5;
#X floatatom 863 250 5 0 0 0 - - -, f 5;
#X floatatom 906 250 5 0 0 0 - - -, f 5;
#X floatatom 906 355 5 0 0 0 - - -, f 5;
#X obj 288 75 inlet;
#X text 275 43 message of numbers;
#X obj 176 -6 inlet;
#X text 157 -26 1 for count 2 for random;
#X obj 21 216 spigot;
#X obj 84 216 spigot;
#X obj 791 102 outlet;
#X floatatom 225 11 5 0 0 0 - - -, f 5;
#X floatatom 176 142 5 0 0 0 - - -, f 5;
#X floatatom 224 142 5 0 0 0 - - -, f 5;
#X obj 224 108 == 2;
#X obj 176 108 == 1;
#X obj 602 36 counter;
#X floatatom 602 96 5 0 0 0 - - -, f 5;
#X obj 602 173 sel;
#X obj 602 201 bng 15 250 50 0 empty empty empty 17 7 0 10 -262144
-1 -1;
#X obj 688 216 bng 15 250 50 0 empty empty empty 17 7 0 10 -262144
-1 -1;
#X obj 688 -16 bng 15 250 50 0 empty empty empty 17 7 0 10 -262144
-1 -1;
#X floatatom 971 157 5 0 0 0 - - -, f 5;
#X obj 488 182 bng 15 250 50 0 empty empty empty 17 7 0 10 -262144
-1 -1;
#X obj 602 10 bng 15 250 50 0 empty empty empty 17 7 0 10 -262144 -1
-1;
#X obj 288 233 unpack f f f f f f f f;
#X text 787 4 frist stroke(signal 0 won't trigger this outlet);
#X obj 334 66 sel 0;
#X msg 334 114 0 0 0 0 0 0 0 0;
#X text 337 95 reset the numbers set when close;
#X obj 906 398 outlet;
#X obj 21 51 tgl 15 0 empty empty empty 17 7 0 10 -262144 -1 -1 0 1
;
#X text 75 -28 bpm2ms;
#X text 338 138 Here got a invisible bug \, need to drag inlet to zeros
first than inlet to unpack f...;
#X obj 571 92 bng 15 250 50 0 empty empty empty 17 7 0 10 -262144 -1
-1;
#X floatatom 21 490 5 0 0 0 - - -, f 5;
#X obj 54 415 - 1;
#X obj 21 447 counter 7;
#X obj 170 289 bng 15 250 50 0 empty empty empty 17 7 0 10 -262144
-1 -1;
#X obj 72 89 / 2;
#X obj 21 549 s barHead;
#X obj 21 510 sel 0;
#X obj 66 526 bng 15 250 50 0 empty empty empty 17 7 0 10 -262144 -1
-1;
#X obj 1071 192 r barHead;
#X obj 1071 219 outlet;
#X obj 742 209 counter;
#X floatatom 742 230 5 0 0 0 - - -, f 5;
#X obj 773 182 bng 15 250 50 0 empty empty empty 17 7 0 10 -262144
-1 -1;
#X obj 790 66 sel 1;
#X connect 0 0 61 0;
#X connect 0 0 46 2;
#X connect 2 0 69 0;
#X connect 4 0 13 0;
#X connect 5 0 14 0;
#X connect 6 0 15 0;
#X connect 7 0 22 1;
#X connect 7 0 66 0;
#X connect 8 0 16 0;
#X connect 9 0 17 0;
#X connect 10 0 18 0;
#X connect 11 0 19 0;
#X connect 12 0 20 0;
#X connect 13 0 21 0;
#X connect 14 0 21 1;
#X connect 15 0 21 2;
#X connect 16 0 21 3;
#X connect 17 0 21 4;
#X connect 18 0 21 5;
#X connect 19 0 21 6;
#X connect 20 0 21 7;
#X connect 21 0 7 0;
#X connect 22 0 3 0;
#X connect 22 0 24 0;
#X connect 23 0 53 0;
#X connect 24 0 25 0;
#X connect 24 1 26 0;
#X connect 24 2 27 0;
#X connect 24 3 28 0;
#X connect 24 4 29 0;
#X connect 24 5 30 0;
#X connect 24 6 31 0;
#X connect 24 7 32 0;
#X connect 25 0 33 0;
#X connect 26 0 33 0;
#X connect 27 0 33 0;
#X connect 28 0 33 0;
#X connect 29 0 33 0;
#X connect 30 0 33 0;
#X connect 31 0 33 0;
#X connect 32 0 33 0;
#X connect 33 0 52 0;
#X connect 33 0 60 0;
#X connect 34 0 58 0;
#X connect 34 0 55 0;
#X connect 34 0 64 0;
#X connect 34 0 68 0;
#X connect 36 0 41 0;
#X connect 36 0 44 0;
#X connect 36 0 45 0;
#X connect 38 0 67 0;
#X connect 39 0 22 0;
#X connect 44 0 39 1;
#X connect 44 0 43 0;
#X connect 45 0 38 1;
#X connect 45 0 42 0;
#X connect 46 0 47 0;
#X connect 47 0 48 0;
#X connect 48 0 49 0;
#X connect 49 0 50 0;
#X connect 49 0 39 0;
#X connect 49 0 38 0;
#X connect 50 0 51 0;
#X connect 50 0 75 0;
#X connect 51 0 46 3;
#X connect 51 0 40 0;
#X connect 52 0 48 1;
#X connect 53 0 54 0;
#X connect 54 0 46 0;
#X connect 55 0 4 0;
#X connect 55 0 25 0;
#X connect 55 1 5 0;
#X connect 55 1 26 0;
#X connect 55 2 6 0;
#X connect 55 2 27 0;
#X connect 55 3 8 0;
#X connect 55 3 28 0;
#X connect 55 4 9 0;
#X connect 55 4 29 0;
#X connect 55 5 10 0;
#X connect 55 5 30 0;
#X connect 55 6 11 0;
#X connect 55 6 31 0;
#X connect 55 7 12 0;
#X connect 55 7 32 0;
#X connect 57 0 58 0;
#X connect 58 0 55 0;
#X connect 61 0 23 0;
#X connect 61 0 57 0;
#X connect 61 0 78 0;
#X connect 64 0 46 2;
#X connect 65 0 71 0;
#X connect 66 0 67 4;
#X connect 67 0 65 0;
#X connect 67 0 24 0;
#X connect 68 0 67 3;
#X connect 69 0 23 1;
#X connect 71 0 72 0;
#X connect 71 0 70 0;
#X connect 73 0 74 0;
#X connect 75 0 76 0;
#X connect 77 0 75 3;
#X restore 49 115 pd customPulse;
#X obj 866 191 bng 15 250 50 0 empty empty empty 17 7 0 10 -262144
-1 -1;
#X floatatom 758 233 5 0 0 0 - - -, f 5;
#X obj 808 194 *;
#X text 720 -109 Activated when any modificaiton on time sequence;
#X text 727 356 here used to be a patch from number to bang;
#X floatatom 922 -80 5 0 0 0 - - -, f 5;
#X floatatom 1139 29 5 0 0 0 - - -, f 5;
#X text 397 -79 comment, f 9;
#X obj 922 -55 spigot;
#X obj 955 -141 tgl 15 0 empty empty empty 17 7 0 10 -262144 -1 -1
1 1;
#X text 1055 -200 use this toggler to enable movement from kinect to
control length;
#X obj -133 -132 s movementControl;
#X obj 922 -204 r movementControl;
#X obj 547 -50 s tempoStable;
#X obj 259 -194 r tempoStable;
#N canvas 5 95 1435 675 melodyGiver 0;
#X obj 22 129 table major-scale;
#X obj 22 150 table minor-scale;
#X obj 21 12 loadbang;
#X obj 91 12 bng 15 250 50 0 empty empty empty 17 7 0 10 -262144 -1
-1;
#X obj 694 362 tabread major-scale;
#X floatatom 292 209 5 0 0 0 - - -, f 5;
#X floatatom 326 209 5 0 0 0 - - -, f 5;
#X floatatom 361 209 5 0 0 0 - - -, f 5;
#X obj 346 375 + 0;
#X obj 311 375 + 0;
#X obj 277 375 + 0;
#X floatatom 277 397 5 0 0 0 - - -, f 5;
#X floatatom 311 397 5 0 0 0 - - -, f 5;
#X floatatom 346 398 5 0 0 0 - - -, f 5;
#X obj 466 436 + 60;
#X obj 367 435 + 60;
#X obj 277 434 + 60;
#X obj 583 225 inlet;
#X obj 548 241 bng 15 250 50 0 empty empty empty 17 7 0 10 -262144
-1 -1;
#X obj 277 642 noteout 1;
#X obj 12 217 inlet;
#X obj 11 467 tabread major-scale;
#X floatatom 11 488 5 0 0 0 - - -, f 5;
#X floatatom 11 544 5 0 0 0 - - -, f 5;
#X obj 11 645 noteout 2;
#X floatatom 694 343 5 0 0 0 - - -, f 5;
#N canvas 38 23 869 571 stateMachine 0;
#X msg 648 77 \; C 0 1 2 3 4 5 \; D 0 0 2 4 \; E 0 0 1 3 4 5 \; F 0
0 2 4 \; G 0 0 1 2 3 5 \; A 0 0 2 4;
#X obj 775 40 table C;
#X obj 775 70 table D;
#X obj 775 97 table E;
#X obj 778 123 table F;
#X obj 777 151 table G;
#X obj 778 175 table A;
#X msg 424 74 2;
#X msg 457 74 3;
#X msg 390 76 1;
#X msg 357 79 0;
#X msg 501 72 6;
#X floatatom 220 150 5 0 0 0 - - -, f 5;
#X obj 220 182 sel 0 1 2 3 4 5, f 67;
#X obj 220 252 random 5;
#X floatatom 220 273 5 0 0 0 - - -, f 5;
#X obj 220 299 tabread C;
#X floatatom 220 320 5 0 0 0 - - -, f 5;
#X obj 353 254 random 5;
#X floatatom 353 275 5 0 0 0 - - -, f 5;
#X floatatom 353 322 5 0 0 0 - - -, f 5;
#X obj 486 253 random 5;
#X floatatom 486 274 5 0 0 0 - - -, f 5;
#X floatatom 486 321 5 0 0 0 - - -, f 5;
#X obj 205 390 + 0;
#X floatatom 205 411 5 0 0 0 - - -, f 5;
#X obj 126 376 bng 15 250 50 0 empty empty empty 17 7 0 10 -262144
-1 -1;
#X obj 205 447 s state;
#X obj 220 78 r state;
#X floatatom 286 272 5 0 0 0 - - -, f 5;
#X floatatom 286 319 5 0 0 0 - - -, f 5;
#X obj 353 301 tabread E;
#X obj 486 300 tabread G;
#X obj 286 298 tabread D;
#X obj 286 251 random 3;
#X floatatom 419 276 5 0 0 0 - - -, f 5;
#X floatatom 419 323 5 0 0 0 - - -, f 5;
#X obj 419 255 random 3;
#X floatatom 553 273 5 0 0 0 - - -, f 5;
#X floatatom 553 320 5 0 0 0 - - -, f 5;
#X obj 553 252 random 3;
#X obj 419 302 tabread F;
#X obj 553 299 tabread A;
#X obj 242 215 bng 15 250 50 0 empty empty empty 17 7 0 10 -262144
-1 -1;
#X obj 312 221 bng 15 250 50 0 empty empty empty 17 7 0 10 -262144
-1 -1;
#X obj 385 224 bng 15 250 50 0 empty empty empty 17 7 0 10 -262144
-1 -1;
#X obj 456 227 bng 15 250 50 0 empty empty empty 17 7 0 10 -262144
-1 -1;
#X obj 504 227 bng 15 250 50 0 empty empty empty 17 7 0 10 -262144
-1 -1;
#X obj 584 225 bng 15 250 50 0 empty empty empty 17 7 0 10 -262144
-1 -1;
#X obj 648 48 loadbang;
#X obj 279 455 outlet;
#X obj 149 326 inlet;
#X connect 7 0 12 0;
#X connect 8 0 12 0;
#X connect 9 0 12 0;
#X connect 10 0 12 0;
#X connect 11 0 12 0;
#X connect 12 0 13 0;
#X connect 13 0 14 0;
#X connect 13 0 43 0;
#X connect 13 1 34 0;
#X connect 13 1 44 0;
#X connect 13 2 18 0;
#X connect 13 2 45 0;
#X connect 13 3 37 0;
#X connect 13 3 46 0;
#X connect 13 4 21 0;
#X connect 13 4 47 0;
#X connect 13 5 40 0;
#X connect 13 5 48 0;
#X connect 14 0 15 0;
#X connect 15 0 16 0;
#X connect 16 0 17 0;
#X connect 17 0 24 1;
#X connect 18 0 19 0;
#X connect 19 0 31 0;
#X connect 20 0 24 1;
#X connect 21 0 22 0;
#X connect 22 0 32 0;
#X connect 23 0 24 1;
#X connect 24 0 25 0;
#X connect 25 0 27 0;
#X connect 25 0 50 0;
#X connect 26 0 24 0;
#X connect 28 0 12 0;
#X connect 29 0 33 0;
#X connect 30 0 24 1;
#X connect 31 0 20 0;
#X connect 32 0 23 0;
#X connect 33 0 30 0;
#X connect 34 0 29 0;
#X connect 35 0 41 0;
#X connect 36 0 24 1;
#X connect 37 0 35 0;
#X connect 38 0 42 0;
#X connect 39 0 24 1;
#X connect 40 0 38 0;
#X connect 41 0 36 0;
#X connect 42 0 39 0;
#X connect 49 0 0 0;
#X connect 51 0 24 0;
#X restore 583 304 pd stateMachine;
#X obj 946 512 hradio 15 1 0 8 empty empty empty 0 -8 0 10 -262144
-1 -1 7;
#X floatatom 946 532 5 0 0 0 - - -, f 5;
#X obj 755 459 loadbang;
#X obj 823 458 bng 15 250 50 0 empty empty empty 17 7 0 10 -262144
-1 -1;
#X obj 750 522 table happyScale;
#X msg 755 490 \; happyScale 0 0 1 2 3 4 5;
#N canvas 231 0 1015 801 overScale 0;
#X obj 2 25 loadbang;
#X obj 67 24 bng 15 250 50 0 empty empty empty 17 7 0 10 -262144 -1
-1;
#X obj 2 80 table 2OcScl;
#X floatatom 473 219 5 0 0 0 - - -, f 5;
#X obj 593 234 tabread 2OcScl;
#X floatatom 593 255 5 0 0 0 - - -, f 5;
#X obj 473 257 mod 2;
#X floatatom 473 278 5 0 0 0 - - -, f 5;
#X floatatom 335 340 5 0 0 0 - - -, f 5;
#X obj 248 351 spigot;
#X obj 248 418 random 3;
#X text 691 333 scale from ofx;
#X obj 802 355 hradio 15 1 0 7 empty empty empty 0 -8 0 10 -262144
-1 -1 5;
#X floatatom 705 395 5 0 0 0 - - -, f 5;
#X obj 345 497 mod 2;
#X floatatom 345 518 5 0 0 0 - - -, f 5;
#X floatatom 345 559 5 0 0 0 - - -, f 5;
#X text 48 393 test if a D F A;
#X obj 248 489 +;
#X floatatom 248 510 5 0 0 0 - - -, f 5;
#X obj 345 538 == 1;
#X obj 248 574 +;
#X floatatom 248 595 5 0 0 0 - - -, f 5;
#X obj 248 440 * 2;
#X floatatom 198 434 5 0 0 0 - - -, f 5;
#X obj 440 354 spigot;
#X obj 440 418 random 6;
#X obj 440 467 +;
#X obj 705 426 s scale-num;
#X obj 345 473 r scale-num;
#X obj 263 468 r scale-num;
#X obj 455 442 r scale-num;
#X floatatom 440 508 5 0 0 0 - - -, f 5;
#X obj 281 324 == 1;
#X obj 473 324 == 0;
#X obj 280 382 bng 15 250 50 0 empty empty empty 17 7 0 10 -262144
-1 -1;
#X obj 440 575 s nextChord;
#X obj 248 621 s nextChord;
#X obj 518 105 r nextChord;
#X floatatom 518 126 5 0 0 0 - - -, f 5;
#X obj 473 162 +;
#X msg 473 127 0;
#X floatatom 473 183 5 0 0 0 - - -, f 5;
#X obj 705 359 inlet;
#X obj 248 80 inlet;
#X obj 248 107 bng 15 250 50 0 empty empty empty 17 7 0 10 -262144
-1 -1;
#X obj 457 385 bng 15 250 50 0 empty empty empty 17 7 0 10 -262144
-1 -1;
#X obj 648 72 loadbang;
#X obj 713 73 bng 15 250 50 0 empty empty empty 17 7 0 10 -262144 -1
-1;
#X obj 648 111 random 6;
#X obj 648 144 + 0;
#X obj 714 112 r scale-num;
#X text 657 34 frist chord;
#X obj 802 298 loadbang;
#X msg 802 319 5;
#X obj 531 265 outlet;
#X msg 2 46 \; 2OcScl 0 0 2 4 5 7 9 12 14 16 17 19 21 24 26 28 29 31
33;
#X floatatom 485 473 5 0 0 0 - - -, f 5;
#X obj 984 214 mod 7;
#X floatatom 984 235 5 0 0 0 - - -, f 5;
#X obj 1224 214 / 7;
#X floatatom 1224 235 5 0 0 0 - - -, f 5;
#X msg 1224 309 3;
#X msg 1259 310 4;
#X msg 1297 309 5;
#X floatatom 1224 350 5 0 0 0 - - -, f 5;
#X symbolatom 984 397 10 0 0 0 - - -, f 10;
#X obj 984 296 symbol C;
#X obj 1005 322 symbol D;
#X obj 1025 342 symbol E;
#X obj 1064 296 symbol F;
#X obj 1085 322 symbol G;
#X obj 984 265 sel 0 1 2 3 4 5 6, f 28;
#X obj 984 471 print;
#X obj 984 433 pack s f;
#X obj 1105 342 symbol A;
#X obj 1134 296 symbol B;
#X obj 565 390 bng 15 250 50 0 empty empty empty 17 7 0 10 -262144
-1 -1;
#X obj 1224 255 moses 1;
#X obj 1266 281 moses 2;
#X obj 897 198 t f f;
#X connect 0 0 56 0;
#X connect 1 0 56 0;
#X connect 3 0 4 0;
#X connect 3 0 6 0;
#X connect 3 0 55 0;
#X connect 4 0 5 0;
#X connect 6 0 7 0;
#X connect 7 0 33 0;
#X connect 7 0 34 0;
#X connect 9 0 35 0;
#X connect 9 0 10 0;
#X connect 10 0 23 0;
#X connect 10 0 24 0;
#X connect 12 0 13 0;
#X connect 13 0 28 0;
#X connect 14 0 15 0;
#X connect 15 0 20 0;
#X connect 16 0 21 1;
#X connect 18 0 19 0;
#X connect 19 0 21 0;
#X connect 20 0 16 0;
#X connect 21 0 22 0;
#X connect 22 0 37 0;
#X connect 23 0 18 0;
#X connect 25 0 26 0;
#X connect 25 0 46 0;
#X connect 26 0 27 0;
#X connect 27 0 32 0;
#X connect 29 0 14 0;
#X connect 30 0 18 1;
#X connect 31 0 27 1;
#X connect 31 0 57 0;
#X connect 32 0 36 0;
#X connect 33 0 8 0;
#X connect 33 0 9 1;
#X connect 34 0 25 1;
#X connect 38 0 39 0;
#X connect 39 0 40 1;
#X connect 40 0 42 0;
#X connect 41 0 40 0;
#X connect 42 0 3 0;
#X connect 42 0 80 0;
#X connect 43 0 13 0;
#X connect 44 0 45 0;
#X connect 45 0 41 0;
#X connect 45 0 25 0;
#X connect 45 0 9 0;
#X connect 47 0 49 0;
#X connect 48 0 49 0;
#X connect 49 0 50 0;
#X connect 50 0 3 0;
#X connect 51 0 50 1;
#X connect 53 0 54 0;
#X connect 54 0 12 0;
#X connect 58 0 59 0;
#X connect 59 0 72 0;
#X connect 60 0 61 0;
#X connect 61 0 78 0;
#X connect 62 0 65 0;
#X connect 63 0 65 0;
#X connect 64 0 65 0;
#X connect 65 0 74 1;
#X connect 66 0 74 0;
#X connect 67 0 66 0;
#X connect 68 0 66 0;
#X connect 69 0 66 0;
#X connect 70 0 66 0;
#X connect 71 0 66 0;
#X connect 72 0 67 0;
#X connect 72 1 68 0;
#X connect 72 2 69 0;
#X connect 72 3 70 0;
#X connect 72 4 71 0;
#X connect 72 5 75 0;
#X connect 72 6 76 0;
#X connect 74 0 73 0;
#X connect 75 0 66 0;
#X connect 76 0 66 0;
#X connect 77 0 26 0;
#X connect 78 0 62 0;
#X connect 78 1 79 0;
#X connect 79 0 63 0;
#X connect 79 1 64 0;
#X connect 80 0 58 0;
#X connect 80 1 60 0;
#X restore 694 285 pd overScale;
#X obj 583 279 spigot;
#X obj 616 259 tgl 15 0 empty empty empty 17 7 0 10 -262144 -1 -1 0
1;
#X obj 694 261 spigot;
#X obj 727 241 tgl 15 0 empty empty empty 17 7 0 10 -262144 -1 -1 1
1;
#X obj 727 216 loadbang;
#X obj 871 362 tabread 2OcScl;
#X floatatom 871 301 5 0 0 0 - - -, f 5;
#X floatatom 871 383 5 0 0 0 - - -, f 5;
#X obj 763 242 inlet;
#X floatatom 803 258 5 0 0 0 - - -, f 5;
#X msg 559 421 48;
#X obj 464 43 symbol major-scale;
#X obj 587 43 symbol minor-scale;
#X msg 464 111 set \$1;
#X obj 464 18 bng 15 250 50 0 empty empty empty 17 7 0 10 -262144 -1
-1;
#X obj 587 18 bng 15 250 50 0 empty empty empty 17 7 0 10 -262144 -1
-1;
#X obj 464 137 s tonality;
#X obj 47 442 r tonality;
#X obj 311 270 + 0;
#X obj 346 270 + 0;
#X obj 277 270 + 0;
#X msg 603 421 60;
#X obj 234 468 - 12;
#X obj 194 467 + 12;
#X obj 22 170 table blue-scale;
#X msg 390 571 4;
#X msg 431 571 1;
#X obj 367 477 randomDelayer;
#X obj 277 477 randomDelayer;
#X obj 466 478 randomDelayer;
#X obj 23 189 table fear-scale;
#X obj 720 19 bng 15 250 50 0 empty empty empty 17 7 0 10 -262144 -1
-1;
#X obj 720 43 symbol fear-scale;
#X obj 292 72 unpack f f f;
#X floatatom 292 102 5 0 0 0 - - -, f 5;
#X floatatom 326 102 5 0 0 0 - - -, f 5;
#X floatatom 361 103 5 0 0 0 - - -, f 5;
#X obj 292 135 tabread major-scale;
#X obj 326 157 tabread major-scale;
#X obj 361 179 tabread major-scale;
#X obj 292 17 loadbang;
#X msg 292 48 0 2 4;
#X obj 527 451 + 12;
#X obj 417 451 - 12;
#X obj 466 502 randomDelayer;
#X obj 797 -122 inlet;
#X floatatom 12 418 5 0 0 0 - - -, f 5;
#X floatatom 66 418 5 0 0 0 - - -, f 5;
#X obj 162 275 random 6;
#X obj 160 312 random 6;
#X obj 489 280 counter;
#X floatatom 489 301 57 0 0 0 - - -, f 57;
#X obj 12 265 counter 0 3;
#X obj 12 291 sel 0 1 2 3, f 19;
#X obj 155 348 random 6;
#X obj 162 241 t b b b;
#X floatatom 118 419 5 0 0 0 - - -, f 5;
#X obj 65 379 + 0;
#X obj 118 377 + 0;
#X obj 12 379 + 0;
#X obj 990 119 inlet;
#X obj 990 148 tgl 15 0 empty empty empty 17 7 0 10 -262144 -1 -1 1
1;
#X obj 11 615 spigot;
#X obj 277 614 spigot;
#X obj 11 517 + 0;
#X obj 142 129 table ct-scale;
#X obj 840 19 bng 15 250 50 0 empty empty empty 17 7 0 10 -262144 -1
-1;
#X obj 840 43 symbol ct-scale;
#X obj 797 -90 sel 0 1 2 3 4, f 25;
#X obj 560 -20 t b b;
#X obj 437 -20 t b b;
#X obj 693 -20 t b b;
#X obj 813 -20 t b b;
#X obj 410 33 bng 15 250 50 0 empty empty empty 17 7 0 10 -262144 -1
-1;
#X obj 410 -3 bng 15 250 50 0 empty empty empty 17 7 0 10 -262144 -1
-1;
#X obj 166 488 randomDelayer;
#X obj 166 512 randomDelayer;
#X floatatom 618 540 5 0 0 0 - - -, f 5;
#X msg 657 517 12;
#X obj 11 565 makenote 55 100;
#X msg 618 519 25;
#X obj 812 115 bng 15 250 50 0 empty empty empty 17 7 0 10 -262144
-1 -1;
#X obj 618 470 loadbang;
#X obj 885 166 sel 0;
#X floatatom 942 159 5 0 0 0 - - -, f 5;
#X obj 621 150 s melodyVolume;
#X obj 373 539 r melodyVolume;
#X msg 636 102 0;
#X msg 748 106 1;
#X obj 636 123 + 40;
#X obj 715 128 spigot;
#X floatatom 473 555 5 0 0 0 - - -, f 5;
#X obj 812 143 random 30;
#X obj 812 164 + 20;
#X obj 1101 32 s chordChose;
#X obj 1189 32 s melodyChose;
#X obj 432 606 r chordChose;
#X obj 89 619 r melodyChose;
#X floatatom 432 628 5 0 0 0 - - -, f 5;
#X msg 1074 131 \; vibraphone 1 \; marimba 2;
#X msg 978 1 \; chordChose 2 \; melodyChose 2;
#X floatatom 89 639 5 0 0 0 - - -, f 5;
#X msg 1107 255 0 \, 2 \, 4;
#X obj 1107 292 + 0;
#X floatatom 1107 313 5 0 0 0 - - -, f 5;
#X obj 1107 333 moses 7, f 9;
#X floatatom 1107 398 5 0 0 0 - - -, f 5;
#X floatatom 1158 358 5 0 0 0 - - -, f 5;
#X obj 1158 378 moses 14, f 9;
#X floatatom 1158 399 5 0 0 0 - - -, f 5;
#X floatatom 1209 400 5 0 0 0 - - -, f 5;
#X obj 1158 419 - 7;
#X obj 1209 420 - 14;
#X floatatom 1158 440 5 0 0 0 - - -, f 5;
#X floatatom 1209 441 5 0 0 0 - - -, f 5;
#X obj 1107 474 tabread minor-scale;
#X obj 1107 607 makenote 40 500;
#X obj 1107 648 noteout 1;
#X obj 1107 233 spigot;
#X obj 1140 207 tgl 15 0 empty empty empty 17 7 0 10 -262144 -1 -1
0 1;
#X obj 990 183 s floatMelodyToggler2;
#X obj 310 589 r floatMelodyToggler;
#X obj 44 595 r floatMelodyToggler2;
#X obj 1140 180 r stableTone;
#X obj 1127 494 tabread minor-scale;
#X obj 1147 514 tabread minor-scale;
#X obj 51 241 s melodyBeat;
#X obj 1228 180 r melodyBeat;
#X obj 1277 233 spigot;
#X obj 1310 207 tgl 15 0 empty empty empty 17 7 0 10 -262144 -1 -1
0 1;
#X obj 1310 180 r stableTone;
#X obj 1277 254 random 6;
#X floatatom 1277 275 5 0 0 0 - - -, f 5;
#X obj 1287 311 + 0;
#X floatatom 1287 332 5 0 0 0 - - -, f 5;
#X obj 1287 352 moses 7, f 9;
#X floatatom 1287 417 5 0 0 0 - - -, f 5;
#X floatatom 1338 377 5 0 0 0 - - -, f 5;
#X obj 1338 397 moses 14, f 9;
#X floatatom 1338 418 5 0 0 0 - - -, f 5;
#X floatatom 1389 419 5 0 0 0 - - -, f 5;
#X obj 1338 438 - 7;
#X obj 1389 439 - 14;
#X floatatom 1338 459 5 0 0 0 - - -, f 5;
#X floatatom 1389 460 5 0 0 0 - - -, f 5;
#X obj 1287 493 tabread minor-scale;
#X obj 1287 564 + 60;
#X obj 1307 513 tabread minor-scale;
#X obj 1327 533 tabread minor-scale;
#X obj 1330 563 + 72;
#X obj 1377 563 + 84;
#X obj 1287 612 makenote 55 100;
#X obj 1287 650 noteout 4;
#X obj 1198 626 r chordChose;
#X floatatom 1198 647 5 0 0 0 - - -, f 5;
#X obj 1399 619 r melodyChose;
#X floatatom 1399 639 5 0 0 0 - - -, f 5;
#X msg 657 495 4;
#X floatatom 373 560 5 0 0 0 - - -, f 5;
#X obj 98 494 + 12;
#X obj 560 401 loadbang;
#X obj 277 570 makenote 40 1000;
#X msg 1115 -22 \; chordChose 1 \; melodyChose 1;
#X obj 1197 544 + 72;
#X obj 1150 544 + 60;
#X obj 1107 545 + 48;
#X msg 22 47 \; major-scale 0 0 2 4 5 7 9 11 \; minor-scale 0 0 2 3
5 7 8 11 \; blue-scale 0 0 3 5 6 7 9 12 \; fear-scale 0 0 2 3 5 6 8
10 \; ct-scale 0 0 2 3 5 7 8 11;
#X connect 2 0 200 0;
#X connect 3 0 200 0;
#X connect 4 0 8 1;
#X connect 4 0 9 1;
#X connect 4 0 10 1;
#X connect 5 0 54 1;
#X connect 6 0 52 1;
#X connect 7 0 53 1;
#X connect 8 0 13 0;
#X connect 9 0 12 0;
#X connect 10 0 11 0;
#X connect 11 0 16 0;
#X connect 12 0 15 0;
#X connect 13 0 14 0;
#X connect 14 0 63 0;
#X connect 14 0 76 0;
#X connect 15 0 61 0;
#X connect 15 0 77 0;
#X connect 16 0 56 0;
#X connect 16 0 57 0;
#X connect 16 0 62 0;
#X connect 16 0 193 0;
#X connect 17 0 18 0;
#X connect 17 0 34 0;
#X connect 17 0 36 0;
#X connect 17 0 54 0;
#X connect 17 0 52 0;
#X connect 17 0 53 0;
#X connect 17 0 89 0;
#X connect 18 0 84 0;
#X connect 18 0 115 0;
#X connect 20 0 86 0;
#X connect 20 0 160 0;
#X connect 21 0 22 0;
#X connect 22 0 98 0;
#X connect 23 0 113 0;
#X connect 25 0 4 0;
#X connect 26 0 25 0;
#X connect 27 0 28 0;
#X connect 29 0 32 0;
#X connect 30 0 32 0;
#X connect 33 0 40 0;
#X connect 34 0 26 0;
#X connect 35 0 34 1;
#X connect 36 0 33 0;
#X connect 37 0 36 1;
#X connect 38 0 37 0;
#X connect 39 0 41 0;
#X connect 39 0 8 1;
#X connect 39 0 9 1;
#X connect 39 0 10 1;
#X connect 40 0 39 0;
#X connect 40 0 137 1;
#X connect 40 0 167 1;
#X connect 42 0 43 0;
#X connect 42 0 33 1;
#X connect 44 0 14 1;
#X connect 44 0 15 1;
#X connect 44 0 16 1;
#X connect 45 0 47 0;
#X connect 46 0 47 0;
#X connect 47 0 50 0;
#X connect 47 0 71 0;
#X connect 47 0 72 0;
#X connect 47 0 73 0;
#X connect 48 0 45 0;
#X connect 48 0 121 0;
#X connect 49 0 46 0;
#X connect 49 0 121 0;
#X connect 51 0 21 0;
#X connect 52 0 9 0;
#X connect 53 0 8 0;
#X connect 54 0 10 0;
#X connect 55 0 16 1;
#X connect 55 0 15 1;
#X connect 55 0 14 1;
#X connect 56 0 110 0;
#X connect 57 0 109 0;
#X connect 59 0 19 2;
#X connect 60 0 19 2;
#X connect 61 0 195 0;
#X connect 62 0 195 0;
#X connect 63 0 195 0;
#X connect 65 0 66 0;
#X connect 65 0 122 0;
#X connect 66 0 47 0;
#X connect 67 0 68 0;
#X connect 67 1 69 0;
#X connect 67 2 70 0;
#X connect 68 0 71 0;
#X connect 69 0 72 0;
#X connect 70 0 73 0;
#X connect 71 0 5 0;
#X connect 72 0 6 0;
#X connect 73 0 7 0;
#X connect 74 0 75 0;
#X connect 75 0 67 0;
#X connect 76 0 78 0;
#X connect 79 0 102 0;
#X connect 80 0 21 0;
#X connect 81 0 21 0;
#X connect 82 0 93 1;
#X connect 83 0 91 1;
#X connect 84 0 85 0;
#X connect 86 0 87 0;
#X connect 87 0 93 0;
#X connect 87 1 91 0;
#X connect 87 2 92 0;
#X connect 87 3 91 0;
#X connect 88 0 92 1;
#X connect 89 0 82 0;
#X connect 89 1 83 0;
#X connect 89 2 88 0;
#X connect 90 0 21 0;
#X connect 91 0 81 0;
#X connect 92 0 90 0;
#X connect 93 0 80 0;
#X connect 94 0 95 0;
#X connect 95 0 154 0;
#X connect 96 0 24 0;
#X connect 97 0 19 0;
#X connect 98 0 23 0;
#X connect 100 0 101 0;
#X connect 100 0 121 0;
#X connect 101 0 47 0;
#X connect 102 0 104 0;
#X connect 102 0 134 0;
#X connect 102 1 103 0;
#X connect 102 1 134 0;
#X connect 102 2 196 0;
#X connect 102 2 105 0;
#X connect 102 3 196 0;
#X connect 102 3 106 0;
#X connect 102 4 196 0;
#X connect 103 0 108 0;
#X connect 103 1 49 0;
#X connect 104 0 108 0;
#X connect 104 1 48 0;
#X connect 105 0 108 0;
#X connect 105 1 65 0;
#X connect 106 0 108 0;
#X connect 106 1 100 0;
#X connect 107 0 75 0;
#X connect 108 0 107 0;
#X connect 111 0 78 1;
#X connect 111 0 63 1;
#X connect 111 0 61 1;
#X connect 111 0 62 1;
#X connect 111 0 109 1;
#X connect 111 0 110 1;
#X connect 112 0 111 0;
#X connect 113 0 96 0;
#X connect 113 1 24 1;
#X connect 114 0 111 0;
#X connect 115 0 126 0;
#X connect 115 0 152 0;
#X connect 116 0 191 0;
#X connect 120 0 125 0;
#X connect 120 0 192 0;
#X connect 120 0 195 1;
#X connect 121 0 123 0;
#X connect 121 0 124 1;
#X connect 122 0 124 1;
#X connect 123 0 119 0;
#X connect 124 0 119 0;
#X connect 126 0 117 0;
#X connect 126 0 118 0;
#X connect 126 0 127 0;
#X connect 127 0 124 0;
#X connect 130 0 19 2;
#X connect 130 0 132 0;
#X connect 131 0 24 2;
#X connect 131 0 135 0;
#X connect 136 0 137 0;
#X connect 137 0 138 0;
#X connect 138 0 139 0;
#X connect 138 0 139 0;
#X connect 139 0 140 0;
#X connect 139 1 141 0;
#X connect 140 0 149 0;
#X connect 141 0 142 0;
#X connect 142 0 143 0;
#X connect 142 1 144 0;
#X connect 143 0 145 0;
#X connect 144 0 146 0;
#X connect 145 0 147 0;
#X connect 146 0 148 0;
#X connect 147 0 158 0;
#X connect 148 0 159 0;
#X connect 149 0 199 0;
#X connect 150 0 151 0;
#X connect 150 1 151 1;
#X connect 152 0 136 0;
#X connect 153 0 152 1;
#X connect 155 0 97 1;
#X connect 156 0 96 1;
#X connect 157 0 153 0;
#X connect 158 0 198 0;
#X connect 159 0 197 0;
#X connect 161 0 162 0;
#X connect 162 0 165 0;
#X connect 163 0 162 1;
#X connect 164 0 163 0;
#X connect 165 0 166 0;
#X connect 166 0 167 0;
#X connect 167 0 168 0;
#X connect 168 0 169 0;
#X connect 168 0 169 0;
#X connect 169 0 170 0;
#X connect 169 1 171 0;
#X connect 170 0 179 0;
#X connect 171 0 172 0;
#X connect 172 0 173 0;
#X connect 172 1 174 0;
#X connect 173 0 175 0;
#X connect 174 0 176 0;
#X connect 175 0 177 0;
#X connect 176 0 178 0;
#X connect 177 0 181 0;
#X connect 178 0 182 0;
#X connect 179 0 180 0;
#X connect 180 0 185 0;
#X connect 181 0 183 0;
#X connect 182 0 184 0;
#X connect 183 0 185 0;
#X connect 184 0 185 0;
#X connect 185 0 186 0;
#X connect 185 1 186 1;
#X connect 187 0 188 0;
#X connect 187 0 151 2;
#X connect 189 0 190 0;
#X connect 189 0 186 2;
#X connect 191 0 111 0;
#X connect 193 0 98 1;
#X connect 194 0 44 0;
#X connect 195 0 97 0;
#X connect 195 1 19 1;
#X connect 197 0 150 0;
#X connect 198 0 150 0;
#X connect 199 0 150 0;
#X restore -148 594 pd melodyGiver;
#X obj 49 190 s melodyPulse;
#X obj -67 453 r melodyPulse;
#X obj -170 182 s divideBeat;
#X obj -148 453 r divideBeat;
#X obj 808 217 / 256;
#X floatatom -38 -170 5 0 0 0 - - -, f 5;
#X floatatom -116 -168 5 0 0 0 - - -, f 5;
#X msg 405 -189 360;
#X msg 723 83 255;
#X obj 723 57 loadbang;
#X obj 1003 13 loadbang;
#X obj -71 -21 list2symbol;
#N canvas 380 23 970 505 drumMachine 0;
#X obj 86 19 inlet;
#X obj 25 20 inlet;
#X obj 71 116 spigot;
#X floatatom 25 248 5 0 0 0 - - -, f 5;
#X obj 25 166 counter 0 15;
#X obj 25 127 metro;
#X obj 25 101 tgl 15 0 empty empty empty 17 7 0 10 -262144 -1 -1 0
1;
#N canvas 4 501 762 300 bassdrum 0;
#X obj 45 13 inlet;
#X floatatom 45 39 5 0 0 0 - - -, f 5;
#X obj 78 79 tabread bassline;
#X obj 45 106 spigot;
#X msg 45 142 36;
#X obj 45 163 makenote 40 60;
#X obj 45 194 noteout 3;
#X msg 205 63 set \$1;
#X obj 349 161 bng 15 250 50 0 empty empty empty 17 7 0 10 -262144
-1 -1;
#X obj 349 185 symbol bassline;
#X obj 457 186 symbol bassline2;
#X obj 457 162 bng 15 250 50 0 empty empty empty 17 7 0 10 -262144
-1 -1;
#X obj 568 161 bng 15 250 50 0 empty empty empty 17 7 0 10 -262144
-1 -1;
#X obj 568 185 symbol bassline3;
#X floatatom 96 114 5 0 0 0 - - -, f 5;
#X obj 344 13 inlet;
#X obj 344 61 sel 0 1 2, f 54;
#X connect 0 0 1 0;
#X connect 1 0 2 0;
#X connect 1 0 3 0;
#X connect 2 0 3 1;
#X connect 2 0 14 0;
#X connect 3 0 4 0;
#X connect 4 0 5 0;
#X connect 5 0 6 0;
#X connect 5 1 6 1;
#X connect 7 0 2 0;
#X connect 8 0 9 0;
#X connect 9 0 7 0;
#X connect 10 0 7 0;
#X connect 11 0 10 0;
#X connect 12 0 13 0;
#X connect 13 0 7 0;
#X connect 15 0 16 0;
#X connect 16 0 8 0;
#X connect 16 1 11 0;
#X connect 16 2 12 0;
#X restore 73 289 pd bassdrum;
#N canvas 0 346 693 300 snare 0;
#X obj 45 13 inlet;
#X floatatom 45 92 5 0 0 0 - - -, f 5;
#X obj 45 146 spigot;
#X obj 45 203 makenote 40 60;
#X obj 45 234 noteout 3;
#X obj 78 119 tabread snareline;
#X msg 44 182 38;
#X msg 215 73 set \$1;
#X obj 250 221 bng 15 250 50 0 empty empty empty 17 7 0 10 -262144
-1 -1;
#X obj 358 222 bng 15 250 50 0 empty empty empty 17 7 0 10 -262144
-1 -1;
#X obj 250 245 symbol snareline;
#X obj 358 246 symbol snareline2;
#X obj 471 221 bng 15 250 50 0 empty empty empty 17 7 0 10 -262144
-1 -1;
#X obj 471 245 symbol snareline3;
#X obj 587 221 bng 15 250 50 0 empty empty empty 17 7 0 10 -262144
-1 -1;
#X obj 587 245 symbol snareline4;
#X obj 279 19 inlet;
#X obj 279 68 sel 0 1 2 3, f 54;
#X connect 0 0 1 0;
#X connect 1 0 5 0;
#X connect 1 0 2 0;
#X connect 2 0 6 0;
#X connect 3 0 4 0;
#X connect 3 1 4 1;
#X connect 5 0 2 1;
#X connect 6 0 3 0;
#X connect 7 0 5 0;
#X connect 8 0 10 0;
#X connect 9 0 11 0;
#X connect 10 0 7 0;
#X connect 11 0 7 0;
#X connect 12 0 13 0;
#X connect 13 0 7 0;
#X connect 14 0 15 0;
#X connect 15 0 7 0;
#X connect 16 0 17 0;
#X connect 17 0 8 0;
#X connect 17 1 9 0;
#X connect 17 2 12 0;
#X connect 17 3 14 0;
#X restore 233 289 pd snare;
#X obj 227 21 bng 15 250 50 0 empty empty empty 17 7 0 10 -262144 -1
-1;
#X obj 268 22 loadbang;
#X obj 697 34 table snareline;
#X obj 595 37 table bassline;
#X obj 593 59 table bassline2;
#X obj 25 208 randomDelayer;
#X obj 25 56 t b b b b b b;
#X obj 594 81 table bassline3;
#X msg 123 172 5;
#X obj 123 151 loadbang;
#X obj 695 56 table snareline2;
#X obj 700 79 table snareline3;
#X msg 232 58 \; snareline 0 0 0 0 0 1 0 0 0 0 0 0 0 1 0 0 0 \; snareline2
0 1 1 0 1 1 0 1 1 0 1 1 0 1 0 1 1 \; snareline3 0 1 1 1 1 1 1 1 1 1
1 1 1 1 1 1 1 \; snareline4 0 1 0 0 1 0 0 1 0 0 1 0 0 0 1 0 0 \; bassline
0 1 0 0 0 0 0 0 0 1 0 0 0 0 0 1 0 \; bassline2 0 1 0 0 1 0 0 1 0 0
1 0 0 1 0 1 0 \; bassline3 0 1 0 0 1 1 0 0 1 1 0 0 1 1 0 0 1;
#X obj 697 103 table snareline4;
#X obj 278 231 hradio 15 1 0 8 empty empty empty 0 -8 0 10 -262144
-1 -1 0;
#X obj 136 232 hradio 15 1 0 8 empty empty empty 0 -8 0 10 -262144
-1 -1 0;
#X obj 663 238 mod 2;
#X floatatom 663 269 5 0 0 0 - - -, f 5;
#X floatatom 630 204 5 0 0 0 - - -, f 5;
#X obj 663 299 == 1;
#X obj 709 299 == 0;
#X floatatom 663 320 5 0 0 0 - - -, f 5;
#X floatatom 709 320 5 0 0 0 - - -, f 5;
#X obj 630 346 spigot;
#X obj 676 347 spigot;
#X floatatom 630 367 5 0 0 0 - - -, f 5;
#X floatatom 676 368 5 0 0 0 - - -, f 5;
#X obj 630 261 / 2;
#X msg 410 331 \; testtable 0 0 1 2 3;
#X obj 410 386 table testtable;
#X obj 630 401 tabread testtable;
#X floatatom 630 422 5 0 0 0 - - -, f 5;
#X obj 748 402 tabread testtable;
#X floatatom 748 423 5 0 0 0 - - -, f 5;
#X msg 625 169 4;
#X msg 679 171 5;
#X msg 589 169 3;
#X msg 549 171 2;
#X connect 0 0 5 1;
#X connect 1 0 15 0;
#X connect 2 0 4 2;
#X connect 3 0 7 0;
#X connect 3 0 8 0;
#X connect 4 0 14 0;
#X connect 5 0 4 0;
#X connect 6 0 5 0;
#X connect 6 0 2 1;
#X connect 9 0 21 0;
#X connect 10 0 21 0;
#X connect 14 0 3 0;
#X connect 15 0 6 0;
#X connect 15 4 2 0;
#X connect 17 0 14 1;
#X connect 18 0 17 0;
#X connect 23 0 8 1;
#X connect 24 0 7 1;
#X connect 25 0 26 0;
#X connect 26 0 28 0;
#X connect 26 0 29 0;
#X connect 27 0 25 0;
#X connect 27 0 36 0;
#X connect 28 0 30 0;
#X connect 29 0 31 0;
#X connect 30 0 32 1;
#X connect 31 0 33 1;
#X connect 32 0 34 0;
#X connect 33 0 35 0;
#X connect 34 0 39 0;
#X connect 35 0 41 0;
#X connect 36 0 32 0;
#X connect 36 0 33 0;
#X connect 39 0 40 0;
#X connect 41 0 42 0;
#X connect 43 0 27 0;
#X connect 44 0 27 0;
#X connect 45 0 27 0;
#X connect 46 0 27 0;
#X restore 503 123 pd drumMachine;
#X obj 128 30 s t_signal;
#X obj 503 22 r t_signal;
#X obj 596 91 / 4;
#X obj -71 -78 loadbang;
#X obj -17 -130 s bodyDiscreteControl;
#X obj 23 453 r bodyDiscreteControl;
#N canvas 64 97 1310 701 pickCustomPulse 0;
#X msg 699 254 3 2 5 4;
#X msg 285 216 1 2 3;
#X msg 870 248 7 3 2 5;
#X msg 179 216 2 2 3;
#X msg 552 241 1 1 1 1;
#X msg 620 246 2 2 2 2;
#X msg 96 327 2 2 1 1 1;
#X msg 786 246 3 3 3 3;
#X msg 233 215 2 3 4;
#X obj 592 570 outlet;
#X msg 967 372 3 3 3 3 2 2;
#X msg 867 374 3 3 3 3 3 1;
#X msg 25 450 2 1 3 2 1 3 3 1;
#X msg 1048 372 5 5 5 5 3 3;
#X msg 167 449 6 5 4 3 2 1 1 1;
#X obj 433 28 inlet;
#X floatatom 433 59 5 0 0 0 - - -, f 5;
#X obj 519 28 inlet;
#X symbolatom 519 59 10 0 0 0 - - -, f 10;
#X obj 435 142 sel 0 1 2 3 4 5 6 7 8 9 10 11 12 13 14 15 excited,
f 80;
#X msg 613 26 symbol excited;
#X obj 888 188 bng 15 250 50 0 empty empty empty 17 7 0 10 -262144
-1 -1;
#X msg 373 41 16;
#X obj 918 167 bng 15 250 50 0 empty empty empty 17 7 0 10 -262144
-1 -1;
#X msg 942 250 2 2 2 1;
#X msg 427 182 2 2 2 1 1;
#X msg 470 209 2 2 2 1;
#X msg 511 183 2 2 2 2 3;
#X msg 422 268 10 1 1;
#X msg 223 296 3 3 2;
#X msg 226 328 2 1 2 1 2;
#X connect 0 0 9 0;
#X connect 1 0 9 0;
#X connect 2 0 9 0;
#X connect 3 0 9 0;
#X connect 4 0 9 0;
#X connect 5 0 9 0;
#X connect 6 0 9 0;
#X connect 7 0 9 0;
#X connect 8 0 9 0;
#X connect 10 0 9 0;
#X connect 11 0 9 0;
#X connect 12 0 9 0;
#X connect 13 0 9 0;
#X connect 14 0 9 0;
#X connect 15 0 16 0;
#X connect 16 0 19 0;
#X connect 17 0 18 0;
#X connect 18 0 19 0;
#X connect 19 0 25 0;
#X connect 19 1 26 0;
#X connect 19 2 27 0;
#X connect 19 16 21 0;
#X connect 19 17 23 0;
#X connect 20 0 18 0;
#X connect 21 0 24 0;
#X connect 22 0 16 0;
#X connect 24 0 9 0;
#X connect 25 0 9 0;
#X connect 26 0 9 0;
#X connect 27 0 9 0;
#X connect 28 0 9 0;
#X connect 29 0 9 0;
#X connect 30 0 9 0;
#X restore 265 98 pd pickCustomPulse;
#X obj 503 101 spigot;
#X obj 536 83 tgl 15 0 empty empty empty 17 7 0 10 -262144 -1 -1 0
1;
#X obj 463 102 bng 15 250 50 0 empty empty empty 17 7 0 10 -262144
-1 -1;
#X obj 536 43 loadbang;
#X obj 547 -101 metro;
#X obj 547 -132 tgl 15 0 empty empty empty 17 7 0 10 -262144 -1 -1
0 1;
#X obj 547 -75 bng 15 250 50 0 empty empty empty 17 7 0 10 -262144
-1 -1;
#X obj 547 -163 r t_signal;
#X obj 164 453 hradio 15 1 0 8 empty empty empty 0 -8 0 10 -262144
-1 -1 0;
#X obj -170 58 r t_signal;
#N canvas 0 23 450 370 drumPulse 0;
#X obj 33 26 inlet;
#X obj 47 55 bng 15 250 50 0 empty empty empty 17 7 0 10 -262144 -1
-1;
#X floatatom 33 118 5 0 0 0 - - -, f 5;
#X obj 33 148 sel 0 1 2, f 29;
#X obj 33 97 counter 0 2;
#X msg 33 191 36;
#X msg 90 191 51;
#X msg 147 192 57;
#X obj 33 286 noteout 3;
#X obj 33 235 makenote 70 80;
#X connect 0 0 1 0;
#X connect 0 0 4 0;
#X connect 2 0 3 0;
#X connect 3 0 5 0;
#X connect 3 1 6 0;
#X connect 3 2 6 0;
#X connect 4 0 2 0;
#X connect 5 0 9 0;
#X connect 6 0 9 0;
#X connect 7 0 9 0;
#X connect 9 0 8 0;
#X connect 9 1 8 1;
#X restore -14 266 pd drumPulse;
#X obj 174 65 spigot;
#X obj 207 41 tgl 15 0 empty empty empty 17 7 0 10 -262144 -1 -1 0
1;
#X obj 160 180 bng 15 250 50 0 empty empty empty 17 7 0 10 -262144
-1 -1;
#X msg 160 209 22;
#X obj 160 300 noteout 5;
#X obj 345 413 tgl 15 0 empty empty empty 17 7 0 10 -262144 -1 -1 1
1;
#N canvas 0 23 672 505 emotionalChanger 0;
#X obj 60 364 tgl 15 0 empty empty empty 17 7 0 10 -262144 -1 -1 1
1;
#X obj 123 362 tgl 15 0 empty empty empty 17 7 0 10 -262144 -1 -1 0
1;
#X obj 186 364 tgl 15 0 empty empty empty 17 7 0 10 -262144 -1 -1 0
1;
#X msg 93 312 0;
#X msg 60 312 1;
#X floatatom 60 129 5 0 0 0 - - -, f 5;
#X msg 105 76 0;
#X msg 142 77 1;
#X msg 179 76 2;
#X msg 156 312 0;
#X msg 123 312 1;
#X msg 219 313 0;
#X msg 186 313 1;
#X obj 60 170 t f b;
#X obj 60 13 inlet;
#X obj 60 265 sel 0 1 2 3 4 5, f 64;
#X obj 251 365 tgl 15 0 empty empty empty 17 7 0 10 -262144 -1 -1 0
1;
#X obj 314 363 tgl 15 0 empty empty empty 17 7 0 10 -262144 -1 -1 0
1;
#X obj 377 365 tgl 15 0 empty empty empty 17 7 0 10 -262144 -1 -1 0
1;
#X msg 284 313 0;
#X msg 251 313 1;
#X msg 347 313 0;
#X msg 314 313 1;
#X msg 410 314 0;
#X msg 377 314 1;
#X obj 87 203 s cs;
#X obj 156 287 r cs;
#X text 318 94 close signal;
#X obj 284 286 r cs;
#X obj 219 288 r cs;
#X obj 347 286 r cs;
#X obj 410 290 r cs;
#X obj 93 288 r cs;
#X msg 103 52 -1;
#X obj 60 396 outlet;
#X obj 123 396 outlet;
#X obj 186 398 outlet;
#X obj 251 398 outlet;
#X obj 314 398 outlet;
#X obj 377 398 outlet, f 34;
#X obj 153 129 inlet;
#X obj 153 160 bng 15 250 50 0 empty empty empty 17 7 0 10 -262144
-1 -1;
#X obj 86 350 bng 15 250 50 0 empty empty empty 17 7 0 10 -262144 -1
-1;
#X obj 134 206 bng 15 250 50 0 empty empty empty 17 7 0 10 -262144
-1 -1;
#X connect 0 0 34 0;
#X connect 1 0 35 0;
#X connect 2 0 36 0;
#X connect 3 0 0 0;
#X connect 3 0 42 0;
#X connect 4 0 0 0;
#X connect 5 0 13 0;
#X connect 6 0 5 0;
#X connect 7 0 5 0;
#X connect 8 0 5 0;
#X connect 9 0 1 0;
#X connect 10 0 1 0;
#X connect 11 0 2 0;
#X connect 12 0 2 0;
#X connect 13 0 15 0;
#X connect 13 1 25 0;
#X connect 13 1 43 0;
#X connect 14 0 5 0;
#X connect 15 0 4 0;
#X connect 15 1 10 0;
#X connect 15 2 12 0;
#X connect 15 3 20 0;
#X connect 15 4 22 0;
#X connect 15 5 24 0;
#X connect 16 0 37 0;
#X connect 17 0 38 0;
#X connect 18 0 39 0;
#X connect 19 0 16 0;
#X connect 20 0 16 0;
#X connect 21 0 17 0;
#X connect 22 0 17 0;
#X connect 23 0 18 0;
#X connect 24 0 18 0;
#X connect 26 0 9 0;
#X connect 28 0 19 0;
#X connect 29 0 11 0;
#X connect 30 0 21 0;
#X connect 31 0 23 0;
#X connect 32 0 3 0;
#X connect 33 0 5 0;
#X connect 40 0 41 0;
#X connect 41 0 25 0;
#X restore 345 321 pd emotionalChanger;
#X obj 345 274 hradio 15 1 0 6 empty empty empty 0 -8 0 10 -262144
-1 -1 0;
#X obj 30 -167 s angerlist;
#X obj 623 236 r angerlist;
#N canvas 256 43 1184 763 angerDrum 0;
#X obj 398 29 inlet;
#X obj 398 86 symbol2list;
#X obj 398 187 unpack f f f f f f f f f f f f f f f f, f 90;
#X obj 487 127 sel 0 1 2 3 4 5 6 7 8 9 10 11 12 13 14 15, f 91;
#X floatatom 398 252 5 0 0 0 - - -, f 5;
#X floatatom 468 252 5 0 0 0 - - -, f 5;
#X floatatom 540 252 5 0 0 0 - - -, f 5;
#X floatatom 612 252 5 0 0 0 - - -, f 5;
#X floatatom 683 252 5 0 0 0 - - -, f 5;
#X floatatom 756 252 5 0 0 0 - - -, f 5;
#X floatatom 827 252 5 0 0 0 - - -, f 5;
#X floatatom 898 252 5 0 0 0 - - -, f 5;
#X floatatom 433 288 5 0 0 0 - - -, f 5;
#X floatatom 503 288 5 0 0 0 - - -, f 5;
#X floatatom 575 288 5 0 0 0 - - -, f 5;
#X floatatom 647 288 5 0 0 0 - - -, f 5;
#X floatatom 718 288 5 0 0 0 - - -, f 5;
#X floatatom 791 288 5 0 0 0 - - -, f 5;
#X floatatom 862 288 5 0 0 0 - - -, f 5;
#X floatatom 933 288 5 0 0 0 - - -, f 5;
#X floatatom 487 101 5 0 0 0 - - -, f 5;
#X obj 235 387 spigot;
#X obj 43 30 inlet;
#X obj 104 30 inlet;
#X floatatom 104 51 5 0 0 0 - - -, f 5;
#X obj 43 73 tgl 15 0 empty empty empty 17 7 0 10 -262144 -1 -1 0 1
;
#X obj 43 96 metro;
#X obj 63 187 counter 0 15;
#X msg 682 59 1 1 1 1 0 0 0 0 1 1 1 1 0 0 0 0;
#X obj 43 117 t b b b b;
#X obj 188 183 bng 15 250 50 0 empty empty empty 17 7 0 10 -262144
-1 -1;
#X obj 43 52 t b b;
#X obj 129 113 bng 15 250 50 0 empty empty empty 17 7 0 10 -262144
-1 -1;
#X symbolatom 432 60 10 0 0 0 - - -, f 10;
#X obj 167 434 inlet;
#X obj 134 503 spigot;
#X obj 167 456 tgl 15 0 empty empty empty 17 7 0 10 -262144 -1 -1 0
1;
#X obj 236 548 noteout 6;
#X msg 377 496 22;
#X obj 377 567 noteout 5;
#X obj 377 537 makenote 400 150;
#X obj 432 512 bng 15 250 50 0 empty empty empty 17 7 0 10 -262144
-1 -1;
#X obj 377 471 spigot;
#X floatatom 63 208 5 0 0 0 - - -, f 5;
#X obj 43 308 bng 15 250 50 0 empty empty empty 17 7 0 10 -262144 -1
-1;
#X obj 74 307 bng 15 250 50 0 empty empty empty 17 7 0 10 -262144 -1
-1;
#X obj 105 307 bng 15 250 50 0 empty empty empty 17 7 0 10 -262144
-1 -1;
#X msg 43 339 60;
#X msg 74 339 61;
#X msg 105 340 62;
#X floatatom 295 406 5 0 0 0 - - -, f 5;
#X msg 188 238 60;
#X msg 716 94 1 1 0 1 0 1 1 0 1 0 1 0 1 1 0 0;
#X obj 236 427 makenote 100 60;
#X obj 45 232 random 4;
#X floatatom 45 253 5 0 0 0 - - -, f 5;
#X obj 43 279 sel 0 1 2 3, f 22;
#X obj 138 310 bng 15 250 50 0 empty empty empty 17 7 0 10 -262144
-1 -1;
#X msg 142 339 63;
#X connect 0 0 1 0;
#X connect 0 0 33 0;
#X connect 1 0 2 0;
#X connect 2 0 4 0;
#X connect 2 1 12 0;
#X connect 2 2 5 0;
#X connect 2 3 13 0;
#X connect 2 4 6 0;
#X connect 2 5 14 0;
#X connect 2 6 7 0;
#X connect 2 7 15 0;
#X connect 2 8 8 0;
#X connect 2 9 16 0;
#X connect 2 10 9 0;
#X connect 2 11 17 0;
#X connect 2 12 10 0;
#X connect 2 13 18 0;
#X connect 2 14 11 0;
#X connect 2 15 19 0;
#X connect 3 0 4 0;
#X connect 3 0 42 0;
#X connect 3 1 12 0;
#X connect 3 2 5 0;
#X connect 3 3 13 0;
#X connect 3 4 6 0;
#X connect 3 5 14 0;
#X connect 3 6 7 0;
#X connect 3 7 15 0;
#X connect 3 8 8 0;
#X connect 3 9 16 0;
#X connect 3 10 9 0;
#X connect 3 11 17 0;
#X connect 3 12 10 0;
#X connect 3 13 18 0;
#X connect 3 14 11 0;
#X connect 3 15 19 0;
#X connect 4 0 21 1;
#X connect 5 0 21 1;
#X connect 6 0 21 1;
#X connect 7 0 21 1;
#X connect 8 0 21 1;
#X connect 9 0 21 1;
#X connect 10 0 21 1;
#X connect 11 0 21 1;
#X connect 12 0 21 1;
#X connect 13 0 21 1;
#X connect 14 0 21 1;
#X connect 15 0 21 1;
#X connect 16 0 21 1;
#X connect 17 0 21 1;
#X connect 18 0 21 1;
#X connect 19 0 21 1;
#X connect 20 0 3 0;
#X connect 21 0 50 0;
#X connect 21 0 53 0;
#X connect 22 0 31 0;
#X connect 23 0 24 0;
#X connect 24 0 26 1;
#X connect 25 0 26 0;
#X connect 26 0 29 0;
#X connect 27 0 20 0;
#X connect 27 0 43 0;
#X connect 28 0 2 0;
#X connect 29 0 30 0;
#X connect 29 0 54 0;
#X connect 29 2 27 0;
#X connect 30 0 51 0;
#X connect 31 0 25 0;
#X connect 31 1 32 0;
#X connect 32 0 27 2;
#X connect 34 0 36 0;
#X connect 35 0 37 0;
#X connect 36 0 35 1;
#X connect 36 0 42 1;
#X connect 38 0 41 0;
#X connect 40 0 39 0;
#X connect 40 1 39 1;
#X connect 42 0 38 0;
#X connect 44 0 47 0;
#X connect 45 0 48 0;
#X connect 46 0 49 0;
#X connect 47 0 21 0;
#X connect 48 0 21 0;
#X connect 49 0 21 0;
#X connect 52 0 2 0;
#X connect 53 0 35 0;
#X connect 53 1 37 1;
#X connect 54 0 55 0;
#X connect 55 0 56 0;
#X connect 56 0 44 0;
#X connect 56 1 45 0;
#X connect 56 2 46 0;
#X connect 56 3 57 0;
#X connect 57 0 58 0;
#X connect 58 0 21 0;
#X restore 485 252 pd angerDrum;
#X obj 485 159 r t_signal;
#X floatatom 277 -47 5 0 0 0 - - -, f 5;
#X obj 277 -27 s bpmInMS;
#X obj 596 35 r bpmInMS;
#X floatatom 596 56 5 0 0 0 - - -, f 5;
#X obj 588 182 r bpmInMS;
#X obj 485 219 spigot;
#X obj 518 201 tgl 15 0 empty empty empty 17 7 0 10 -262144 -1 -1 1
1;
#X obj 518 181 loadbang;
#X obj 564 209 / 4;
#X msg 174 89 3 3 2 1 2;
#X obj 19 203 tgl 15 0 empty empty empty 17 7 0 10 -262144 -1 -1 0
1;
#X obj -14 226 spigot;
#X obj 608 218 tgl 15 0 empty empty empty 17 7 0 10 -262144 -1 -1 0
1;
#X obj 160 237 spigot;
#X obj 193 213 tgl 15 0 empty empty empty 17 7 0 10 -262144 -1 -1 0
1;
#X obj 193 185 r melodyToggler;
#X obj 207 492 s melodyModel;
#X obj 265 76 r melodyModel;
#X obj 574 -132 r bpmInMS;
#X obj 109 50 r bpmInMS;
#X obj 687 463 bng 15 250 50 0 empty empty empty 17 7 0 10 -262144
-1 -1;
#X obj 805 556 readsf~;
#X msg 855 526 start;
#X msg 762 459 stop;
#X msg 817 499 open pf.wav \, start;
#X obj 832 630 dac~;
#X obj 687 404 tgl 15 0 empty empty empty 17 7 0 10 -262144 -1 -1 0
1;
#X obj 687 429 sel 1;
#X obj 756 429 sel 0;
#X obj 598 382 s playfile;
#X obj 651 343 r playfile;
#X obj 597 358 bng 15 250 50 0 empty empty empty 17 7 0 10 -262144
-1 -1;
#X obj 160 260 makenote 300 150;
#X obj 105 -36 randomDelayer;
#X msg 188 -61 100;
#X obj 105 -66 bng 15 250 50 0 empty empty empty 17 7 0 10 -262144
-1 -1;
#X msg 158 -64 150;
#X obj 480 378 s prcsnToggler;
#X obj 297 184 r prcsnToggler;
#X obj 297 210 tgl 15 0 empty empty empty 17 7 0 10 -262144 -1 -1 0
1;
#X obj 654 189 r prcsnToggler;
#X obj 155 143 s barChange;
#X obj 677 108 r barChange;
#X obj 677 129 random 256;
#X floatatom 677 150 5 0 0 0 - - -, f 5;
#X obj 456 272 bng 15 250 50 0 empty empty empty 17 7 0 10 -262144
-1 -1;
#X obj 955 -177 loadbang;
#X obj -182 -18 unpack s;
#N canvas 465 213 450 300 jointhand 0;
#X floatatom 81 105 5 0 0 0 - - -, f 5;
#X floatatom 132 105 5 0 0 0 - - -, f 5;
#X obj 81 123 bng 15 250 50 0 empty empty empty 17 7 0 10 -262144 -1
-1;
#X obj 132 128 bng 15 250 50 0 empty empty empty 17 7 0 10 -262144
-1 -1;
#X obj 81 84 moses 100;
#X msg 81 162 0;
#X obj 108 206 spigot;
#X msg 132 162 1;
#X obj 81 141 t b b;
#X obj 81 48 inlet;
#X obj 108 231 bng 15 250 50 0 empty empty empty 17 7 0 10 -262144
-1 -1;
#X obj 108 251 outlet;
#X obj 132 46 inlet;
#X connect 0 0 2 0;
#X connect 1 0 3 0;
#X connect 2 0 8 0;
#X connect 3 0 7 0;
#X connect 4 0 0 0;
#X connect 4 1 1 0;
#X connect 5 0 6 1;
#X connect 6 0 10 0;
#X connect 7 0 6 1;
#X connect 8 0 5 0;
#X connect 8 1 6 0;
#X connect 9 0 4 0;
#X connect 10 0 11 0;
#X connect 12 0 4 1;
#X restore 136 -166 pd jointhand;
#X obj 142 -134 bng 15 250 50 0 empty empty empty 17 7 0 10 -262144
-1 -1;
#X floatatom 205 -190 5 0 0 0 - - -, f 5;
#X msg 167 -191 100;
#X obj 167 -213 loadbang;
#X msg 277 -143 60;
#X floatatom 1041 44 5 0 0 0 - - -, f 5;
#X obj 1041 66 sel 4 6;
#X floatatom 1081 163 5 0 0 0 - - -, f 5;
#X msg 328 -143 120;
#X obj 345 449 s floatMelodyToggler;
#X obj -28 572 r floatMelodyToggler;
#X obj 433 384 tgl 15 0 empty empty empty 17 7 0 10 -262144 -1 -1 0
1;
#X obj 433 404 s stableTone;
#X msg 354 -170 90;
#X floatatom 1060 -135 5 0 0 0 - - -, f 5;
#X obj 1060 -115 moses 4;
#X floatatom 1060 -96 5 0 0 0 - - -, f 5;
#X floatatom 1099 -95 5 0 0 0 - - -, f 5;
#X msg 1060 -75 0;
#X msg 1099 -75 1;
#X floatatom 1060 -54 5 0 0 0 - - -, f 5;
#N canvas 658 455 450 300 phaseChoser 0;
#N canvas 0 23 672 505 phaseChanger 0;
#X obj 60 364 tgl 15 0 empty empty empty 17 7 0 10 -262144 -1 -1 1
1;
#X obj 123 362 tgl 15 0 empty empty empty 17 7 0 10 -262144 -1 -1 0
1;
#X obj 186 364 tgl 15 0 empty empty empty 17 7 0 10 -262144 -1 -1 0
1;
#X msg 93 312 0;
#X msg 60 312 1;
#X floatatom 60 129 5 0 0 0 - - -, f 5;
#X msg 105 76 0;
#X msg 142 77 1;
#X msg 179 76 2;
#X msg 156 312 0;
#X msg 123 312 1;
#X msg 219 313 0;
#X msg 186 313 1;
#X obj 60 170 t f b;
#X obj 60 13 inlet;
#X obj 60 265 sel 0 1 2 3 4 5, f 64;
#X obj 251 365 tgl 15 0 empty empty empty 17 7 0 10 -262144 -1 -1 0
1;
#X obj 314 363 tgl 15 0 empty empty empty 17 7 0 10 -262144 -1 -1 0
1;
#X obj 377 365 tgl 15 0 empty empty empty 17 7 0 10 -262144 -1 -1 0
1;
#X msg 284 313 0;
#X msg 251 313 1;
#X msg 347 313 0;
#X msg 314 313 1;
#X msg 410 314 0;
#X msg 377 314 1;
#X text 318 94 close signal;
#X msg 103 52 -1;
#X obj 60 396 outlet;
#X obj 123 396 outlet;
#X obj 186 398 outlet;
#X obj 251 398 outlet;
#X obj 314 398 outlet;
#X obj 377 398 outlet, f 34;
#X obj 153 129 inlet;
#X obj 153 160 bng 15 250 50 0 empty empty empty 17 7 0 10 -262144
-1 -1;
#X obj 87 203 s cs2;
#X obj 93 288 r cs2;
#X obj 156 287 r cs2;
#X obj 219 288 r cs2;
#X obj 284 286 r cs2;
#X obj 347 286 r cs2;
#X obj 410 290 r cs2;
#X connect 0 0 27 0;
#X connect 1 0 28 0;
#X connect 2 0 29 0;
#X connect 3 0 0 0;
#X connect 4 0 0 0;
#X connect 5 0 13 0;
#X connect 6 0 5 0;
#X connect 7 0 5 0;
#X connect 8 0 5 0;
#X connect 9 0 1 0;
#X connect 10 0 1 0;
#X connect 11 0 2 0;
#X connect 12 0 2 0;
#X connect 13 0 15 0;
#X connect 13 1 35 0;
#X connect 14 0 5 0;
#X connect 15 0 4 0;
#X connect 15 1 10 0;
#X connect 15 2 12 0;
#X connect 15 3 20 0;
#X connect 15 4 22 0;
#X connect 15 5 24 0;
#X connect 16 0 30 0;
#X connect 17 0 31 0;
#X connect 18 0 32 0;
#X connect 19 0 16 0;
#X connect 20 0 16 0;
#X connect 21 0 17 0;
#X connect 22 0 17 0;
#X connect 23 0 18 0;
#X connect 24 0 18 0;
#X connect 26 0 5 0;
#X connect 33 0 34 0;
#X connect 34 0 35 0;
#X connect 36 0 3 0;
#X connect 37 0 9 0;
#X connect 38 0 11 0;
#X connect 39 0 19 0;
#X connect 40 0 21 0;
#X connect 41 0 23 0;
#X restore 122 140 pd phaseChanger;
#X obj 122 168 tgl 15 0 empty empty empty 17 7 0 10 -262144 -1 -1 1
1;
#X obj 180 168 tgl 15 0 empty empty empty 17 7 0 10 -262144 -1 -1 0
1;
#X obj 297 57 hradio 15 1 0 8 empty empty empty 0 -8 0 10 -262144 -1
-1 0;
#X obj 147 196 spigot;
#X obj 89 195 spigot;
#X obj 413 103 bng 15 250 50 0 empty empty empty 17 7 0 10 -262144
-1 -1;
#X obj 238 168 tgl 15 0 empty empty empty 17 7 0 10 -262144 -1 -1 0
1;
#X obj 205 196 spigot;
#X obj 297 13 inlet;
#X obj 89 14 inlet;
#X obj 147 15 inlet;
#X obj 206 16 inlet;
#X obj 413 16 inlet;
#X obj 147 257 outlet;
#X connect 0 0 1 0;
#X connect 0 1 2 0;
#X connect 0 2 7 0;
#X connect 1 0 5 1;
#X connect 2 0 4 1;
#X connect 3 0 0 0;
#X connect 4 0 14 0;
#X connect 5 0 14 0;
#X connect 6 0 0 1;
#X connect 7 0 8 1;
#X connect 8 0 14 0;
#X connect 9 0 3 0;
#X connect 10 0 5 0;
#X connect 11 0 4 0;
#X connect 12 0 8 0;
#X connect 13 0 6 0;
#X restore 1267 -39 pd phaseChoser;
#X obj 1348 -63 bng 15 250 50 0 empty empty empty 17 7 0 10 -262144
-1 -1;
#X obj 1327 -83 hradio 15 1 0 8 empty empty empty 0 -8 0 10 -262144
-1 -1 0;
#X obj 48 -95 r recordingTrigger;
#X obj 1327 -129 r phaseChoser;
#X floatatom 1327 -108 5 0 0 0 - - -, f 5;
#X obj 1291 -100 bng 15 250 50 0 empty empty empty 17 7 0 10 -262144
-1 -1;
#X msg 131 228 22;
#X floatatom 1267 -18 5 0 0 0 - - -, f 5;
#N canvas 872 442 450 359 dealProbability 1;
#X obj 50 19 inlet;
#X obj 154 57 r leftHandProbability;
#X floatatom 154 144 5 0 0 0 - - -, f 5;
#X obj 69 120 random 100;
#X floatatom 69 143 5 0 0 0 - - -, f 5;
#X obj 50 59 bng 15 250 50 0 empty empty empty 17 7 0 10 -262144 -1
-1;
#X floatatom 139 245 5 0 0 0 - - -, f 5;
#X obj 50 79 t b b b;
#X obj 50 265 spigot;
#X obj 50 301 bng 15 250 50 0 empty empty empty 17 7 0 10 -262144 -1
-1;
#X obj 139 196 >=;
#X obj 50 321 outlet;
#X obj 187 84 r notMoving;
#X obj 154 114 spigot;
#X msg 215 146 100;
#X obj 215 117 sel 1;
#X floatatom 154 173 5 0 0 0 - - -, f 5;
#X connect 0 0 5 0;
#X connect 1 0 13 0;
#X connect 2 0 16 0;
#X connect 3 0 4 0;
#X connect 4 0 10 0;
#X connect 5 0 7 0;
#X connect 6 0 8 1;
#X connect 7 0 8 0;
#X connect 7 1 3 0;
#X connect 7 2 2 0;
#X connect 8 0 9 0;
#X connect 9 0 11 0;
#X connect 10 0 6 0;
#X connect 12 0 13 1;
#X connect 12 0 15 0;
#X connect 13 0 2 0;
#X connect 14 0 16 0;
#X connect 15 0 14 0;
#X connect 16 0 10 1;
#X restore -170 142 pd dealProbability;
#X msg 911 52 1;
#X msg 950 53 0;
#X floatatom 23 474 5 0 0 0 - - -, f 5;
#X text 1057 381 rocord stop return play;
#X msg 1067 363 100;
#X msg 1101 357 101;
#X msg 1176 356 103;
#X msg 1138 351 102;
#X obj 1203 438 ctlout 21;
#X obj 1071 237 r t_signal;
#X obj 1072 266 tgl 15 0 empty empty empty 17 7 0 10 -262144 -1 -1
0 1;
#X obj 359 230 loadbang;
#X msg 359 251 0;
#X msg -71 -50 1 1 1 1;
#X obj 1072 286 sel 1;
#X obj 1170 311 t b b;
#X obj 1170 282 bng 15 250 50 0 empty empty empty 17 7 0 10 -262144
-1 -1;
#X obj 1233 284 bng 15 250 50 0 empty empty empty 17 7 0 10 -262144
-1 -1;
#X obj 1170 204 r replayingTrigger;
#X obj 1170 232 tgl 15 0 empty empty empty 17 7 0 10 -262144 -1 -1
0 1;
#X obj 1170 252 sel 1;
#X obj 862 55 + 1;
#X msg 1041 94 3;
#X msg 1074 94 5;
#X connect 0 0 35 0;
#X connect 1 0 35 1;
#X connect 1 0 8 1;
#X connect 2 0 35 2;
#X connect 3 0 52 0;
#X connect 3 0 106 0;
#X connect 4 0 35 2;
#X connect 5 0 0 0;
#X connect 5 2 1 0;
#X connect 5 4 2 0;
#X connect 5 6 65 0;
#X connect 5 10 83 0;
#X connect 5 12 84 0;
#X connect 6 0 5 0;
#X connect 8 0 174 0;
#X connect 9 0 148 0;
#X connect 10 0 11 0;
#X connect 10 0 14 0;
#X connect 12 0 10 0;
#X connect 13 0 95 0;
#X connect 14 0 13 0;
#X connect 17 0 149 0;
#X connect 18 0 17 0;
#X connect 19 0 38 1;
#X connect 20 0 19 0;
#X connect 21 0 24 1;
#X connect 21 0 34 0;
#X connect 22 0 38 0;
#X connect 25 0 142 0;
#X connect 25 1 47 0;
#X connect 25 1 58 0;
#X connect 25 2 57 0;
#X connect 25 2 69 0;
#X connect 25 3 91 0;
#X connect 25 4 143 0;
#X connect 26 0 24 3;
#X connect 27 0 8 2;
#X connect 28 0 24 2;
#X connect 29 0 22 0;
#X connect 30 0 29 0;
#X connect 30 3 18 0;
#X connect 31 0 30 0;
#X connect 32 0 30 0;
#X connect 33 0 22 0;
#X connect 34 0 22 0;
#X connect 35 0 3 0;
#X connect 35 1 7 0;
#X connect 35 2 85 0;
#X connect 35 2 136 0;
#X connect 36 0 24 2;
#X connect 38 0 56 0;
#X connect 41 0 44 0;
#X connect 42 0 149 0;
#X connect 44 0 158 0;
#X connect 44 0 165 1;
#X connect 44 0 165 2;
#X connect 45 0 44 1;
#X connect 48 0 41 0;
#X connect 50 0 14 0;
#X connect 53 0 51 1;
#X connect 55 0 51 0;
#X connect 56 0 24 0;
#X connect 56 0 37 0;
#X connect 59 0 14 0;
#X connect 60 0 22 0;
#X connect 61 0 60 0;
#X connect 62 0 42 0;
#X connect 63 0 27 0;
#X connect 66 0 72 0;
#X connect 67 0 64 1;
#X connect 68 0 188 0;
#X connect 70 0 51 2;
#X connect 70 0 177 0;
#X connect 71 0 35 3;
#X connect 72 0 64 0;
#X connect 73 0 72 1;
#X connect 74 0 64 0;
#X connect 76 0 78 0;
#X connect 77 0 76 0;
#X connect 78 0 49 0;
#X connect 79 0 77 0;
#X connect 80 0 51 3;
#X connect 80 0 111 0;
#X connect 81 0 8 0;
#X connect 83 0 104 0;
#X connect 84 0 83 1;
#X connect 85 0 86 0;
#X connect 86 0 108 0;
#X connect 88 0 153 0;
#X connect 89 0 88 0;
#X connect 89 1 88 0;
#X connect 89 2 88 0;
#X connect 89 3 88 0;
#X connect 89 4 155 0;
#X connect 89 5 132 0;
#X connect 90 0 89 0;
#X connect 90 0 80 0;
#X connect 92 0 93 3;
#X connect 94 0 100 0;
#X connect 95 0 96 0;
#X connect 97 0 98 0;
#X connect 98 0 67 0;
#X connect 99 0 103 0;
#X connect 100 0 93 0;
#X connect 101 0 100 1;
#X connect 102 0 101 0;
#X connect 103 0 93 1;
#X connect 104 0 35 3;
#X connect 105 0 106 1;
#X connect 106 0 82 0;
#X connect 107 0 93 2;
#X connect 108 0 127 0;
#X connect 110 0 109 0;
#X connect 112 0 71 0;
#X connect 113 0 76 1;
#X connect 114 0 1 0;
#X connect 115 0 119 0;
#X connect 116 0 120 0;
#X connect 116 0 120 1;
#X connect 117 0 116 0;
#X connect 118 0 116 0;
#X connect 119 0 116 0;
#X connect 121 0 122 0;
#X connect 121 0 123 0;
#X connect 122 0 115 0;
#X connect 123 0 118 0;
#X connect 125 0 121 0;
#X connect 126 0 124 0;
#X connect 127 0 87 0;
#X connect 127 1 87 1;
#X connect 128 0 6 0;
#X connect 129 0 128 1;
#X connect 130 0 128 0;
#X connect 130 0 6 0;
#X connect 131 0 128 1;
#X connect 133 0 134 0;
#X connect 134 0 108 1;
#X connect 135 0 107 0;
#X connect 137 0 138 0;
#X connect 138 0 139 0;
#X connect 140 0 89 1;
#X connect 141 0 45 0;
#X connect 142 0 27 0;
#X connect 143 0 144 0;
#X connect 145 0 143 1;
#X connect 146 0 143 1;
#X connect 147 0 146 0;
#X connect 148 0 14 0;
#X connect 149 0 150 0;
#X connect 150 0 197 0;
#X connect 150 1 198 0;
#X connect 150 2 151 0;
#X connect 151 0 196 0;
#X connect 152 0 14 0;
#X connect 154 0 51 4;
#X connect 155 0 156 0;
#X connect 157 0 14 0;
#X connect 158 0 159 0;
#X connect 159 0 160 0;
#X connect 159 1 161 0;
#X connect 160 0 162 0;
#X connect 161 0 163 0;
#X connect 162 0 164 0;
#X connect 163 0 164 0;
#X connect 164 0 165 0;
#X connect 165 0 173 0;
#X connect 166 0 165 4;
#X connect 167 0 165 3;
#X connect 168 0 6 0;
#X connect 169 0 170 0;
#X connect 169 0 171 0;
#X connect 170 0 167 0;
#X connect 172 0 127 0;
#X connect 173 0 42 0;
#X connect 174 0 54 0;
#X connect 175 0 196 1;
#X connect 176 0 196 1;
#X connect 179 0 183 0;
#X connect 180 0 183 0;
#X connect 181 0 183 0;
#X connect 182 0 183 0;
#X connect 184 0 185 0;
#X connect 185 0 189 0;
#X connect 186 0 187 0;
#X connect 187 0 90 0;
#X connect 188 0 63 0;
#X connect 189 0 179 0;
#X connect 189 1 180 0;
#X connect 190 0 181 0;
#X connect 190 1 182 0;
#X connect 191 0 190 0;
#X connect 192 0 180 0;
#X connect 193 0 194 0;
#X connect 194 0 195 0;
#X connect 195 0 191 0;
#X connect 195 1 192 0;
#X connect 196 0 20 0;
#X connect 196 0 21 0;
#X connect 197 0 151 0;
#X connect 198 0 151 0;
