#N canvas 185 42 1175 752 10;
#X obj 49 228 random 12;
#X obj 49 277 + 60;
#X msg 121 228 72;
#X msg 157 229 79;
#X obj 49 368 noteout 1;
#X obj 49 327 makenote 60 180;
#X obj 49 46 tgl 15 0 empty empty empty 17 7 0 10 -262144 -1 -1 1 1
;
#X floatatom 76 46 5 0 0 0 - - -, f 5;
#X msg 103 69 1;
#X obj 49 146 bng 15 250 50 0 empty empty empty 17 7 0 10 -262144 -1
-1;
#X msg 132 69 2;
#X obj 49 8 t b b b b b b b b b b b b b;
#X obj 49 -27 bng 15 250 50 0 empty empty empty 17 7 0 10 -262144 -1
-1;
#X msg 168 70 3 3 2 2;
#X floatatom 130 172 5 0 0 0 - - -, f 5;
#N canvas 258 118 1182 676 divider 0;
#X text 31 -119 bang;
#X obj 24 -96 inlet;
#X obj 75 27 inlet;
#X floatatom 75 115 5 0 0 0 - - -, f 5;
#X obj 24 69 tgl 15 0 empty empty empty 17 7 0 10 -262144 -1 -1 1 1
;
#X obj 24 196 metro;
#X obj 75 137 expr $f1 / $f2;
#X obj 24 230 bng 15 250 50 0 empty empty empty 17 7 0 10 -262144 -1
-1;
#X floatatom 74 171 5 0 0 0 - - -, f 5;
#X floatatom 156 87 5 0 0 0 - - -, f 5;
#X obj 129 -3 t b b;
#X obj 262 108 outlet;
#X text 74 4 bpm2ms;
#X obj 350 -78 inlet;
#X obj 350 21 length;
#X floatatom 350 45 5 0 0 0 - - -, f 5;
#X obj 393 21 sum;
#X floatatom 393 46 5 0 0 0 - - -, f 5;
#X symbolatom 350 -49 17 0 0 0 - - -, f 17;
#X obj 350 -16 symbol2list;
#X floatatom 439 66 5 0 0 0 - - -, f 5;
#X floatatom 474 66 5 0 0 0 - - -, f 5;
#X floatatom 511 66 5 0 0 0 - - -, f 5;
#X floatatom 546 66 5 0 0 0 - - -, f 5;
#X floatatom 581 66 5 0 0 0 - - -, f 5;
#X floatatom 616 66 5 0 0 0 - - -, f 5;
#X floatatom 651 66 5 0 0 0 - - -, f 5;
#X floatatom 686 67 5 0 0 0 - - -, f 5;
#X obj 350 70 - 1;
#X floatatom 349 121 5 0 0 0 - - -, f 5;
#X msg 439 -16 0 0 0 0 0 0 0 0;
#X text 466 -51 Here still got a bug in customPulse;
#X obj 183 213 bng 15 250 50 0 empty empty empty 17 7 0 10 -262144
-1 -1;
#X obj 439 23 unpack f f f f f f f f;
#X floatatom 369 287 5 0 0 0 - - -, f 5;
#X obj 412 374 bng 15 250 50 0 empty empty empty 17 7 0 10 -262144
-1 -1;
#X obj 447 374 bng 15 250 50 0 empty empty empty 17 7 0 10 -262144
-1 -1;
#X obj 439 113 * 1;
#X obj 474 112 * 2;
#X obj 511 113 * 3;
#X obj 484 373 bng 15 250 50 0 empty empty empty 17 7 0 10 -262144
-1 -1;
#X obj 546 113 * 4;
#X obj 519 374 bng 15 250 50 0 empty empty empty 17 7 0 10 -262144
-1 -1;
#X obj 554 374 bng 15 250 50 0 empty empty empty 17 7 0 10 -262144
-1 -1;
#X obj 589 374 bng 15 250 50 0 empty empty empty 17 7 0 10 -262144
-1 -1;
#X obj 624 373 bng 15 250 50 0 empty empty empty 17 7 0 10 -262144
-1 -1;
#X obj 659 373 bng 15 250 50 0 empty empty empty 17 7 0 10 -262144
-1 -1;
#X obj 581 113 * 5;
#X obj 616 112 * 6;
#X obj 651 113 * 7;
#X obj 686 113 * 8;
#X obj 412 422 bng 15 250 50 0 empty empty empty 17 7 0 10 -262144
-1 -1;
#X obj 2 436 outlet;
#X obj 281 193 bng 15 250 50 0 empty empty empty 17 7 0 10 -262144
-1 -1;
#X text 99 395 When change time signature \, need to set counter 0
;
#X msg 802 55 1 0 1 1;
#X obj 802 80 length;
#X obj 802 28 sel 0;
#X obj 870 72 sum;
#X floatatom 870 95 5 0 0 0 - - -, f 5;
#X obj 802 -3 loadbang;
#X obj 846 272 t b b;
#X obj 844 232 bng 15 250 50 0 empty empty empty 17 7 0 10 -262144
-1 -1;
#X obj 905 271 t b b;
#X obj 903 231 bng 15 250 50 0 empty empty empty 17 7 0 10 -262144
-1 -1;
#X msg 947 316 4;
#X msg 915 317 5;
#X msg 881 317 6;
#X msg 842 313 9;
#X floatatom 851 413 5 0 0 0 - - -, f 5;
#X obj 851 363 expr $f1 + $f2;
#X floatatom 208 99 5 0 0 0 - - -, f 5;
#X obj 119 100 bng 15 250 50 0 empty empty empty 17 7 0 10 -262144
-1 -1;
#X text 189 40 Due to osc \, keep counting;
#X obj 208 62 counter 300000;
#X obj 280 325 counter 1e+08;
#X floatatom 280 346 5 0 0 0 - - -, f 5;
#X obj 310 241 counter;
#X obj 349 174 - 1;
#X obj 412 334 sel 1;
#X obj 447 302 sel 2;
#X obj 484 337 sel 3;
#X obj 519 303 sel 4;
#X obj 554 334 sel 5;
#X obj 589 303 sel 6;
#X obj 624 336 sel 7;
#X obj 659 303 sel 8;
#X obj 310 265 + 1;
#X connect 1 0 4 0;
#X connect 1 0 10 0;
#X connect 2 0 3 0;
#X connect 2 0 53 0;
#X connect 3 0 6 0;
#X connect 4 0 5 0;
#X connect 5 0 7 0;
#X connect 5 0 32 0;
#X connect 6 0 5 1;
#X connect 6 0 8 0;
#X connect 7 0 77 0;
#X connect 9 0 6 1;
#X connect 9 0 74 0;
#X connect 10 0 3 0;
#X connect 10 1 9 0;
#X connect 13 0 30 0;
#X connect 13 0 18 0;
#X connect 14 0 15 0;
#X connect 15 0 28 0;
#X connect 16 0 17 0;
#X connect 17 0 11 0;
#X connect 18 0 19 0;
#X connect 19 0 14 0;
#X connect 19 0 16 0;
#X connect 19 0 33 0;
#X connect 20 0 37 0;
#X connect 21 0 38 0;
#X connect 22 0 39 0;
#X connect 23 0 41 0;
#X connect 24 0 47 0;
#X connect 25 0 48 0;
#X connect 26 0 49 0;
#X connect 27 0 50 0;
#X connect 28 0 29 0;
#X connect 28 0 9 0;
#X connect 29 0 6 1;
#X connect 29 0 78 0;
#X connect 30 0 33 0;
#X connect 33 0 20 0;
#X connect 33 1 21 0;
#X connect 33 2 22 0;
#X connect 33 3 23 0;
#X connect 33 4 24 0;
#X connect 33 5 25 0;
#X connect 33 6 26 0;
#X connect 33 7 27 0;
#X connect 34 0 75 0;
#X connect 34 0 79 0;
#X connect 34 0 80 0;
#X connect 34 0 81 0;
#X connect 34 0 82 0;
#X connect 34 0 83 0;
#X connect 34 0 84 0;
#X connect 34 0 85 0;
#X connect 34 0 86 0;
#X connect 35 0 51 0;
#X connect 36 0 51 0;
#X connect 37 0 79 1;
#X connect 38 0 80 1;
#X connect 39 0 81 1;
#X connect 40 0 51 0;
#X connect 41 0 82 1;
#X connect 42 0 51 0;
#X connect 43 0 51 0;
#X connect 44 0 51 0;
#X connect 45 0 51 0;
#X connect 46 0 51 0;
#X connect 47 0 83 1;
#X connect 48 0 84 1;
#X connect 49 0 85 1;
#X connect 50 0 86 1;
#X connect 51 0 52 0;
#X connect 53 0 77 2;
#X connect 55 0 56 0;
#X connect 55 0 58 0;
#X connect 57 0 55 0;
#X connect 58 0 59 0;
#X connect 60 0 55 0;
#X connect 61 0 68 0;
#X connect 61 1 66 0;
#X connect 62 0 61 0;
#X connect 63 0 67 0;
#X connect 63 1 65 0;
#X connect 64 0 63 0;
#X connect 65 0 70 1;
#X connect 66 0 70 1;
#X connect 67 0 70 0;
#X connect 68 0 70 0;
#X connect 70 0 69 0;
#X connect 72 0 3 0;
#X connect 74 0 71 0;
#X connect 75 0 76 0;
#X connect 77 0 87 0;
#X connect 78 0 77 4;
#X connect 79 0 35 0;
#X connect 80 0 36 0;
#X connect 81 0 40 0;
#X connect 82 0 42 0;
#X connect 83 0 43 0;
#X connect 84 0 44 0;
#X connect 85 0 45 0;
#X connect 86 0 46 0;
#X connect 87 0 34 0;
#X restore -170 92 pd divider;
#X obj 235 -71 loadbang;
#X msg 235 -41 120;
#X msg 286 -41 100;
#X obj -110 388 noteout 2;
#X obj -170 246 sel 0;
#X floatatom -3 278 5 0 0 0 - - -, f 5;
#X floatatom -123 218 5 0 0 0 - - -, f 5;
#X msg -69 184 3;
#X msg -31 184 4;
#X obj -170 295 + 55;
#X obj -110 347 makenote 50 100;
#X obj -110 295 + 51;
#X obj 341 -21 line;
#X floatatom 381 -4 5 0 0 0 - - -, f 5;
#X msg 341 -41 120 \, 160 5000;
#X msg 167 98 3 2 5 4;
#N canvas 990 259 450 300 bpm2miliSeconds 0;
#X obj 82 8 inlet;
#X text 85 -18 bpm;
#X floatatom 82 116 5 0 0 0 - - -, f 5;
#X floatatom 128 25 5 0 0 0 - - -, f 5;
#X obj 82 89 expr 60000/$f1;
#X obj 82 147 outlet;
#X connect 0 0 3 0;
#X connect 0 0 4 0;
#X connect 2 0 5 0;
#X connect 4 0 2 0;
#X restore 235 29 pd bpm2miliSeconds;
#X obj 208 216 metro;
#X obj 208 252 bng 15 250 50 0 empty empty empty 17 7 0 10 -262144
-1 -1;
#X obj 208 185 tgl 15 0 empty empty empty 17 7 0 10 -262144 -1 -1 1
1;
#X floatatom 235 6 5 0 0 0 - - -, f 5;
#X text 276 8 BPM now;
#X text 112 142 How mamy beats in this bar;
#X msg 208 323 36 \, 51;
#X obj 208 383 noteout 3;
#X msg 261 98 1 2 3;
#X floatatom 662 28 5 0 0 0 - - -, f 5;
#X obj 662 5 hradio 15 1 0 8 empty empty empty 0 -8 0 10 -262144 -1
-1 2;
#X floatatom 662 137 5 0 0 0 - - -, f 5;
#X obj 662 109 expr pow(2 \, $f1);
#X obj 662 55 + 1;
#X floatatom 637 83 5 0 0 0 - - -, f 5;
#X floatatom 608 137 5 0 0 0 - - -, f 5;
#X text 657 -21 divide size;
#N canvas 663 275 450 300 sendIntByOsc 0;
#X msg 256 215 disconnect;
#X obj 40 232 udpsend;
#X obj 40 178 packOSC;
#X obj 40 24 inlet;
#X obj 255 118 inlet;
#X obj 256 189 inlet;
#X floatatom 55 55 5 0 0 0 - - -, f 5;
#X obj 132 57 inlet;
#X obj 40 113 pack 0 0;
#X msg 255 152 connect localhost 5100;
#X msg 40 152 send /timeCode \$1 \$2;
#X connect 0 0 1 0;
#X connect 2 0 1 0;
#X connect 3 0 6 0;
#X connect 3 0 8 0;
#X connect 4 0 9 0;
#X connect 5 0 0 0;
#X connect 7 0 8 1;
#X connect 8 0 10 0;
#X connect 9 0 1 0;
#X connect 10 0 2 0;
#X restore 608 327 pd sendIntByOsc;
#N canvas 176 295 450 300 receiveFromOsc 0;
#X obj 52 135 unpackOSC;
#X obj 52 194 outlet;
#X obj 162 166 route /movement;
#X floatatom 162 204 5 0 0 0 - - -, f 5;
#X obj 52 91 udpreceive 5101;
#X obj 52 166 route /signature;
#X obj 162 236 outlet;
#X obj 279 165 route /discrete;
#X floatatom 279 186 5 0 0 0 - - -, f 5;
#X obj 279 206 outlet;
#X connect 0 0 2 0;
#X connect 0 0 5 0;
#X connect 0 0 7 0;
#X connect 2 0 3 0;
#X connect 3 0 6 0;
#X connect 4 0 0 0;
#X connect 5 0 1 0;
#X connect 7 0 8 0;
#X connect 8 0 9 0;
#X restore -182 -214 pd receiveFromOsc;
#X floatatom -182 17 5 0 0 0 - - -, f 5;
#X floatatom -148 17 5 0 0 0 - - -, f 5;
#X obj 695 241 bng 15 250 50 0 empty empty empty 17 7 0 10 -262144
-1 -1;
#X obj -182 -8 unpack f f s;
#X symbolatom -113 18 18 0 0 0 - - -, f 18;
#X obj 666 215 loadbang;
#X msg 608 7 123;
#X obj 608 -27 t b b b b;
#X obj 608 -62 loadbang;
#X obj 579 -62 bng 15 250 50 0 empty empty empty 17 7 0 10 -262144
-1 -1;
#X obj 577 6 vsl 15 128 0 255 0 0 empty empty empty 0 -9 0 10 -262144
-1 -1 0 1;
#X obj 608 98 bng 15 250 50 0 empty empty empty 17 7 0 10 -262144 -1
-1;
#N canvas 0 40 1058 721 customPulse 0;
#X obj 21 19 inlet;
#X text 19 -12 toggle;
#X obj 72 -2 inlet;
#X floatatom 84 489 5 0 0 0 - - -, f 5;
#X floatatom 288 290 5 0 0 0 - - -, f 5;
#X floatatom 327 290 5 0 0 0 - - -, f 5;
#X floatatom 368 290 5 0 0 0 - - -, f 5;
#X floatatom 288 431 5 0 0 0 - - -, f 5;
#X floatatom 410 290 5 0 0 0 - - -, f 5;
#X floatatom 451 290 5 0 0 0 - - -, f 5;
#X floatatom 491 290 5 0 0 0 - - -, f 5;
#X floatatom 534 290 5 0 0 0 - - -, f 5;
#X floatatom 577 290 5 0 0 0 - - -, f 5;
#X obj 288 334 > 0;
#X obj 327 335 > 0;
#X obj 368 335 > 0;
#X obj 410 335 > 0;
#X obj 451 335 > 0;
#X obj 491 335 > 0;
#X obj 534 335 > 0;
#X obj 577 336 > 0;
#X obj 288 382 expr $f1 + $f2 + $f3 + $f4 + $f5 + $f6 + $f7 + $f8;
#X obj 84 447 random 8;
#X obj 21 165 metro 300;
#X obj 617 464 sel 0 1 2 3 4 5 6 7;
#X floatatom 617 250 5 0 0 0 - - -, f 5;
#X floatatom 656 250 5 0 0 0 - - -, f 5;
#X floatatom 697 250 5 0 0 0 - - -, f 5;
#X floatatom 739 250 5 0 0 0 - - -, f 5;
#X floatatom 780 250 5 0 0 0 - - -, f 5;
#X floatatom 820 250 5 0 0 0 - - -, f 5;
#X floatatom 863 250 5 0 0 0 - - -, f 5;
#X floatatom 906 250 5 0 0 0 - - -, f 5;
#X floatatom 906 355 5 0 0 0 - - -, f 5;
#X obj 288 75 inlet;
#X text 275 43 message of numbers;
#X obj 176 -6 inlet;
#X text 157 -26 1 for count 2 for random;
#X obj 21 216 spigot;
#X obj 84 216 spigot;
#X obj 791 102 outlet;
#X floatatom 225 11 5 0 0 0 - - -, f 5;
#X floatatom 176 142 5 0 0 0 - - -, f 5;
#X floatatom 224 142 5 0 0 0 - - -, f 5;
#X obj 224 108 == 2;
#X obj 176 108 == 1;
#X obj 602 36 counter;
#X floatatom 602 96 5 0 0 0 - - -, f 5;
#X obj 602 173 sel;
#X obj 602 201 bng 15 250 50 0 empty empty empty 17 7 0 10 -262144
-1 -1;
#X obj 688 216 bng 15 250 50 0 empty empty empty 17 7 0 10 -262144
-1 -1;
#X obj 688 -16 bng 15 250 50 0 empty empty empty 17 7 0 10 -262144
-1 -1;
#X floatatom 971 157 5 0 0 0 - - -, f 5;
#X obj 488 182 bng 15 250 50 0 empty empty empty 17 7 0 10 -262144
-1 -1;
#X obj 602 10 bng 15 250 50 0 empty empty empty 17 7 0 10 -262144 -1
-1;
#X obj 288 233 unpack f f f f f f f f;
#X obj 791 66 sel 1;
#X text 787 4 frist stroke(signal 0 won't trigger this outlet);
#X obj 334 66 sel 0;
#X msg 334 114 0 0 0 0 0 0 0 0;
#X text 337 95 reset the numbers set when close;
#X obj 906 398 outlet;
#X obj 21 51 tgl 15 0 empty empty empty 17 7 0 10 -262144 -1 -1 1 1
;
#X text 75 -28 bpm2ms;
#X text 338 138 Here got a invisible bug \, need to drag inlet to zeros
first than inlet to unpack f...;
#X obj 571 92 bng 15 250 50 0 empty empty empty 17 7 0 10 -262144 -1
-1;
#X floatatom 21 490 5 0 0 0 - - -, f 5;
#X obj 54 415 - 1;
#X obj 21 447 counter 7;
#X connect 0 0 46 2;
#X connect 0 0 62 0;
#X connect 2 0 23 1;
#X connect 4 0 13 0;
#X connect 5 0 14 0;
#X connect 6 0 15 0;
#X connect 7 0 22 1;
#X connect 7 0 67 0;
#X connect 8 0 16 0;
#X connect 9 0 17 0;
#X connect 10 0 18 0;
#X connect 11 0 19 0;
#X connect 12 0 20 0;
#X connect 13 0 21 0;
#X connect 14 0 21 1;
#X connect 15 0 21 2;
#X connect 16 0 21 3;
#X connect 17 0 21 4;
#X connect 18 0 21 5;
#X connect 19 0 21 6;
#X connect 20 0 21 7;
#X connect 21 0 7 0;
#X connect 22 0 3 0;
#X connect 22 0 24 0;
#X connect 23 0 53 0;
#X connect 24 0 25 0;
#X connect 24 1 26 0;
#X connect 24 2 27 0;
#X connect 24 3 28 0;
#X connect 24 4 29 0;
#X connect 24 5 30 0;
#X connect 24 6 31 0;
#X connect 24 7 32 0;
#X connect 25 0 33 0;
#X connect 26 0 33 0;
#X connect 27 0 33 0;
#X connect 28 0 33 0;
#X connect 29 0 33 0;
#X connect 30 0 33 0;
#X connect 31 0 33 0;
#X connect 32 0 33 0;
#X connect 33 0 52 0;
#X connect 33 0 61 0;
#X connect 34 0 59 0;
#X connect 34 0 55 0;
#X connect 34 0 65 0;
#X connect 36 0 41 0;
#X connect 36 0 44 0;
#X connect 36 0 45 0;
#X connect 38 0 68 0;
#X connect 39 0 22 0;
#X connect 44 0 39 1;
#X connect 44 0 43 0;
#X connect 45 0 38 1;
#X connect 45 0 42 0;
#X connect 46 0 47 0;
#X connect 47 0 48 0;
#X connect 48 0 49 0;
#X connect 49 0 50 0;
#X connect 49 0 39 0;
#X connect 49 0 38 0;
#X connect 50 0 51 0;
#X connect 51 0 46 3;
#X connect 51 0 40 0;
#X connect 52 0 48 1;
#X connect 53 0 54 0;
#X connect 54 0 46 0;
#X connect 55 0 4 0;
#X connect 55 0 25 0;
#X connect 55 1 5 0;
#X connect 55 1 26 0;
#X connect 55 2 6 0;
#X connect 55 2 27 0;
#X connect 55 3 8 0;
#X connect 55 3 28 0;
#X connect 55 4 9 0;
#X connect 55 4 29 0;
#X connect 55 5 10 0;
#X connect 55 5 30 0;
#X connect 55 6 11 0;
#X connect 55 6 31 0;
#X connect 55 7 12 0;
#X connect 55 7 32 0;
#X connect 56 0 40 0;
#X connect 58 0 59 0;
#X connect 59 0 55 0;
#X connect 62 0 23 0;
#X connect 62 0 58 0;
#X connect 62 0 56 0;
#X connect 65 0 46 2;
#X connect 67 0 68 4;
#X connect 68 0 66 0;
#X connect 68 0 24 0;
#X restore 49 115 pd customPulse;
#N canvas 24 267 282 386 forloop 0;
#X obj 55 46 t b b b b b b b b;
#X obj 55 164 f;
#X obj 94 164 + 1;
#X floatatom 8 181 5 0 0 0 - - -, f 5;
#X obj 55 73 tgl 15 0 empty empty empty 17 7 0 10 -262144 -1 -1 0 1
;
#X obj 87 109 metro 1000;
#X obj 55 248 sel 0;
#X floatatom 55 295 5 0 0 0 - - -, f 5;
#X obj 164 265 bng 15 250 50 0 empty empty empty 17 7 0 10 -262144
-1 -1;
#X obj 24 205 bng 15 250 50 0 empty empty empty 17 7 0 10 -262144 -1
-1;
#X obj 55 212 expr if($f1 != $f2 \, 1 \, 0);
#X obj 6 307 outlet;
#X obj 6 278 bng 15 250 50 0 empty empty empty 17 7 0 10 -262144 -1
-1;
#X obj 55 14 inlet;
#X obj 202 51 inlet;
#X obj 6 247 sel 1;
#X msg 55 112 1;
#X connect 0 0 4 0;
#X connect 1 0 3 0;
#X connect 1 0 2 0;
#X connect 1 0 9 0;
#X connect 1 0 10 0;
#X connect 2 0 1 1;
#X connect 4 0 5 0;
#X connect 4 0 16 0;
#X connect 5 0 1 0;
#X connect 6 0 8 0;
#X connect 6 0 7 0;
#X connect 8 0 4 0;
#X connect 10 0 6 0;
#X connect 10 0 15 0;
#X connect 12 0 11 0;
#X connect 13 0 0 0;
#X connect 14 0 10 1;
#X connect 15 0 12 0;
#X connect 16 0 1 0;
#X restore 725 427 pd forloop;
#X obj 725 453 bng 15 250 50 0 empty empty empty 17 7 0 10 -262144
-1 -1;
#X obj 725 344 bng 15 250 50 0 empty empty empty 17 7 0 10 -262144
-1 -1;
#X msg 782 400 10;
#X obj 725 370 t b b b;
#X obj 666 191 bng 15 250 50 0 empty empty empty 17 7 0 10 -262144
-1 -1;
#X floatatom 558 233 5 0 0 0 - - -, f 5;
#X obj 608 194 *;
#X text 520 -109 Activated when any modificaiton on time sequence;
#X msg 4 184 2;
#X obj -110 246 sel 1;
#X msg 346 65 7 3 2 5;
#X text 527 356 here used to be a patch from number to bang;
#X obj -170 201 mod 2;
#X obj -170 139 counter;
#X floatatom -90 155 5 0 0 0 - - -, f 5;
#X obj -113 120 - 1;
#X floatatom 712 -160 5 0 0 0 - - -, f 5;
#X floatatom 722 29 5 0 0 0 - - -, f 5;
#X obj -110 316 + 24;
#X obj -170 310 + 24;
#X text 355 23 comment, f 9;
#X obj 722 -135 spigot;
#X obj 755 -161 tgl 15 0 empty empty empty 17 7 0 10 -262144 -1 -1
0 1;
#X text 785 -175 use this toggler to enable movement from kinect to
control length;
#X obj -133 -132 s movementControl;
#X obj 707 -194 r movementControl;
#X obj 362 267 s tempoStable;
#X obj 217 -92 r tempoStable;
#N canvas 332 201 1108 596 melodyGiver 1;
#X obj 22 109 table major-scale;
#X obj 22 130 table minor-scale;
#X obj 21 12 loadbang;
#X obj 91 12 bng 15 250 50 0 empty empty empty 17 7 0 10 -262144 -1
-1;
#X obj 694 361 tabread major-scale;
#X obj 694 361 tabread major-scale;
#X obj 694 361 tabread major-scale;
#X floatatom 292 219 5 0 0 0 - - -, f 5;
#X floatatom 326 219 5 0 0 0 - - -, f 5;
#X floatatom 361 219 5 0 0 0 - - -, f 5;
#X obj 346 375 + 0;
#X obj 311 375 + 0;
#X obj 277 375 + 0;
#X floatatom 277 405 5 0 0 0 - - -, f 5;
#X floatatom 311 405 5 0 0 0 - - -, f 5;
#X floatatom 346 406 5 0 0 0 - - -, f 5;
#X obj 346 425 + 60;
#X obj 311 425 + 60;
#X obj 277 425 + 60;
#X obj 583 213 inlet;
#X obj 548 229 bng 15 250 50 0 empty empty empty 17 7 0 10 -262144
-1 -1;
#X obj 277 552 noteout 1;
#X obj 11 210 inlet;
#X obj 11 291 random 6;
#X obj 11 402 tabread major-scale;
#X floatatom 11 423 5 0 0 0 - - -, f 5;
#X obj 11 473 + 0;
#X floatatom 11 494 5 0 0 0 - - -, f 5;
#X obj 11 514 makenote 50 100;
#X obj 11 555 noteout 2;
#X floatatom 694 343 5 0 0 0 - - -, f 5;
#N canvas 38 23 869 571 stateMachine 0;
#X msg 648 77 \; C 0 1 2 3 4 5 \; D 0 0 2 4 \; E 0 0 1 3 4 5 \; F 0
0 2 4 \; G 0 0 1 2 3 5 \; A 0 0 2 4;
#X obj 775 40 table C;
#X obj 775 70 table D;
#X obj 775 97 table E;
#X obj 778 123 table F;
#X obj 777 151 table G;
#X obj 778 175 table A;
#X msg 424 74 2;
#X msg 457 74 3;
#X msg 390 76 1;
#X msg 357 79 0;
#X msg 501 72 6;
#X floatatom 220 150 5 0 0 0 - - -, f 5;
#X obj 220 182 sel 0 1 2 3 4 5, f 67;
#X obj 220 252 random 5;
#X floatatom 220 273 5 0 0 0 - - -, f 5;
#X obj 220 299 tabread C;
#X floatatom 220 320 5 0 0 0 - - -, f 5;
#X obj 353 254 random 5;
#X floatatom 353 275 5 0 0 0 - - -, f 5;
#X floatatom 353 322 5 0 0 0 - - -, f 5;
#X obj 486 253 random 5;
#X floatatom 486 274 5 0 0 0 - - -, f 5;
#X floatatom 486 321 5 0 0 0 - - -, f 5;
#X obj 205 390 + 0;
#X floatatom 205 411 5 0 0 0 - - -, f 5;
#X obj 126 376 bng 15 250 50 0 empty empty empty 17 7 0 10 -262144
-1 -1;
#X obj 205 447 s state;
#X obj 220 78 r state;
#X floatatom 286 272 5 0 0 0 - - -, f 5;
#X floatatom 286 319 5 0 0 0 - - -, f 5;
#X obj 353 301 tabread E;
#X obj 486 300 tabread G;
#X obj 286 298 tabread D;
#X obj 286 251 random 3;
#X floatatom 419 276 5 0 0 0 - - -, f 5;
#X floatatom 419 323 5 0 0 0 - - -, f 5;
#X obj 419 255 random 3;
#X floatatom 553 273 5 0 0 0 - - -, f 5;
#X floatatom 553 320 5 0 0 0 - - -, f 5;
#X obj 553 252 random 3;
#X obj 419 302 tabread F;
#X obj 553 299 tabread A;
#X obj 242 215 bng 15 250 50 0 empty empty empty 17 7 0 10 -262144
-1 -1;
#X obj 312 221 bng 15 250 50 0 empty empty empty 17 7 0 10 -262144
-1 -1;
#X obj 385 224 bng 15 250 50 0 empty empty empty 17 7 0 10 -262144
-1 -1;
#X obj 456 227 bng 15 250 50 0 empty empty empty 17 7 0 10 -262144
-1 -1;
#X obj 504 227 bng 15 250 50 0 empty empty empty 17 7 0 10 -262144
-1 -1;
#X obj 584 225 bng 15 250 50 0 empty empty empty 17 7 0 10 -262144
-1 -1;
#X obj 648 48 loadbang;
#X obj 279 455 outlet;
#X obj 149 326 inlet;
#X connect 7 0 12 0;
#X connect 8 0 12 0;
#X connect 9 0 12 0;
#X connect 10 0 12 0;
#X connect 11 0 12 0;
#X connect 12 0 13 0;
#X connect 13 0 14 0;
#X connect 13 0 43 0;
#X connect 13 1 34 0;
#X connect 13 1 44 0;
#X connect 13 2 18 0;
#X connect 13 2 45 0;
#X connect 13 3 37 0;
#X connect 13 3 46 0;
#X connect 13 4 21 0;
#X connect 13 4 47 0;
#X connect 13 5 40 0;
#X connect 13 5 48 0;
#X connect 14 0 15 0;
#X connect 15 0 16 0;
#X connect 16 0 17 0;
#X connect 17 0 24 1;
#X connect 18 0 19 0;
#X connect 19 0 31 0;
#X connect 20 0 24 1;
#X connect 21 0 22 0;
#X connect 22 0 32 0;
#X connect 23 0 24 1;
#X connect 24 0 25 0;
#X connect 25 0 27 0;
#X connect 25 0 50 0;
#X connect 26 0 24 0;
#X connect 28 0 12 0;
#X connect 29 0 33 0;
#X connect 30 0 24 1;
#X connect 31 0 20 0;
#X connect 32 0 23 0;
#X connect 33 0 30 0;
#X connect 34 0 29 0;
#X connect 35 0 41 0;
#X connect 36 0 24 1;
#X connect 37 0 35 0;
#X connect 38 0 42 0;
#X connect 39 0 24 1;
#X connect 40 0 38 0;
#X connect 41 0 36 0;
#X connect 42 0 39 0;
#X connect 49 0 0 0;
#X connect 51 0 24 0;
#X restore 583 304 pd stateMachine;
#X obj 866 512 hradio 15 1 0 8 empty empty empty 0 -8 0 10 -262144
-1 -1 7;
#X floatatom 866 532 5 0 0 0 - - -, f 5;
#X obj 675 459 loadbang;
#X obj 743 458 bng 15 250 50 0 empty empty empty 17 7 0 10 -262144
-1 -1;
#X obj 670 522 table happyScale;
#X msg 675 490 \; happyScale 0 0 1 2 3 4 5;
#N canvas 350 258 1015 663 overScale 0;
#X obj 2 25 loadbang;
#X obj 67 24 bng 15 250 50 0 empty empty empty 17 7 0 10 -262144 -1
-1;
#X obj 2 80 table 2OcScl;
#X floatatom 473 219 5 0 0 0 - - -, f 5;
#X obj 593 234 tabread 2OcScl;
#X floatatom 593 255 5 0 0 0 - - -, f 5;
#X obj 473 257 mod 2;
#X floatatom 473 278 5 0 0 0 - - -, f 5;
#X floatatom 335 340 5 0 0 0 - - -, f 5;
#X obj 248 351 spigot;
#X obj 248 418 random 3;
#X text 691 333 scale from ofx;
#X obj 765 355 hradio 15 1 0 7 empty empty empty 0 -8 0 10 -262144
-1 -1 1;
#X floatatom 705 395 5 0 0 0 - - -, f 5;
#X obj 345 497 mod 2;
#X floatatom 345 518 5 0 0 0 - - -, f 5;
#X floatatom 345 559 5 0 0 0 - - -, f 5;
#X text 48 393 test if a D F A;
#X obj 248 489 +;
#X floatatom 248 510 5 0 0 0 - - -, f 5;
#X obj 345 538 == 1;
#X obj 248 574 +;
#X floatatom 248 595 5 0 0 0 - - -, f 5;
#X obj 248 440 * 2;
#X floatatom 198 434 5 0 0 0 - - -, f 5;
#X obj 440 354 spigot;
#X obj 440 418 random 6;
#X obj 440 467 +;
#X obj 705 426 s scale-num;
#X obj 345 473 r scale-num;
#X obj 263 468 r scale-num;
#X obj 455 442 r scale-num;
#X floatatom 440 508 5 0 0 0 - - -, f 5;
#X obj 281 324 == 1;
#X obj 473 324 == 0;
#X obj 280 382 bng 15 250 50 0 empty empty empty 17 7 0 10 -262144
-1 -1;
#X obj 440 575 s nextChord;
#X obj 248 621 s nextChord;
#X obj 518 105 r nextChord;
#X floatatom 518 126 5 0 0 0 - - -, f 5;
#X obj 473 162 +;
#X msg 473 127 0;
#X floatatom 473 183 5 0 0 0 - - -, f 5;
#X obj 705 359 inlet;
#X obj 248 80 inlet;
#X obj 248 107 bng 15 250 50 0 empty empty empty 17 7 0 10 -262144
-1 -1;
#X obj 457 385 bng 15 250 50 0 empty empty empty 17 7 0 10 -262144
-1 -1;
#X obj 648 72 loadbang;
#X obj 713 73 bng 15 250 50 0 empty empty empty 17 7 0 10 -262144 -1
-1;
#X obj 648 111 random 6;
#X obj 648 144 + 0;
#X obj 714 112 r scale-num;
#X text 657 34 frist chord;
#X obj 633 352 loadbang;
#X msg 633 373 5;
#X obj 531 265 outlet;
#X msg 2 46 \; 2OcScl 0 0 2 4 5 7 9 12 14 16 17 19 21 24 26 28 29 31
33;
#X connect 0 0 56 0;
#X connect 1 0 56 0;
#X connect 3 0 4 0;
#X connect 3 0 6 0;
#X connect 3 0 55 0;
#X connect 4 0 5 0;
#X connect 6 0 7 0;
#X connect 7 0 33 0;
#X connect 7 0 34 0;
#X connect 9 0 35 0;
#X connect 9 0 10 0;
#X connect 10 0 23 0;
#X connect 10 0 24 0;
#X connect 12 0 13 0;
#X connect 13 0 28 0;
#X connect 14 0 15 0;
#X connect 15 0 20 0;
#X connect 16 0 21 1;
#X connect 18 0 19 0;
#X connect 19 0 21 0;
#X connect 20 0 16 0;
#X connect 21 0 22 0;
#X connect 22 0 37 0;
#X connect 23 0 18 0;
#X connect 25 0 26 0;
#X connect 25 0 46 0;
#X connect 26 0 27 0;
#X connect 27 0 32 0;
#X connect 29 0 14 0;
#X connect 30 0 18 1;
#X connect 31 0 27 1;
#X connect 32 0 36 0;
#X connect 33 0 8 0;
#X connect 33 0 9 1;
#X connect 34 0 25 1;
#X connect 38 0 39 0;
#X connect 39 0 40 1;
#X connect 40 0 42 0;
#X connect 41 0 40 0;
#X connect 42 0 3 0;
#X connect 43 0 13 0;
#X connect 44 0 45 0;
#X connect 45 0 41 0;
#X connect 45 0 25 0;
#X connect 45 0 9 0;
#X connect 47 0 49 0;
#X connect 48 0 49 0;
#X connect 49 0 50 0;
#X connect 50 0 3 0;
#X connect 51 0 50 1;
#X connect 53 0 54 0;
#X connect 54 0 13 0;
#X restore 694 285 pd overScale;
#X obj 583 279 spigot;
#X obj 616 259 tgl 15 0 empty empty empty 17 7 0 10 -262144 -1 -1 1
1;
#X obj 694 261 spigot;
#X obj 727 241 tgl 15 0 empty empty empty 17 7 0 10 -262144 -1 -1 0
1;
#X obj 632 225 loadbang;
#X obj 871 362 tabread 2OcScl;
#X floatatom 871 301 5 0 0 0 - - -, f 5;
#X floatatom 871 383 5 0 0 0 - - -, f 5;
#X obj 763 242 inlet;
#X floatatom 803 258 5 0 0 0 - - -, f 5;
#X msg 430 410 48;
#X obj 464 32 symbol major-scale;
#X obj 587 32 symbol minor-scale;
#X msg 464 98 set \$1;
#X obj 464 7 bng 15 250 50 0 empty empty empty 17 7 0 10 -262144 -1
-1;
#X obj 587 7 bng 15 250 50 0 empty empty empty 17 7 0 10 -262144 -1
-1;
#X obj 464 131 s tonality;
#X obj 33 364 r tonality;
#X obj 311 270 + 0;
#X obj 346 270 + 0;
#X obj 277 270 + 0;
#X obj 434 22 bng 15 250 50 0 empty empty empty 17 7 0 10 -262144 -1
-1;
#X msg 473 411 60;
#X obj 277 520 makenote 60 250;
#X obj 160 231 noise~;
#X floatatom 161 272 5 0 0 0 - - -, f 5;
#X obj 234 458 - 12;
#X obj 202 460 + 12;
#X obj 163 464 + 19;
#X obj 22 150 table blue-scale;
#X obj 709 7 bng 15 250 50 0 empty empty empty 17 7 0 10 -262144 -1
-1;
#X obj 709 32 symbol blue-scale;
#X msg 390 521 4;
#X msg 431 521 1;
#X obj 311 467 randomDelayer;
#X obj 277 447 randomDelayer;
#X obj 345 489 randomDelayer;
#X msg 22 47 \; major-scale 0 0 2 4 5 7 9 11 \; minor-scale 0 0 2 3
5 7 8 10 \; blue-scale 0 0 3 5 6 7 9 12 \; fear-scale 0 0 2 3 5 6 8
10;
#X obj 23 169 table fear-scale;
#X obj 820 7 bng 15 250 50 0 empty empty empty 17 7 0 10 -262144 -1
-1;
#X obj 820 32 symbol fear-scale;
#X obj 292 72 unpack f f f;
#X floatatom 292 102 5 0 0 0 - - -, f 5;
#X floatatom 326 102 5 0 0 0 - - -, f 5;
#X floatatom 361 103 5 0 0 0 - - -, f 5;
#X obj 292 135 tabread major-scale;
#X obj 326 157 tabread major-scale;
#X obj 361 179 tabread major-scale;
#X obj 292 17 loadbang;
#X msg 292 48 0 2 4;
#X connect 2 0 76 0;
#X connect 3 0 76 0;
#X connect 4 0 10 1;
#X connect 4 0 11 1;
#X connect 4 0 12 1;
#X connect 7 0 59 1;
#X connect 8 0 57 1;
#X connect 9 0 58 1;
#X connect 10 0 15 0;
#X connect 11 0 14 0;
#X connect 12 0 13 0;
#X connect 13 0 18 0;
#X connect 14 0 17 0;
#X connect 15 0 16 0;
#X connect 16 0 75 0;
#X connect 17 0 73 0;
#X connect 18 0 26 1;
#X connect 18 0 65 0;
#X connect 18 0 66 0;
#X connect 18 0 67 0;
#X connect 18 0 74 0;
#X connect 19 0 20 0;
#X connect 19 0 39 0;
#X connect 19 0 41 0;
#X connect 19 0 59 0;
#X connect 19 0 57 0;
#X connect 19 0 58 0;
#X connect 22 0 23 0;
#X connect 23 0 24 0;
#X connect 24 0 25 0;
#X connect 25 0 26 0;
#X connect 26 0 27 0;
#X connect 27 0 28 0;
#X connect 28 0 29 0;
#X connect 28 1 29 1;
#X connect 30 0 4 0;
#X connect 31 0 30 0;
#X connect 32 0 33 0;
#X connect 34 0 37 0;
#X connect 35 0 37 0;
#X connect 38 0 45 0;
#X connect 39 0 31 0;
#X connect 40 0 39 1;
#X connect 41 0 38 0;
#X connect 42 0 41 1;
#X connect 43 0 40 0;
#X connect 44 0 46 0;
#X connect 44 0 10 1;
#X connect 44 0 11 1;
#X connect 44 0 12 1;
#X connect 45 0 44 0;
#X connect 47 0 48 0;
#X connect 47 0 38 1;
#X connect 49 0 16 1;
#X connect 49 0 17 1;
#X connect 49 0 18 1;
#X connect 50 0 52 0;
#X connect 51 0 52 0;
#X connect 52 0 55 0;
#X connect 52 0 84 0;
#X connect 52 0 85 0;
#X connect 52 0 86 0;
#X connect 53 0 50 0;
#X connect 53 0 60 0;
#X connect 54 0 51 0;
#X connect 54 0 60 0;
#X connect 56 0 24 0;
#X connect 57 0 11 0;
#X connect 58 0 10 0;
#X connect 59 0 12 0;
#X connect 60 0 88 0;
#X connect 61 0 18 1;
#X connect 61 0 17 1;
#X connect 61 0 16 1;
#X connect 62 0 21 0;
#X connect 62 1 21 1;
#X connect 65 0 62 0;
#X connect 66 0 62 0;
#X connect 67 0 62 0;
#X connect 69 0 60 0;
#X connect 69 0 70 0;
#X connect 70 0 52 0;
#X connect 71 0 21 2;
#X connect 72 0 21 2;
#X connect 73 0 62 0;
#X connect 74 0 62 0;
#X connect 75 0 62 0;
#X connect 78 0 60 0;
#X connect 78 0 79 0;
#X connect 79 0 52 0;
#X connect 80 0 81 0;
#X connect 80 1 82 0;
#X connect 80 2 83 0;
#X connect 81 0 84 0;
#X connect 82 0 85 0;
#X connect 83 0 86 0;
#X connect 84 0 7 0;
#X connect 85 0 8 0;
#X connect 86 0 9 0;
#X connect 87 0 88 0;
#X connect 88 0 80 0;
#X restore 172 464 pd melodyGiver;
#X obj 68 201 s melodyPulse;
#X obj 253 433 r melodyPulse;
#X obj -62 113 s divideBeat;
#X obj 172 433 r divideBeat;
#X obj 608 217 / 256;
#X obj 208 352 makenote 40 60;
#X floatatom -38 -170 5 0 0 0 - - -, f 5;
#X obj -17 -130 s discreteControl;
#X obj 346 431 r discreteControl;
#X floatatom -116 -168 5 0 0 0 - - -, f 5;
#X msg 363 -87 360;
#X msg 523 83 255;
#X obj 523 57 loadbang;
#X obj 794 13 loadbang;
#X msg 248 64 2 2 3;
#X obj 208 288 randomDelayer;
#X msg 282 244 4;
#X msg 324 101 1 1 1 1;
#X msg 393 98 2 2 2 2;
#X msg 335 127 2 2 1 1 1;
#X msg 338 155 3 3 3 3;
#X obj 87 -65 randomDelayer;
#X msg 162 -94 100;
#X obj 87 -95 bng 15 250 50 0 empty empty empty 17 7 0 10 -262144 -1
-1;
#X obj -71 -41 list2symbol;
#X msg -39 -81 1 0 1 1;
#X connect 0 0 1 0;
#X connect 0 0 21 0;
#X connect 0 0 25 0;
#X connect 0 0 27 0;
#X connect 1 0 5 0;
#X connect 2 0 5 0;
#X connect 3 0 5 0;
#X connect 5 0 4 0;
#X connect 6 0 64 0;
#X connect 7 0 64 1;
#X connect 7 0 15 1;
#X connect 8 0 64 2;
#X connect 9 0 0 0;
#X connect 9 0 2 0;
#X connect 9 0 3 0;
#X connect 9 0 95 0;
#X connect 10 0 64 2;
#X connect 11 0 6 0;
#X connect 11 1 15 0;
#X connect 11 2 7 0;
#X connect 11 4 8 0;
#X connect 11 9 13 0;
#X connect 11 12 35 0;
#X connect 12 0 11 0;
#X connect 13 0 64 3;
#X connect 15 0 79 0;
#X connect 15 0 97 0;
#X connect 15 1 81 0;
#X connect 16 0 17 0;
#X connect 17 0 36 0;
#X connect 18 0 36 0;
#X connect 20 0 25 0;
#X connect 23 0 78 1;
#X connect 24 0 78 1;
#X connect 25 0 85 0;
#X connect 26 0 19 0;
#X connect 27 0 84 0;
#X connect 28 0 29 0;
#X connect 28 0 36 0;
#X connect 30 0 28 0;
#X connect 31 0 64 3;
#X connect 32 0 7 0;
#X connect 32 0 33 1;
#X connect 33 0 34 0;
#X connect 34 0 92 0;
#X connect 34 0 110 0;
#X connect 35 0 33 0;
#X connect 36 0 32 0;
#X connect 39 0 100 0;
#X connect 41 0 64 3;
#X connect 42 0 46 0;
#X connect 43 0 42 0;
#X connect 44 0 72 1;
#X connect 45 0 44 0;
#X connect 46 0 45 0;
#X connect 46 0 47 0;
#X connect 47 0 50 1;
#X connect 47 0 63 0;
#X connect 48 0 72 0;
#X connect 51 0 55 0;
#X connect 51 1 90 0;
#X connect 51 1 104 0;
#X connect 51 2 101 0;
#X connect 51 2 102 0;
#X connect 54 0 50 3;
#X connect 55 0 52 0;
#X connect 55 1 53 0;
#X connect 55 2 56 0;
#X connect 56 0 15 2;
#X connect 57 0 50 2;
#X connect 58 0 48 0;
#X connect 59 0 58 0;
#X connect 59 3 43 0;
#X connect 60 0 59 0;
#X connect 61 0 59 0;
#X connect 62 0 48 0;
#X connect 63 0 48 0;
#X connect 64 0 9 0;
#X connect 64 1 14 0;
#X connect 65 0 66 0;
#X connect 67 0 69 0;
#X connect 68 0 65 1;
#X connect 69 0 65 0;
#X connect 69 2 68 0;
#X connect 70 0 50 2;
#X connect 72 0 99 0;
#X connect 74 0 78 1;
#X connect 75 0 27 0;
#X connect 76 0 64 3;
#X connect 78 0 22 0;
#X connect 78 0 20 0;
#X connect 78 0 75 0;
#X connect 79 0 80 0;
#X connect 79 0 78 0;
#X connect 81 0 79 4;
#X connect 82 0 87 0;
#X connect 83 0 46 0;
#X connect 84 0 26 0;
#X connect 85 0 26 0;
#X connect 87 0 83 0;
#X connect 88 0 87 1;
#X connect 91 0 82 0;
#X connect 93 0 36 0;
#X connect 96 0 94 1;
#X connect 98 0 94 0;
#X connect 99 0 50 0;
#X connect 99 0 71 0;
#X connect 100 0 40 0;
#X connect 100 1 40 1;
#X connect 103 0 94 2;
#X connect 105 0 36 0;
#X connect 106 0 48 0;
#X connect 107 0 106 0;
#X connect 108 0 83 0;
#X connect 109 0 64 3;
#X connect 110 0 39 0;
#X connect 111 0 110 1;
#X connect 112 0 64 3;
#X connect 113 0 64 3;
#X connect 114 0 64 3;
#X connect 115 0 64 3;
#X connect 116 0 12 0;
#X connect 117 0 116 1;
#X connect 118 0 116 0;
#X connect 118 0 12 0;
#X connect 119 0 56 0;
#X connect 120 0 119 0;
