#N canvas 644 158 642 509 10;
#X declare -lib mrpeach;
#X obj 43 17 adc~;
#X obj 17 228 sigmund~ -hop 1024 pitch env;
#X obj 279 196 osc~ 440;
#X obj 31 132 dac~;
#N canvas 0 22 450 278 (subpatch) 0;
#X array array1 100 float 5;
#A 0 0 0 0 0 0 0 0 0 0 0 0 0 0 0 0 0 0 0 0 0 0 0 0 0 0 0 0 0 0 0 0
0 0 0 0 0 0 0 0 0 0 0 0 0 0 0 0 0 0 0 0 0 0 0 0 0 0 0 0 0 0 0 0 0 0
0 0 0 0 0 0 0 0 0 0 0 0 0 0 0 0 0 0 0 0 0 0 0 0 0 0 0 0 0 0 0 0 0 0
0;
#X coords 0 1 99 -1 200 140 1;
#X restore 328 30 graph;
#X obj 195 116 tabwrite~ array1;
#X obj 117 73 *~ 100;
#X obj 53 378 print;
#X msg 425 217 connect localhost 5000;
#X msg 503 383 disconnect;
#X obj 163 289 pack 0 0;
#X msg 332 331 send /Data \$1 \$2;
#X obj 270 243 import mrpeach;
#X obj 377 420 udpsend;
#X obj 363 380 packOSC;
#X obj 138 150 dac~;
#X msg 118 338 send /test/pitch \$1;
#X connect 0 0 3 0;
#X connect 0 0 6 0;
#X connect 0 1 3 1;
#X connect 1 0 7 0;
#X connect 1 0 16 0;
#X connect 1 0 10 0;
#X connect 1 1 7 0;
#X connect 1 1 10 1;
#X connect 6 0 5 0;
#X connect 6 0 1 0;
#X connect 8 0 13 0;
#X connect 9 0 13 0;
#X connect 10 0 11 0;
#X connect 11 0 14 0;
#X connect 14 0 13 0;
