#N canvas 704 172 450 300 10;
#X obj 94 186 readsf~ 2;
#X obj 92 250 dac~;
#X obj 7 38 osc~ 440;
#X obj 94 94 symbol;
#X msg 328 149 au.wav;
#X msg 328 128 set \$1;
#X obj 94 50 bng 15 250 50 0 empty empty empty 17 7 0 10 -262144 -1
-1;
#X msg 262 80 \; pd dsp \$1;
#X obj 262 54 tgl 15 0 empty empty empty 17 7 0 10 -262144 -1 -1 0
1;
#X msg 186 160 open SD.wav \, 1;
#X obj 94 18 inlet, f 6;
#X obj 144 18 inlet;
#X msg 94 129 open \$1 \, 1;
#X obj 262 18 inlet;
#X obj 364 28 inlet;
#X msg 364 49 stop;
#X connect 0 0 1 0;
#X connect 0 0 1 1;
#X connect 3 0 5 0;
#X connect 3 0 12 0;
#X connect 5 0 4 0;
#X connect 6 0 3 0;
#X connect 8 0 7 0;
#X connect 9 0 0 0;
#X connect 10 0 6 0;
#X connect 11 0 3 1;
#X connect 12 0 0 0;
#X connect 13 0 8 0;
#X connect 14 0 15 0;
#X connect 15 0 0 0;
