#N canvas 158 161 1128 600 10;
#X obj 31 28 inlet;
#X text 29 -2 toggle;
#X obj 82 28 inlet;
#X text 85 -3 bpm;
#X floatatom 142 86 5 0 0 0 - - -;
#X floatatom 143 45 5 0 0 0 - - -;
#X obj 82 69 expr 60000/$f1;
#X floatatom 114 499 5 0 0 0 - - -;
#X floatatom 298 300 5 0 0 0 - - -;
#X floatatom 337 300 5 0 0 0 - - -;
#X floatatom 378 300 5 0 0 0 - - -;
#X floatatom 298 441 5 0 0 0 - - -;
#X floatatom 420 300 5 0 0 0 - - -;
#X floatatom 461 300 5 0 0 0 - - -;
#X floatatom 501 300 5 0 0 0 - - -;
#X floatatom 544 300 5 0 0 0 - - -;
#X floatatom 587 300 5 0 0 0 - - -;
#X obj 298 344 > 0;
#X obj 337 345 > 0;
#X obj 378 345 > 0;
#X obj 420 345 > 0;
#X obj 461 345 > 0;
#X obj 501 345 > 0;
#X obj 544 345 > 0;
#X obj 587 346 > 0;
#X obj 298 392 expr $f1 + $f2 + $f3 + $f4 + $f5 + $f6 + $f7 + $f8;
#X obj 114 457 random 8;
#X obj 31 115 metro 300;
#X msg 299 171 2 4 3 5 7 8;
#X obj 628 474 sel 0 1 2 3 4 5 6 7;
#X floatatom 627 260 5 0 0 0 - - -;
#X floatatom 666 260 5 0 0 0 - - -;
#X floatatom 707 260 5 0 0 0 - - -;
#X floatatom 749 260 5 0 0 0 - - -;
#X floatatom 790 260 5 0 0 0 - - -;
#X floatatom 830 260 5 0 0 0 - - -;
#X floatatom 873 260 5 0 0 0 - - -;
#X floatatom 916 260 5 0 0 0 - - -;
#X floatatom 916 365 5 0 0 0 - - -;
#X obj 31 457 count 8;
#X floatatom 31 499 5 0 0 0 - - -;
#X obj 299 141 inlet;
#X text 295 13 message of numbers;
#X obj 190 57 inlet;
#X text 177 4 1 for count 2 for random;
#X obj 31 226 spigot;
#X obj 79 226 spigot;
#X obj 800 46 outlet;
#X floatatom 233 74 5 0 0 0 - - -;
#X floatatom 190 173 5 0 0 0 - - -;
#X floatatom 238 173 5 0 0 0 - - -;
#X obj 238 99 == 2;
#X obj 190 99 == 1;
#X obj 612 46 counter;
#X floatatom 612 106 5 0 0 0 - - -;
#X obj 612 183 sel;
#X obj 612 208 bng 15 250 50 0 empty empty empty 17 7 0 10 -262144
-1 -1;
#X obj 698 223 bng 15 250 50 0 empty empty empty 17 7 0 10 -262144
-1 -1;
#X obj 698 -6 bng 15 250 50 0 empty empty empty 17 7 0 10 -262144 -1
-1;
#X floatatom 981 167 5 0 0 0 - - -;
#X obj 428 133 bng 15 250 50 0 empty empty empty 17 7 0 10 -262144
-1 -1;
#X obj 612 20 bng 15 250 50 0 empty empty empty 17 7 0 10 -262144 -1
-1;
#X obj 298 243 unpack f f f f f f f f;
#X connect 0 0 27 0;
#X connect 0 0 53 2;
#X connect 0 0 47 0;
#X connect 2 0 5 0;
#X connect 2 0 6 0;
#X connect 6 0 4 0;
#X connect 6 0 27 1;
#X connect 8 0 17 0;
#X connect 9 0 18 0;
#X connect 10 0 19 0;
#X connect 11 0 26 1;
#X connect 11 0 39 1;
#X connect 12 0 20 0;
#X connect 13 0 21 0;
#X connect 14 0 22 0;
#X connect 15 0 23 0;
#X connect 16 0 24 0;
#X connect 17 0 25 0;
#X connect 18 0 25 1;
#X connect 19 0 25 2;
#X connect 20 0 25 3;
#X connect 21 0 25 4;
#X connect 22 0 25 5;
#X connect 23 0 25 6;
#X connect 24 0 25 7;
#X connect 25 0 11 0;
#X connect 26 0 7 0;
#X connect 26 0 29 0;
#X connect 27 0 60 0;
#X connect 28 0 62 0;
#X connect 29 0 30 0;
#X connect 29 1 31 0;
#X connect 29 2 32 0;
#X connect 29 3 33 0;
#X connect 29 4 34 0;
#X connect 29 5 35 0;
#X connect 29 6 36 0;
#X connect 29 7 37 0;
#X connect 30 0 38 0;
#X connect 31 0 38 0;
#X connect 32 0 38 0;
#X connect 33 0 38 0;
#X connect 34 0 38 0;
#X connect 35 0 38 0;
#X connect 36 0 38 0;
#X connect 37 0 38 0;
#X connect 38 0 59 0;
#X connect 39 0 40 0;
#X connect 39 0 29 0;
#X connect 41 0 62 0;
#X connect 43 0 48 0;
#X connect 43 0 51 0;
#X connect 43 0 52 0;
#X connect 45 0 39 0;
#X connect 46 0 26 0;
#X connect 51 0 46 1;
#X connect 51 0 50 0;
#X connect 52 0 45 1;
#X connect 52 0 49 0;
#X connect 53 0 54 0;
#X connect 54 0 55 0;
#X connect 55 0 56 0;
#X connect 56 0 57 0;
#X connect 56 0 46 0;
#X connect 56 0 45 0;
#X connect 57 0 58 0;
#X connect 58 0 53 3;
#X connect 58 0 47 0;
#X connect 59 0 55 1;
#X connect 60 0 61 0;
#X connect 61 0 53 0;
#X connect 62 0 8 0;
#X connect 62 0 30 0;
#X connect 62 1 9 0;
#X connect 62 1 31 0;
#X connect 62 2 10 0;
#X connect 62 2 32 0;
#X connect 62 3 12 0;
#X connect 62 3 33 0;
#X connect 62 4 13 0;
#X connect 62 4 34 0;
#X connect 62 5 14 0;
#X connect 62 5 35 0;
#X connect 62 6 15 0;
#X connect 62 6 36 0;
#X connect 62 7 16 0;
#X connect 62 7 37 0;
