#N canvas 158 161 1128 600 10;
#X obj 31 29 inlet;
#X text 29 -2 toggle;
#X obj 82 8 inlet;
#X floatatom 94 499 5 0 0 0 - - -;
#X floatatom 298 300 5 0 0 0 - - -;
#X floatatom 337 300 5 0 0 0 - - -;
#X floatatom 378 300 5 0 0 0 - - -;
#X floatatom 298 441 5 0 0 0 - - -;
#X floatatom 420 300 5 0 0 0 - - -;
#X floatatom 461 300 5 0 0 0 - - -;
#X floatatom 501 300 5 0 0 0 - - -;
#X floatatom 544 300 5 0 0 0 - - -;
#X floatatom 587 300 5 0 0 0 - - -;
#X obj 298 344 > 0;
#X obj 337 345 > 0;
#X obj 378 345 > 0;
#X obj 420 345 > 0;
#X obj 461 345 > 0;
#X obj 501 345 > 0;
#X obj 544 345 > 0;
#X obj 587 346 > 0;
#X obj 298 392 expr $f1 + $f2 + $f3 + $f4 + $f5 + $f6 + $f7 + $f8;
#X obj 94 457 random 8;
#X obj 31 175 metro 300;
#X obj 627 474 sel 0 1 2 3 4 5 6 7;
#X floatatom 627 260 5 0 0 0 - - -;
#X floatatom 666 260 5 0 0 0 - - -;
#X floatatom 707 260 5 0 0 0 - - -;
#X floatatom 749 260 5 0 0 0 - - -;
#X floatatom 790 260 5 0 0 0 - - -;
#X floatatom 830 260 5 0 0 0 - - -;
#X floatatom 873 260 5 0 0 0 - - -;
#X floatatom 916 260 5 0 0 0 - - -;
#X floatatom 916 365 5 0 0 0 - - -;
#X obj 31 457 count 8;
#X floatatom 31 499 5 0 0 0 - - -;
#X obj 298 85 inlet;
#X text 285 53 message of numbers;
#X obj 186 4 inlet;
#X text 167 -16 1 for count 2 for random;
#X obj 31 226 spigot;
#X obj 94 226 spigot;
#X obj 801 112 outlet;
#X floatatom 235 21 5 0 0 0 - - -;
#X floatatom 186 152 5 0 0 0 - - -;
#X floatatom 234 152 5 0 0 0 - - -;
#X obj 234 118 == 2;
#X obj 186 118 == 1;
#X obj 612 46 counter;
#X floatatom 612 106 5 0 0 0 - - -;
#X obj 612 183 sel;
#X obj 612 211 bng 15 250 50 0 empty empty empty 17 7 0 10 -262144
-1 -1;
#X obj 698 226 bng 15 250 50 0 empty empty empty 17 7 0 10 -262144
-1 -1;
#X obj 698 -6 bng 15 250 50 0 empty empty empty 17 7 0 10 -262144 -1
-1;
#X floatatom 981 167 5 0 0 0 - - -;
#X obj 498 192 bng 15 250 50 0 empty empty empty 17 7 0 10 -262144
-1 -1;
#X obj 612 20 bng 15 250 50 0 empty empty empty 17 7 0 10 -262144 -1
-1;
#X obj 298 243 unpack f f f f f f f f;
#X obj 801 76 sel 1;
#X text 797 14 frist stroke(signal 0 won't trigger this outlet);
#X obj 344 76 sel 0;
#X msg 344 124 0 0 0 0 0 0 0 0;
#X text 347 105 reset the numbers set when close;
#X obj 916 408 outlet;
#X obj 31 61 tgl 15 0 empty empty empty 17 7 0 10 -262144 -1 -1 0 1
;
#X text 85 -18 bpm2ms;
#X text 348 148 Here got a invisible bug \, need to drag inlet to zeros
first than inlet to unpack f...;
#X obj 581 102 bng 15 250 50 0 empty empty empty 17 7 0 10 -262144
-1 -1;
#X connect 0 0 48 2;
#X connect 0 0 64 0;
#X connect 2 0 23 1;
#X connect 4 0 13 0;
#X connect 5 0 14 0;
#X connect 6 0 15 0;
#X connect 7 0 22 1;
#X connect 7 0 34 1;
#X connect 8 0 16 0;
#X connect 9 0 17 0;
#X connect 10 0 18 0;
#X connect 11 0 19 0;
#X connect 12 0 20 0;
#X connect 13 0 21 0;
#X connect 14 0 21 1;
#X connect 15 0 21 2;
#X connect 16 0 21 3;
#X connect 17 0 21 4;
#X connect 18 0 21 5;
#X connect 19 0 21 6;
#X connect 20 0 21 7;
#X connect 21 0 7 0;
#X connect 22 0 3 0;
#X connect 22 0 24 0;
#X connect 23 0 55 0;
#X connect 24 0 25 0;
#X connect 24 1 26 0;
#X connect 24 2 27 0;
#X connect 24 3 28 0;
#X connect 24 4 29 0;
#X connect 24 5 30 0;
#X connect 24 6 31 0;
#X connect 24 7 32 0;
#X connect 25 0 33 0;
#X connect 26 0 33 0;
#X connect 27 0 33 0;
#X connect 28 0 33 0;
#X connect 29 0 33 0;
#X connect 30 0 33 0;
#X connect 31 0 33 0;
#X connect 32 0 33 0;
#X connect 33 0 54 0;
#X connect 33 0 63 0;
#X connect 34 0 35 0;
#X connect 34 0 24 0;
#X connect 36 0 61 0;
#X connect 36 0 57 0;
#X connect 36 0 67 0;
#X connect 38 0 43 0;
#X connect 38 0 46 0;
#X connect 38 0 47 0;
#X connect 40 0 34 0;
#X connect 41 0 22 0;
#X connect 46 0 41 1;
#X connect 46 0 45 0;
#X connect 47 0 40 1;
#X connect 47 0 44 0;
#X connect 48 0 49 0;
#X connect 49 0 50 0;
#X connect 50 0 51 0;
#X connect 51 0 52 0;
#X connect 51 0 41 0;
#X connect 51 0 40 0;
#X connect 52 0 53 0;
#X connect 53 0 48 3;
#X connect 53 0 42 0;
#X connect 54 0 50 1;
#X connect 55 0 56 0;
#X connect 56 0 48 0;
#X connect 57 0 4 0;
#X connect 57 0 25 0;
#X connect 57 1 5 0;
#X connect 57 1 26 0;
#X connect 57 2 6 0;
#X connect 57 2 27 0;
#X connect 57 3 8 0;
#X connect 57 3 28 0;
#X connect 57 4 9 0;
#X connect 57 4 29 0;
#X connect 57 5 10 0;
#X connect 57 5 30 0;
#X connect 57 6 11 0;
#X connect 57 6 31 0;
#X connect 57 7 12 0;
#X connect 57 7 32 0;
#X connect 58 0 42 0;
#X connect 60 0 61 0;
#X connect 61 0 57 0;
#X connect 64 0 23 0;
#X connect 64 0 60 0;
#X connect 64 0 58 0;
#X connect 67 0 48 2;
