#N canvas 835 176 717 542 10;
#X obj 191 24 inlet;
#X obj 63 64 tgl 15 0 empty empty empty 17 7 0 10 -262144 -1 -1 0 1
;
#X obj 63 84 metro 0.0001;
#X obj 63 115 counter;
#X floatatom 63 136 5 0 0 0 - - -, f 5;
#X obj 151 151 sel;
#X obj 151 49 bng 15 250 50 0 empty empty empty 17 7 0 10 -262144 -1
-1;
#X obj 191 79 - 1;
#X floatatom 191 100 5 0 0 0 - - -, f 5;
#X msg 248 24 11;
#X floatatom 248 44 5 0 0 0 - - -, f 5;
#X obj 137 267 tabread;
#X obj 63 320 pack f f;
#X floatatom 137 288 5 0 0 0 - - -, f 5;
#X obj 336 30 inlet;
#X obj 397 12 bng 15 250 50 0 empty empty empty 17 7 0 10 -262144 -1
-1;
#X msg 336 91 set \$1;
#X obj 63 351 route 0 1 2 3 4 5 6 7 8 9, f 67;
#X msg 498 368 tempo 1 sec;
#X obj 2 368 inlet;
#X obj 63 40 bng 15 250 50 0 empty empty empty 17 7 0 10 -262144 -1
-1;
#X obj 36 384 delay;
#X obj 76 384 delay;
#X obj 116 384 delay;
#X obj 156 384 delay;
#X obj 196 384 delay;
#X obj 236 384 delay;
#X obj 276 384 delay;
#X obj 316 384 delay;
#X obj 356 384 delay;
#X obj 396 384 delay;
#X obj 498 95 bng 15 250 50 0 empty empty empty 17 7 0 10 -262144 -1
-1;
#X obj 36 435 outlet;
#X obj 76 435 outlet;
#X obj 116 435 outlet;
#X obj 156 435 outlet;
#X obj 196 435 outlet;
#X obj 236 435 outlet;
#X obj 276 435 outlet;
#X obj 316 435 outlet;
#X obj 356 435 outlet;
#X obj 396 435 outlet;
#X obj 36 405 bng 15 250 50 0 empty empty empty 17 7 0 10 -262144 -1
-1;
#X obj 76 405 bng 15 250 50 0 empty empty empty 17 7 0 10 -262144 -1
-1;
#X obj 32 322 bng 15 250 50 0 empty empty empty 17 7 0 10 -262144 -1
-1;
#X msg 336 144 ding_time;
#X obj 222 317 print;
#X obj 397 36 symbol ding_time;
#X connect 0 0 7 0;
#X connect 0 0 20 0;
#X connect 1 0 2 0;
#X connect 2 0 3 0;
#X connect 3 0 4 0;
#X connect 4 0 5 0;
#X connect 4 0 11 0;
#X connect 4 0 12 0;
#X connect 5 0 6 0;
#X connect 6 0 1 0;
#X connect 7 0 8 0;
#X connect 8 0 3 4;
#X connect 8 0 5 1;
#X connect 9 0 10 0;
#X connect 9 0 20 0;
#X connect 10 0 7 0;
#X connect 11 0 13 0;
#X connect 12 0 17 0;
#X connect 12 0 46 0;
#X connect 13 0 12 1;
#X connect 14 0 16 0;
#X connect 14 0 31 0;
#X connect 15 0 31 0;
#X connect 15 0 47 0;
#X connect 16 0 11 0;
#X connect 16 0 45 0;
#X connect 17 0 21 1;
#X connect 17 1 22 1;
#X connect 17 2 23 1;
#X connect 17 3 24 1;
#X connect 17 4 25 1;
#X connect 17 5 26 1;
#X connect 17 6 27 1;
#X connect 17 7 28 1;
#X connect 17 8 29 1;
#X connect 17 9 30 1;
#X connect 18 0 30 0;
#X connect 18 0 29 0;
#X connect 18 0 28 0;
#X connect 18 0 27 0;
#X connect 18 0 26 0;
#X connect 18 0 25 0;
#X connect 18 0 24 0;
#X connect 18 0 23 0;
#X connect 18 0 22 0;
#X connect 18 0 21 0;
#X connect 19 0 21 0;
#X connect 19 0 22 0;
#X connect 19 0 23 0;
#X connect 19 0 24 0;
#X connect 19 0 25 0;
#X connect 19 0 26 0;
#X connect 19 0 27 0;
#X connect 19 0 28 0;
#X connect 19 0 29 0;
#X connect 19 0 30 0;
#X connect 20 0 1 0;
#X connect 21 0 32 0;
#X connect 21 0 42 0;
#X connect 22 0 33 0;
#X connect 22 0 43 0;
#X connect 23 0 34 0;
#X connect 24 0 35 0;
#X connect 25 0 36 0;
#X connect 26 0 37 0;
#X connect 27 0 38 0;
#X connect 28 0 39 0;
#X connect 29 0 40 0;
#X connect 30 0 41 0;
#X connect 31 0 18 0;
#X connect 44 0 21 0;
#X connect 44 0 22 0;
#X connect 47 0 16 0;
