#N canvas 21 124 450 300 10;
#X obj 100 17 inlet;
#X obj 100 130 bng 15 250 50 0 empty empty empty 17 7 0 10 -262144
-1 -1;
#X obj 100 200 outlet;
#X obj 127 99 delay 75 1 msec;
#X obj 100 153 tgl 15 0 empty empty empty 17 7 0 10 -262144 -1 -1 0
1;
#X obj 100 173 == 0;
#X obj 159 202 tgl 15 0 empty empty empty 17 7 0 10 -262144 -1 -1 0
1;
#X obj 164 39 bng 15 250 50 0 empty empty empty 17 7 0 10 -262144 -1
-1;
#X obj 100 68 t b b;
#X obj 214 20 inlet;
#X connect 0 0 8 0;
#X connect 1 0 4 0;
#X connect 3 0 1 0;
#X connect 4 0 5 0;
#X connect 5 0 2 0;
#X connect 5 0 6 0;
#X connect 7 0 8 0;
#X connect 8 0 1 0;
#X connect 8 1 3 0;
#X connect 9 0 3 1;
