#N canvas 42 85 533 618 10;
#X obj 203 134 table ding_time;
#X obj 168 29 loadbang;
#X obj 26 59 bng 15 250 50 0 empty empty empty 17 7 0 10 -262144 -1
-1;
#X obj 147 341 timer;
#X floatatom 147 362 5 0 0 0 - - -, f 5;
#X obj 87 340 timer;
#X floatatom 87 361 5 0 0 0 - - -, f 5;
#X obj 26 20 inlet;
#X obj 26 276 delayPlate, f 48;
#X msg 195 86 \; ding_time 0 0 3 60 90 135 165 195;
#X msg 168 252 7;
#X msg 311 240 symbol ding_time;
#X obj 26 149 bng 15 250 50 0 empty empty empty 17 7 0 10 -262144 -1
-1;
#X obj 26 297 bng 15 250 50 0 empty empty empty 17 7 0 10 -262144 -1
-1;
#X obj 57 298 bng 15 250 50 0 empty empty empty 17 7 0 10 -262144 -1
-1;
#X obj 26 339 timer;
#X floatatom 26 360 5 0 0 0 - - -, f 5;
#X obj 26 440 ding;
#X obj 26 513 timer;
#X floatatom 26 534 5 0 0 0 - - -, f 5;
#X obj 26 472 sel 0 1;
#X obj 168 224 t b b;
#X obj 168 181 bng 15 250 50 0 empty empty empty 17 7 0 10 -262144
-1 -1;
#X obj 168 50 t b b;
#X obj 68 440 ding;
#X obj 106 441 ding;
#X obj 146 441 ding;
#X obj 265 441 ding;
#X obj 186 441 ding;
#X obj 226 441 ding;
#X connect 1 0 23 0;
#X connect 2 0 12 0;
#X connect 3 0 4 0;
#X connect 5 0 6 0;
#X connect 7 0 2 0;
#X connect 8 0 13 0;
#X connect 8 1 14 0;
#X connect 8 2 5 1;
#X connect 8 2 25 0;
#X connect 8 3 3 1;
#X connect 8 3 26 0;
#X connect 8 4 28 0;
#X connect 8 5 29 0;
#X connect 8 6 27 0;
#X connect 10 0 8 1;
#X connect 11 0 8 2;
#X connect 12 0 8 0;
#X connect 13 0 15 0;
#X connect 13 0 17 0;
#X connect 13 0 5 0;
#X connect 13 0 3 0;
#X connect 14 0 15 1;
#X connect 14 0 24 0;
#X connect 15 0 16 0;
#X connect 17 0 20 0;
#X connect 18 0 19 0;
#X connect 20 0 18 0;
#X connect 20 1 18 1;
#X connect 21 0 10 0;
#X connect 21 1 11 0;
#X connect 22 0 21 0;
#X connect 23 0 22 0;
#X connect 23 1 9 0;
